<?xml version="1.0" standalone="no"?>
<!DOCTYPE svg PUBLIC "-//W3C//DTD SVG 1.1//EN" "http://www.w3.org/Graphics/SVG/1.1/DTD/svg11.dtd" >
<svg xmlns="http://www.w3.org/2000/svg">
<metadata></metadata>
<defs>
<font id="oe_rutz_promedium" horiz-adv-x="0" >
<font-face units-per-em="2048" ascent="1638" descent="-410" />
<missing-glyph horiz-adv-x="469" />
<glyph unicode=" "  horiz-adv-x="469" />
<glyph unicode="&#x09;" horiz-adv-x="469" />
<glyph unicode="&#xa0;" horiz-adv-x="469" />
<glyph unicode="!" horiz-adv-x="531" d="M359 390q-16 0 -179 38q-19 6 -20 25q-9 69 -17.5 234t-8.5 279v159q0 15 5.5 19.5t19.5 4.5h195q22 0 22 -24l-2 -716q0 -19 -15 -19zM262 -41q-36 1 -99.5 65t-63.5 97q0 35 65.5 100.5t101.5 65.5q32 -2 96 -66t66 -96q0 -37 -66.5 -103t-99.5 -63z" />
<glyph unicode="&#x22;" horiz-adv-x="732" d="M116 879q-8 1 -48 15q-8 4 -7 14q1 3 15.5 34.5t39.5 93t50 133.5q-41 27 -72 60t-31 52q0 36 58 94t94 58q32 0 89.5 -61t57.5 -88q0 -41 -30 -122q-64 -156 -198 -278q-8 -8 -18 -5zM476 879q-8 1 -48 15q-8 4 -7 14q1 3 15.5 34.5t39.5 93t50 133.5q-41 27 -72 60 t-31 52q0 36 58 94t94 58q32 0 89.5 -61t57.5 -88q0 -41 -30 -122q-64 -156 -198 -278q-8 -8 -18 -5z" />
<glyph unicode="#" horiz-adv-x="1420" d="M312 -35q-20 0 -121 30q-15 6 -15 18q0 9 4 17l103 257l-185 -1q-13 0 -13 13q0 14 20 134q3 18 23 18h221l118 292l-186 -1q-13 0 -13 13t20 134q3 19 24 19h221l103 256q6 14 20 14q12 0 122 -34q11 -5 11 -16q0 -2 -3 -14l-3 -8l-80 -198h280l103 256q6 14 20 14 q9 0 122 -34q12 -4 12 -16q0 -2 -3 -14l-3 -8l-80 -198h167q17 0 17 -14q0 -6 -1.5 -15t-5.5 -34.5t-9 -59.5q-3 -17 -25 -21q-24 -6 -205 -11l-121 -302h166q17 0 17 -13q0 -6 -1 -14.5t-5.5 -35.5t-8.5 -59q-3 -17 -25 -21q-23 -6 -204 -11l-127 -316q-6 -16 -20 -16 q-19 0 -122 30q-15 6 -15 18q0 9 4 17l106 263q-44 -1 -281 -4l-123 -308q-6 -16 -20 -16zM520 451h279l120 298q-44 -1 -281 -4z" />
<glyph unicode="$" horiz-adv-x="960" d="M370 -169q-6 0 -8.5 2t-2.5 10q0 9 11 127q-90 8 -167 33.5t-112 53.5q-11 8 -11 23q0 26 19.5 105t34.5 114q4 13 18 13q17 0 86 -16q17 -4 19 -25l17 -169q65 0 74 1q10 0 34 2l33 368q-3 2 -8 3.5t-7 3.5q-128 61 -175 97q-114 85 -114 223q0 130 98 209.5t242 96.5 q0 21 2.5 64.5t2.5 44.5q1 11 15 16q15 2 57.5 13t48.5 11q11 0 11 -15l-9 -132q71 -6 139 -20q7 0 32.5 1.5t31.5 1.5q32 0 35 -24q5 -55 11 -115.5t9.5 -93t3.5 -35.5q0 -12 -14 -15q-66 -16 -87 -16q-13 0 -21 17l-87 187q-23 0 -61 -2q-13 -199 -27 -342l61 -26 q125 -51 193 -122.5t68 -185.5q0 -144 -100.5 -236t-268.5 -110q-1 -13 -4 -99q-2 -15 -14 -18q-63 -24 -109 -24zM434 705l12 268q-58 -16 -82 -42q-38 -45 -38 -91q0 -74 108 -135zM504 128q76 22 101 54q30 38 30 96q0 46 -28.5 79.5t-86.5 65.5q-8 -175 -16 -295z" />
<glyph unicode="%" horiz-adv-x="1529" d="M349 464q-132 0 -203 86.5t-71 249.5q0 197 99 286q70 67 191 67q130 0 202 -87t72 -246q0 -193 -95 -285q-73 -71 -195 -71zM408 -36q-3 0 -134 37q-9 1 -9 10q0 6 345 463q271 361 475 631q12 12 23 12q21 0 139 -40q9 -7 9 -11q0 -7 -79 -111t-384 -501 q-222 -289 -368 -479q-8 -11 -17 -11zM376 555q28 0 45 10q20 19 34.5 80t14.5 130q0 126 -27 195q-35 94 -111 94q-30 0 -44 -10q-20 -20 -34 -79t-14 -127q0 -107 16 -165q14 -49 43 -88.5t77 -39.5zM1166 -64q-132 0 -203 86.5t-71 248.5q0 197 99 286q70 67 191 67 q129 0 200.5 -86.5t71.5 -245.5q0 -196 -93 -286q-71 -70 -195 -70zM1193 26q28 0 45 10q21 19 35 80.5t14 129.5q0 126 -27 195q-35 95 -111 95q-28 0 -44 -10q-20 -20 -34 -79t-14 -128q0 -107 16 -165q39 -128 120 -128z" />
<glyph unicode="&#x26;" horiz-adv-x="1539" d="M516 -32q-88 0 -166.5 23.5t-142.5 70t-101.5 123.5t-37.5 176q0 73 25 134.5t72.5 108.5t101.5 81.5t127 67.5q-84 83 -132.5 165.5t-48.5 179.5q0 141 106.5 231t261.5 90q157 0 256.5 -72t99.5 -205q0 -127 -72 -213.5t-202 -150.5l373 -361q86 170 86 346q0 44 -4 77 l-104 29q-12 3 -12 13q0 6 13 54q5 14 21 14h376q11 0 11 -8q0 -10 -8 -63q-2 -14 -19 -18l-100 -26q0 -134 -43.5 -265t-130.5 -235q51 -51 131.5 -127t84.5 -80q15 -15 142 -48q8 -2 8 -9q0 -9 -11 -57q-3 -14 -21 -14h-381q-18 0 -18 8l10 53q-13 26 -83 102 q-184 -195 -468 -195zM586 856q5 4 34 27q110 81 110 210q0 57 -17.5 100.5t-46 66.5t-59 34.5t-61.5 11.5q-75 0 -96 -26q-33 -38 -33 -108q0 -89 44 -165t125 -151zM659 128q67 0 133 31.5t115 84.5q-114 117 -432 428q-158 -117 -158 -251q0 -50 24 -101.5t66.5 -94.5 t108.5 -70t143 -27z" />
<glyph unicode="'" horiz-adv-x="372" d="M116 879q-8 1 -48 15q-8 4 -7 14q1 3 15.5 34.5t39.5 93t50 133.5q-41 27 -72 60t-31 52q0 36 58 94t94 58q32 0 89.5 -61t57.5 -88q0 -41 -30 -122q-64 -156 -198 -278q-8 -8 -18 -5z" />
<glyph unicode="(" horiz-adv-x="635" d="M528 -322q-15 0 -26 8q-414 302 -414 892q0 594 421 897q8 6 17 6q10 0 65 -33q7 -3 7 -12q0 -7 -6 -13q-132 -148 -212 -380.5t-80 -464.5q0 -234 80 -466.5t210 -375.5q8 -8 8 -14q0 -8 -9 -13q-50 -31 -61 -31z" />
<glyph unicode=")" horiz-adv-x="636" d="M108 -322q-11 0 -61 31q-9 5 -9 13q0 7 7 14q130 144 210 375.5t80 466.5q0 232 -80 464.5t-212 380.5q-6 6 -6 13q0 8 7 12q55 33 65 33t18 -6q421 -305 421 -897q0 -591 -415 -892q-11 -8 -25 -8z" />
<glyph unicode="*" horiz-adv-x="844" d="M562 941q-81 0 -147 91.5t-66 173.5q0 13 9 42l9 28q-93 -88 -93 -186q0 -21 -10 -22q-147 -46 -150 -46q-15 0 -15 46q0 80 59.5 157.5t130.5 93.5q21 3 41 3h30q-73 40 -146 40q-27 0 -49.5 -6t-23.5 -6q-7 0 -12 6l-87 120q-4 5 -4 11q0 14 36 25t64 11q67 0 136 -34 t99 -80q11 -16 17 -39l10 -31q6 30 6 62q0 89 -42 147q-5 12 -5 16q0 2 2 8l88 120q4 7 10 7q10 0 27.5 -17.5t33.5 -59t16 -92.5q0 -106 -49 -174q-8 -12 -32 -29l-20 -14q128 20 180 94q8 12 20 12q2 0 142 -47q13 -3 13 -11q0 -5 -3 -13q-29 -59 -98.5 -94t-143.5 -35 q-66 0 -111 34l-25 18q58 -117 152 -149q17 -6 17 -17v-148q0 -16 -16 -16z" />
<glyph unicode="+" horiz-adv-x="1024" d="M449 160q-24 0 -25 26q-4 42 -4 296q-62 0 -153.5 -0.5t-109.5 -0.5q-20 0 -20 22q0 3 0.5 10.5t3.5 37.5t6 72q3 31 37 31h235v236q0 25 20 30q93 14 134 14q18 0 18 -29v-251h270q28 0 28 -24q0 -5 -11 -97q-6 -29 -37 -33q-54 -10 -250 -15v-278q0 -23 -24 -29 q-96 -18 -118 -18z" />
<glyph unicode="," horiz-adv-x="479" d="M138 -316q-3 1 -8 2.5t-17.5 5.5t-27.5 9q-10 4 -8 15q75 193 105 280q-44 29 -74.5 66t-30.5 59q0 27 35 70q72 92 117 92q34 0 76 -33q39 -32 66.5 -66.5t27.5 -55.5q0 -64 -28 -138q-70 -167 -214 -300q-9 -7 -19 -6z" />
<glyph unicode="-" horiz-adv-x="875" d="M92 435q-16 0 -16 15q0 5 27 149q5 23 26 23h636q24 0 24 -17l-20 -110q-5 -22 -30 -27q-88 -13 -309.5 -23t-337.5 -10z" />
<glyph unicode="." horiz-adv-x="482" d="M240 -41q-36 1 -99.5 65t-63.5 97q0 35 65.5 100.5t101.5 65.5q32 -2 96 -66t66 -96q0 -37 -66.5 -103t-99.5 -63z" />
<glyph unicode="/" horiz-adv-x="915" d="M224 -213q-19 0 -140 35q-10 3 -13 6t-3 9q0 5 5 20l573 1619q6 14 20 14q6 0 143 -39q11 -5 11 -17q0 -5 -3 -14l-571 -1617q-6 -16 -22 -16z" />
<glyph unicode="0" horiz-adv-x="1171" d="M572 -26q-219 0 -339.5 145t-120.5 416q0 325 166 477q117 111 321 111q217 0 338 -145.5t121 -410.5q0 -325 -158 -476q-118 -117 -328 -117zM625 96q49 0 84 18q38 32 64 141.5t26 231.5q0 222 -49 347q-29 75 -81 121.5t-126 46.5q-51 0 -82 -19q-38 -34 -63 -138.5 t-25 -228.5q0 -179 30 -293q11 -37 26.5 -71.5t41.5 -72t66 -60.5t88 -23z" />
<glyph unicode="1" horiz-adv-x="791" d="M125 0q-13 0 -16.5 2t-3.5 9q0 13 9 50q2 8 6 11.5t15 7.5q7 2 22.5 6.5t39 10.5t38.5 10q29 7 76 18v818h-206q-16 0 -16 11q0 7 12 55q3 12 18 18q4 1 108.5 24.5t205.5 45t112 21.5q13 0 13 -11v-981q22 -5 57 -12.5t57 -12.5t31 -9q14 -5 14 -16q0 -8 -15 -62 q-5 -14 -22 -14h-555z" />
<glyph unicode="2" horiz-adv-x="1088" d="M150 0q-27 0 -37 21q-25 59 -25 68q0 11 9 20q7 7 195 201t226 239q65 73 103.5 140t38.5 142q0 64 -31.5 105t-73.5 55t-94 14q-58 0 -132 -11l-68 -197q-7 -19 -21 -19q-15 0 -76 14q-19 4 -21 21q-6 71 -6 134q0 37 1 48q2 20 10.5 30.5t27.5 19.5q75 37 183.5 57 t174.5 20q186 0 290 -78.5t104 -219.5q0 -62 -40.5 -140t-88 -139t-146 -156t-150 -139.5t-165.5 -141.5q-5 -5 -8 -7q87 14 270 28q4 0 77.5 6.5t113.5 9.5q15 15 98 160q8 14 19 14q4 0 73 -16q14 -5 14 -18q0 -36 -18 -115t-41 -141q-11 -29 -46 -29h-740z" />
<glyph unicode="3" horiz-adv-x="945" d="M159 -79q-20 0 -24 13q-12 43 -12 66q0 10 15 15q181 48 292 120q133 85 133 208q0 47 -18.5 83t-46 57.5t-69.5 36.5t-79 21t-85 11q-12 2 -16 4.5t-4 9.5q0 9 11 53q4 15 19 30q86 83 204 191.5t144 128.5q-54 -8 -247 -19.5t-223 -11.5q-25 0 -31 16q-33 115 -33 131 q0 11 17 11h687q15 0 21 -3t11 -14q24 -62 24 -69q0 -8 -6 -15q-21 -27 -162.5 -179.5t-165.5 -176.5q131 -16 215 -94.5t84 -190.5q0 -91 -29.5 -152.5t-96.5 -116.5q-80 -63 -190.5 -102t-190.5 -50.5t-148 -11.5z" />
<glyph unicode="4" horiz-adv-x="1066" d="M632 -84q-10 0 -13.5 4.5t-3.5 16.5v360h-507q-18 0 -26 12q-34 58 -34 72q0 9 4 16l503 709q11 15 25 15q13 0 24 -4l177 -37q14 -3 14 -14q0 -9 -10 -22l-490 -620q83 4 323 13v182q0 24 16 28q186 36 204 36q11 0 14.5 -4.5t3.5 -17.5v-213q40 5 126 5q11 0 14.5 -3 t3.5 -12q0 -14 -15 -119q-2 -12 -7.5 -17t-20.5 -5h-101v-322q0 -20 -19 -24q-65 -10 -115.5 -19t-67.5 -12.5t-22 -3.5z" />
<glyph unicode="5" horiz-adv-x="944" d="M118 -94q-11 0 -14 12q-14 50 -14 65q0 12 19 16q104 25 183 55t143 69.5t97.5 91.5t33.5 115q0 113 -83 167t-231 54q-19 0 -49.5 -2t-43.5 -2q-25 0 -25 24l18 500q2 27 33 27h633q19 0 19 -16q0 -20 -42 -126q-7 -16 -32 -16q-31 0 -199.5 8.5t-209.5 13.5 q-4 -32 -10 -105.5t-10 -105.5l-12 -114q56 10 133 10q158 0 261.5 -79.5t103.5 -231.5q0 -336 -580 -420q-60 -10 -122 -10z" />
<glyph unicode="6" horiz-adv-x="1056" d="M531 -26q-205 0 -322 117.5t-117 332.5q0 126 47 241t128.5 204t188 155.5t229.5 103.5q22 6 38 6q11 0 24 -7q59 -31 59 -42q0 -5 -2 -7t-19 -13q-96 -55 -170 -115.5t-136 -136.5t-95.5 -170t-33.5 -201q0 -62 13 -121t39.5 -112t74.5 -85.5t111 -32.5q70 0 101 28 q21 17 33 70.5t12 120.5q0 238 -193 264l-39 3q-8 1 -10 2.5t-2 7.5q0 12 11 52q4 10 16 14q57 23 146 23q135 0 223 -82.5t88 -230.5q0 -176 -117.5 -282.5t-325.5 -106.5z" />
<glyph unicode="7" horiz-adv-x="978" d="M354 -60q-22 0 -185 40q-19 4 -19 22q0 15 42.5 92t294.5 522q121 213 196 346q-72 -8 -280 -17.5t-259 -9.5q-23 0 -27 15q-39 122 -39 133q0 14 20 14h767q17 0 23.5 -4t12.5 -19q26 -64 26 -73q0 -10 -6 -22l-537 -1019q-11 -20 -30 -20z" />
<glyph unicode="8" horiz-adv-x="1052" d="M538 -26q-84 0 -157 15.5t-135.5 48.5t-98.5 91t-36 136q0 96 53 165.5t147 126.5q-81 49 -125.5 113.5t-44.5 160.5q0 129 107.5 211.5t278.5 82.5q104 0 189 -30t138.5 -94t53.5 -151q0 -169 -170 -275q96 -53 149.5 -124.5t53.5 -176.5q0 -146 -110.5 -223t-292.5 -77 zM638 628q53 89 53 174q0 90 -64 149.5t-152 59.5q-75 0 -97 -35q-23 -23 -23 -83q0 -74 52 -126q45 -49 231 -139zM568 98q93 0 124 30q30 23 30 86q0 72 -52 130q-18 21 -57 47t-65.5 40.5t-80 42t-56.5 28.5q-71 -97 -71 -189q0 -90 69 -152.5t159 -62.5z" />
<glyph unicode="9" horiz-adv-x="1077" d="M192 -79q-16 0 -19 16q-15 49 -15 62q0 8 4 11t17 7q154 51 262 118.5t168 149t86.5 167t26.5 187.5q0 54 -12.5 113.5t-38.5 119.5t-75.5 99t-114.5 39q-41 0 -66 -7.5t-45 -29t-29 -64t-9 -110.5q0 -130 54 -194t172 -91q15 -6 18 -15q11 -42 11 -56q0 -10 -19 -15 q-47 -12 -107 -12q-174 0 -273 89.5t-99 244.5q0 91 36.5 164t98 117.5t137 67.5t158.5 23q224 0 343.5 -133t119.5 -362q0 -254 -140 -422t-400 -241q-154 -43 -250 -43z" />
<glyph unicode=":" horiz-adv-x="532" d="M240 582q-36 2 -99.5 66t-63.5 97q0 34 65.5 99.5t101.5 65.5q33 0 96 -64.5t66 -97.5q0 -37 -66.5 -103t-99.5 -63zM240 -41q-36 1 -99.5 65t-63.5 97q0 35 65.5 100.5t101.5 65.5q32 -2 96 -66t66 -96q0 -37 -66.5 -103t-99.5 -63z" />
<glyph unicode=";" horiz-adv-x="517" d="M246 581q-37 2 -100 66t-63 97q0 35 64.5 100t100.5 65q34 -2 97 -65.5t65 -96.5q0 -38 -65.5 -103.5t-98.5 -62.5zM145 -316l-52 17q-10 4 -8 15q1 4 14.5 37t38.5 98.5t52 144.5q-44 28 -74.5 65.5t-30.5 59.5q0 28 36 70q72 92 116 92q34 0 76 -33q39 -31 66 -66 t27 -56q0 -69 -28 -138q-67 -164 -212 -300q-10 -7 -21 -6z" />
<glyph unicode="&#x3c;" horiz-adv-x="1024" d="M831 65q-2 0 -10 2l-697 333q-20 9 -20 32v86q0 23 20 32l699 330q8 2 10 2q10 0 16 -12l48 -112q5 -12 5 -16q0 -14 -15 -21l-527 -246l529 -251q12 -4 12 -17l-2 -12l-52 -118q-5 -12 -16 -12z" />
<glyph unicode="=" horiz-adv-x="1024" d="M158 654q-20 0 -20 21q0 3 0.5 10.5t3.5 38t6 72.5q3 31 37 31h677q28 0 28 -24q0 -12 -11 -97q-6 -30 -37 -34q-80 -6 -328.5 -12t-355.5 -6zM158 325q-20 0 -20 22q0 3 0.5 10.5t3.5 37.5t6 72q3 31 37 31h677q28 0 28 -24q0 -5 -11 -97q-6 -30 -37 -34 q-79 -6 -331 -12t-353 -6z" />
<glyph unicode="&#x3e;" horiz-adv-x="1024" d="M193 65q-11 0 -16 12l-52 118l-2 12q0 13 12 17l529 251l-527 246q-15 7 -15 21q0 4 5 16l48 112q6 12 16 12q2 0 10 -2l699 -330q20 -9 20 -32v-86q0 -23 -20 -32l-697 -333q-8 -2 -10 -2z" />
<glyph unicode="?" horiz-adv-x="932" d="M447 378q-12 0 -161 28q-16 5 -17 21q-1 3 -13 127q-1 17 1.5 23t16.5 14q153 79 212.5 148t55.5 148q-3 48 -25 90.5t-52.5 68.5t-62 41t-55.5 15l-26 -157q-17 -17 -41.5 -32t-42.5 -15q-36 -2 -90.5 47t-56.5 89q-2 35 38.5 66.5t100 49.5t118.5 21q68 3 141.5 -10.5 t142.5 -43.5t115 -87t49 -132q3 -62 -19 -114t-67.5 -91.5t-95 -68.5t-118.5 -58q-5 -36 -35 -177q-3 -11 -13 -11zM360 -41q-36 1 -99.5 65t-63.5 97q0 35 65.5 100.5t101.5 65.5q32 -2 96 -66t66 -96q0 -37 -66.5 -103t-99.5 -63z" />
<glyph unicode="@" horiz-adv-x="1722" d="M692 -295q-290 0 -455 170.5t-165 456.5q0 185 76 351.5t200 281.5t286 182t331 67q168 0 296.5 -48t204 -132.5t113 -190.5t37.5 -232q0 -105 -37.5 -199t-97 -160.5t-133 -115.5t-147.5 -72.5t-139 -23.5q-51 0 -90 44.5t-50 87.5h-15q-106 -132 -225 -132 q-100 0 -166.5 75t-66.5 217q0 105 36.5 209.5t98 187.5t149 134.5t182.5 51.5q116 0 173 -60q73 19 102 19q14 0 14 -15q0 -10 -13 -64t-15 -69l-68 -531q24 -29 46 -29q39 0 84 34t84 90.5t64.5 138.5t25.5 168q0 214 -131 348t-346 134q-122 0 -242 -59.5t-211 -157.5 t-147.5 -233.5t-56.5 -277.5q0 -105 27.5 -192t73 -145.5t106 -99t125.5 -59t133 -18.5q105 0 247 61q12 5 18 5q11 0 16 -4l52 -17q6 -4 6 -9q0 -4 -5 -12q-18 -23 -48.5 -46.5t-77.5 -50t-115.5 -43t-143.5 -16.5zM734 187q95 6 168 50l76 408q-29 166 -128 171 q-67 -36 -119 -160t-52 -271q0 -151 55 -198z" />
<glyph unicode="A" horiz-adv-x="1396" d="M-16 0q-18 0 -18 8q0 1 1 8q6 26 13 65q4 13 19 19l143 50l433 1197q13 34 35 39q129 20 153 20q22 0 31 -27l476 -1236q9 -3 68 -20t72 -22q12 -4 12 -14q0 -3 -18 -73q-3 -14 -22 -14h-553q-16 0 -16 8q0 6 11 63q3 13 19 19l86 32l59 21l-103 289q-130 -13 -488 -13 q-29 -85 -68 -196l-27 -77q120 -36 178 -60q12 -4 12 -14q0 -11 -11 -58q-3 -14 -21 -14h-476zM448 568h390l-205 587q-16 -83 -185 -587z" />
<glyph unicode="B" horiz-adv-x="1312" d="M82 0q-15 0 -15 8q0 11 12 63q3 13 18 19q8 3 93 34q21 7 67 25v1087q-136 45 -173 62q-12 4 -12 14t11 58q3 14 21 14h365q95 0 160 -2t144 -9t131.5 -20.5t105.5 -37.5t84 -58t50.5 -83.5t19.5 -113.5q0 -68 -27.5 -125t-75 -94.5t-103.5 -62t-120 -35.5 q168 -19 278.5 -109t110.5 -238q0 -95 -30 -164t-84 -113.5t-140.5 -71t-188 -37t-237.5 -10.5h-465zM518 81q73 10 126.5 21.5t115.5 35t101.5 55t66 83t26.5 117.5t-26 119t-71.5 88t-95.5 58t-110 38q-18 4 -23.5 7.5t-5.5 12.5l6 36q1 5 2.5 8t7 5.5t7 3l10.5 3.5 q114 33 180 106t66 173q0 220 -383 254v-1224z" />
<glyph unicode="C" horiz-adv-x="1259" d="M717 -35q-287 0 -460 178.5t-173 494.5q0 204 68.5 373t197.5 270q174 138 425 138q90 0 220 -23q21 1 52 5q45 5 64 5q13 0 17.5 -7t7.5 -22q18 -207 28 -312q2 -17 2 -18q0 -12 -11 -15q-18 -3 -33.5 -6.5t-23.5 -5t-14.5 -3t-9.5 -2t-6 -0.5q-14 0 -20 15l-83 188 q-111 57 -263 57q-68 0 -127.5 -17t-89.5 -46q-59 -56 -94 -185.5t-35 -298.5q0 -261 122 -420q61 -80 140.5 -119.5t162.5 -39.5q29 0 84.5 10.5t102.5 22.5t101 26.5t63 16.5q33 5 38 5q10 0 14 -9q27 -45 27 -51q0 -4 -6 -12q-188 -193 -488 -193z" />
<glyph unicode="D" horiz-adv-x="1486" d="M82 0q-15 0 -15 8q0 1 12 63q3 13 18 19q8 3 93 34q12 4 68 25v1087q-109 34 -173 62q-12 4 -12 14l12 58q3 14 17 14h444q182 0 326.5 -22.5t250.5 -89.5q276 -174 276 -570q0 -324 -168 -503q-49 -52 -115 -89.5t-132.5 -58.5t-152.5 -32.5t-157 -15t-166 -3.5h-426z M518 95q158 21 266 59t187 106.5t116 176t37 260.5q0 319 -222 474q-64 44 -167 76t-217 46v-1198z" />
<glyph unicode="E" horiz-adv-x="1301" d="M77 0q-15 0 -15 8q0 10 12 63q3 13 17 19q9 4 43 16.5t53 19.5q13 4 71 25v1087q-17 3 -85.5 27.5t-88.5 32.5q-11 5 -11 15t12 57q3 14 19 14h907q21 1 50 5q45 5 57 5q16 0 22 -5.5t8 -19.5q32 -304 32 -313q0 -10 -9 -13q-68 -17 -87 -17q-14 0 -22 17l-87 196 l-193 23q-164 17 -264 34v-555q52 10 153 20t120 10q7 20 29.5 80.5t29.5 75.5q4 10 14 10q3 0 64 -14q14 -5 14 -20l-18 -429q0 -15 -9 -15q-13 0 -67 10q-12 3 -18 21q-1 3 -25 85q-15 55 -16 58q-8 0 -54.5 3t-113 9.5t-103.5 13.5v-560q11 3 80 12.5t193 24t245 25.5 q11 9 49 69t60 100q11 20 24 20q10 0 59 -8q20 -5 20 -26q0 -34 -22 -139t-47 -161q-9 -16 -27 -16h-1075z" />
<glyph unicode="F" horiz-adv-x="1229" d="M80 0q-15 0 -15 8q0 1 12 63q3 13 17 19q7 3 40.5 15.5t54.5 20.5q5 2 70 25v1087q-18 3 -87.5 27.5t-86.5 32.5q-12 4 -12 13q0 1 12 59q3 14 20 14h940q20 1 47 5q40 5 54 5q15 0 21 -6t8 -19q30 -281 30 -313q0 -13 -10 -14q-81 -16 -86 -16q-12 0 -20 17l-88 196 q-357 32 -482 54v-552q53 10 164 20t133 10q6 20 29.5 81t30.5 76q6 10 13 10q4 0 64 -15q15 -5 15 -19l-18 -432q0 -15 -10 -15q-5 0 -65 11q-13 3 -19 21q-6 17 -16 53.5t-17.5 63t-7.5 25.5q-13 0 -62 2t-122 7.5t-112 12.5v-496q18 -3 130 -25.5t128 -26.5q12 -5 12 -14 q0 -4 -24 -77q-6 -14 -25 -14h-660z" />
<glyph unicode="G" horiz-adv-x="1450" d="M770 -35q-167 0 -281 37t-218 134q-91 85 -139.5 218.5t-48.5 291.5q0 186 65 353t207 282q168 138 434 138q146 0 274 -29l53 4q45 5 65 5q23 0 28 -25q35 -306 35 -328q0 -11 -9 -14q-83 -17 -88 -17q-13 0 -20 15l-77 173q-50 35 -135 56t-163 21q-81 0 -152.5 -16.5 t-102.5 -45.5q-141 -128 -141 -520q0 -139 38 -262t113 -194q125 -121 309 -121q55 0 119.5 13t97.5 37v342q-9 2 -72.5 18t-120.5 30.5t-66 18.5q-12 4 -12 13q0 1 0.5 4.5t3.5 19t7 35.5q5 14 21 14h611q18 0 18 -8q0 -1 -13 -71q-1 -10 -17 -19q-5 -3 -17 -10.5 t-24 -14.5t-22 -13l-42 -25v-271q0 -24 -11 -39q-71 -99 -209.5 -164.5t-297.5 -65.5z" />
<glyph unicode="H" horiz-adv-x="1623" d="M79 0q-14 0 -14 8q0 6 11 63q3 13 18 19q23 10 94 35q29 9 70 24v1087q-109 34 -173 62q-12 4 -12 13q0 3 12 59q3 14 20 14h594q9 0 11.5 -1.5t2.5 -6.5q0 -6 -14 -68q-1 -13 -17 -19q-4 -2 -96 -34q-13 -4 -71 -25v-464h594v467q-21 6 -93.5 31t-85.5 31q-12 5 -12 14 q0 4 13 61q3 14 19 14h594q15 0 15 -9q0 -5 -11 -60q-3 -13 -18 -19q-7 -3 -40.5 -15t-54.5 -20l-70 -26v-1087q90 -27 174 -62q12 -4 12 -14q0 -2 -1 -7.5t-4.5 -20.5t-6.5 -30q-3 -14 -21 -14h-604q-15 0 -15 8l12 66q1 13 17 19q11 4 104 34q16 5 77 25v482 q-218 -13 -594 -24v-457q21 -6 97.5 -30.5t93.5 -31.5q12 -4 12 -14q0 -15 -13 -63q-5 -14 -21 -14h-605z" />
<glyph unicode="I" horiz-adv-x="778" d="M81 0q-16 0 -16 9q0 3 12 63q3 13 17 19l97 35q38 13 67 24v1086q-109 34 -173 62q-12 4 -12 14q0 1 0.5 4.5t3.5 18.5l7 35q3 14 20 14h594q16 0 16 -8q0 -5 -12 -63q-3 -13 -18 -19l-97 -35q-15 -5 -69 -25v-1084q156 -52 177 -62q12 -4 12 -14q0 -5 -12 -60 q-5 -14 -21 -14h-593z" />
<glyph unicode="J" horiz-adv-x="742" d="M145 -325q-9 0 -13 4q-31 22 -37.5 27t-6.5 11q0 7 4 16q1 3 51 127t79.5 207.5t29.5 107.5v1061q-147 41 -198 62q-11 5 -11 14q0 4 11 58q3 14 19 14h605q16 0 16 -9q0 -1 -1 -5.5t-4 -19.5t-7 -37q-3 -13 -18 -19l-152 -59v-791q0 -150 -13.5 -247.5t-54.5 -186.5 t-105.5 -161.5t-176.5 -167.5q-6 -6 -17 -6z" />
<glyph unicode="K" horiz-adv-x="1490" d="M81 0q-15 0 -15 8q0 11 11 64q3 13 18 19l95 34q38 13 67 24v1087q-19 6 -88 30.5t-84 30.5q-11 6 -11 14q0 6 12 59q3 14 19 14h579q17 0 17 -9l-13 -63q-3 -16 -18 -20l-153 -58v-1078q176 -56 187 -61q12 -7 12 -13q0 -2 -13 -68q-3 -14 -21 -14h-601zM1020 0 q-17 0 -17 10t12 66q-17 30 -198.5 292t-212.5 306q-11 14 -11 26t14 29l423 509l-153 60q-12 3 -12 14q0 3 12 58q5 14 25 14h547q15 0 15 -9q0 -2 -0.5 -5.5t-4 -20t-8.5 -39.5q-1 -13 -19 -19l-161 -56q-84 -104 -222.5 -268t-195.5 -216q5 -12 206 -283t232 -306 q11 -11 39.5 -23t77 -29t64.5 -23q13 -6 13 -15q0 -1 -1 -6t-4.5 -19t-7.5 -33q-3 -14 -17 -14h-435z" />
<glyph unicode="L" horiz-adv-x="1228" d="M79 0q-14 0 -14 8q0 10 11 63q3 13 18 19q7 3 40.5 15.5t54.5 20.5q15 5 69 25v1087q-18 3 -87.5 27.5t-85.5 31.5q-11 6 -11 14q0 11 11 59q3 14 19 14h601q16 0 16 -8q0 -2 -1 -6.5t-4 -20.5t-7 -36q-3 -13 -18 -19q-4 -2 -40.5 -14t-59.5 -21l-73 -26v-1133 q44 9 162.5 24t216 26t105.5 11q35 47 112 171q10 18 27 18l61 -9q16 -4 16 -21q0 -42 -20.5 -139.5t-47.5 -162.5q-8 -18 -28 -18h-1043z" />
<glyph unicode="M" horiz-adv-x="1980" d="M860 -9q-21 0 -30 19l-445 1133q18 -120 28 -579q4 -195 6 -416q135 -45 173 -61q11 -5 11 -14l-11 -59q-3 -14 -20 -14h-489q-15 0 -15 8q0 3 12 63q3 13 18 19q11 5 91 34q12 4 68 25v1081q-84 26 -170 62q-11 5 -11 14l13 64q3 14 19 14h397q28 0 38 -24l460 -1082 l423 1073q14 33 50 33h423q16 0 16 -9q0 -1 -1 -7t-4.5 -23t-7.5 -41q-3 -13 -18 -19q-33 -13 -94 -35l-70 -25v-1077q36 -8 176 -61q11 -5 11 -14q0 -10 -11 -59q-3 -14 -21 -14h-588q-14 0 -14 11q0 12 11 60q3 13 18 19q60 20 92 33q24 8 70 26v1000q-22 -99 -216 -611 q-86 -226 -183 -467q-16 -39 -43 -48q-147 -32 -162 -32z" />
<glyph unicode="N" horiz-adv-x="1558" d="M1134 -26q-21 0 -39 27l-704 1071q31 -156 31 -924q168 -52 190 -61q12 -5 12 -14q0 -2 -11 -59q-3 -14 -21 -14h-509q-11 0 -11 9q0 2 1 6.5t4 19.5t6 36q3 13 18 19q44 15 88 33q18 6 68 26v1087q-104 32 -173 61q-12 7 -12 14t12 59q3 14 19 14h343q35 0 55 -27 l685 -1031q-27 163 -27 737v127q0 33 1 46l-189 60q-12 4 -12 14q0 13 11 60q3 14 20 14h502q16 0 16 -9q0 -2 -1 -6.5t-4 -19.5t-7 -36q-3 -13 -17 -19t-89 -34q-8 -2 -65 -25v-1179q0 -14 -1.5 -22.5t-8 -17t-19.5 -11.5q-142 -31 -162 -31z" />
<glyph unicode="O" horiz-adv-x="1460" d="M701 -35q-130 0 -243 45.5t-196 128.5t-131 208t-48 276q0 127 27.5 244t85 217.5t138 175t193.5 117t245 42.5q123 0 233 -45.5t193 -128t131.5 -208t48.5 -275.5q0 -128 -29 -246.5t-87 -218.5t-138.5 -174.5t-189 -116t-233.5 -41.5zM792 124q144 0 213 80 q47 55 73 179.5t26 233.5q0 128 -9.5 212t-37.5 155q-47 125 -154.5 200.5t-231.5 75.5q-134 0 -205 -67q-54 -54 -81.5 -182.5t-27.5 -244.5q0 -157 22 -274.5t88 -204.5q58 -76 143 -119.5t182 -43.5z" />
<glyph unicode="P" horiz-adv-x="1237" d="M82 0q-18 0 -18 8q0 5 12 63q3 13 18 19q8 4 94 34q5 2 70 25v1087q-109 34 -173 62q-12 4 -12 14q0 6 12 58q3 14 19 14h438q89 0 140 -2t124.5 -10t131 -28.5t104.5 -53.5q148 -105 148 -315q0 -190 -152 -299q-75 -53 -180.5 -78t-198.5 -25q-15 0 -15 11q0 3 8 44 q4 13 22 21q73 34 115 60.5t75.5 64.5t46.5 87.5t13 120.5q0 86 -32.5 149.5t-90.5 99.5t-128 53.5t-155 18.5v-1155q9 -3 63.5 -17t104 -27.5t58.5 -17.5q13 -4 13 -14q0 -2 -0.5 -5.5t-3.5 -18.5t-6 -34q-3 -14 -21 -14h-644z" />
<glyph unicode="Q" horiz-adv-x="1460" d="M1333 -323q-90 0 -246 89t-273 209q-51 -10 -113 -10q-130 0 -243 45.5t-196 128.5t-131 208t-48 276q0 127 27.5 244t85 217.5t138 175t193.5 117t245 42.5q123 0 233 -45.5t193 -128t131.5 -208t48.5 -275.5q0 -215 -81.5 -397t-229.5 -287q44 -48 150 -161t150 -161 q9 -9 9 -16q0 -3 -25 -51q-6 -12 -18 -12zM792 124q144 0 213 80q47 55 73 179.5t26 233.5q0 128 -9.5 212t-37.5 155q-47 125 -154.5 200.5t-231.5 75.5q-134 0 -205 -67q-54 -54 -81.5 -182.5t-27.5 -244.5q0 -157 22 -274.5t88 -204.5q58 -76 143 -119.5t182 -43.5z" />
<glyph unicode="R" horiz-adv-x="1379" d="M83 0q-18 0 -18 8q0 10 11 63q3 13 18 19l93 34q13 4 71 25v1087q-109 34 -173 62q-11 5 -11 14q0 10 11 58q3 14 19 14h470q155 0 273 -19t211 -80q66 -44 104 -114t38 -155q0 -255 -291 -342q2 -3 135.5 -241.5t147.5 -260.5q9 -13 30.5 -23.5t69.5 -28.5t83 -34 q11 -5 11 -14q0 -2 -1 -6t-4 -18.5t-7 -33.5q-2 -14 -17 -14h-396q-17 0 -17 10q0 11 13 71q-7 14 -81 157t-144.5 279.5t-72.5 140.5q-8 14 -8 21q0 11 22 20q77 30 130.5 68t80 81.5t37 84.5t10.5 89q0 70 -37.5 125t-99.5 87t-131.5 49.5t-144.5 20.5v-1143 q7 -2 51.5 -16.5t84 -27t47.5 -16.5q15 -6 15 -16q0 -2 -1.5 -8t-6 -25t-8.5 -38q-3 -14 -21 -14h-596z" />
<glyph unicode="S" horiz-adv-x="1111" d="M477 -35q-120 0 -228.5 33t-165.5 73q-17 11 -17 31q0 22 24 129t46 165q5 14 21 14q13 0 81 -17q19 -5 23 -27q1 -7 5 -54.5t9 -107.5t8 -89q67 -2 104 1q103 4 196 31t133 76q38 44 38 124q0 47 -14.5 81t-58 67t-77 51.5t-116.5 59.5l-24 12q-67 32 -111 56.5 t-92.5 62t-77 77.5t-47 97t-18.5 125q0 174 145 278.5t366 104.5q73 0 218 -29l83 4q25 0 28 -25q32 -300 32 -327q0 -11 -12 -14q-68 -18 -87 -18q-17 0 -24 16q-99 217 -119 266q-20 1 -55 -1q-112 -4 -196.5 -37t-112.5 -76q-20 -35 -20 -99q0 -81 68.5 -133.5 t244.5 -130.5q65 -29 108.5 -52t93 -59.5t78.5 -75t48.5 -94t19.5 -121.5q0 -203 -150.5 -325.5t-397.5 -122.5z" />
<glyph unicode="T" horiz-adv-x="1397" d="M368 0q-16 0 -16 8q0 10 13 68q3 15 19 19q42 15 106 35q40 12 77 24v1134q-32 -7 -90.5 -15t-134 -16.5t-85.5 -9.5q-7 -8 -32.5 -55.5t-55.5 -104.5t-36 -68q-12 -22 -27 -22q-11 0 -70 15q-19 5 -19 25q0 26 27 157t48 186q5 13 23 13l108 -9h983q18 1 45 5q46 6 56 6 q25 0 30 -25q36 -315 36 -343q0 -12 -10 -15q-77 -18 -89 -18q-14 0 -21 16l-108 236q-191 17 -321 43v-1136q8 -2 59 -16.5t97 -27.5t55 -17q12 -4 12 -14q0 -6 -12 -64q-3 -14 -21 -14h-646z" />
<glyph unicode="U" horiz-adv-x="1523" d="M747 -35q-264 0 -399 133t-135 371v767q-44 13 -158 61q-11 6 -11 14q0 11 11 59q5 14 20 14h591q18 0 18 -8q0 -7 -16 -78q-3 -13 -18 -19q-20 -8 -102 -32q-57 -17 -75 -22v-689q0 -181 103.5 -296t276.5 -115q128 0 199 71q89 92 89 281v757q-22 6 -96 31.5t-87 31.5 q-12 7 -12 14q0 3 12 59q2 14 19 14h486q18 0 18 -8l-12 -63q-3 -13 -17 -19q-51 -24 -82 -37l-57 -25v-738q0 -251 -147 -390t-419 -139z" />
<glyph unicode="V" horiz-adv-x="1389" d="M610 -35q-19 0 -29 29l-474 1246l-120 43q-17 7 -17 19q0 6 13 67q4 15 22 15h562q18 0 18 -10q0 -9 -12 -66q-2 -11 -5 -14.5t-14 -6.5l-147 -48l370 -1037q38 162 169.5 569t151.5 471l-156 43q-19 6 -19 19q0 8 12 65q4 15 22 15h441q17 0 17 -11q0 -6 -13 -69 q-3 -13 -17 -19l-118 -45l-426 -1208q-9 -25 -24 -36.5t-47 -16.5q-146 -14 -160 -14z" />
<glyph unicode="W" horiz-adv-x="2106" d="M549 -35q-15 0 -22.5 6t-12.5 23l-380 1245l-124 43q-19 8 -19 20q0 11 13 67q4 15 22 15h547q18 0 18 -10q0 -7 -12 -66q-2 -10 -5 -13.5t-13 -7.5l-141 -48l285 -1014q34 113 89.5 278.5t121 353.5t76.5 220l-52 165q-11 1 -65 21.5t-60 24.5q-15 8 -15 18q0 9 11 63 q4 15 22 15h571q18 0 18 -10l-12 -66q-4 -18 -18 -21l-176 -49l312 -1013q11 70 154 562q55 187 138 455l-180 44q-15 2 -15 17q0 6 12 64q3 17 24 17h455q18 0 18 -9q0 -6 -14 -72q-5 -15 -16 -19l-117 -44l-391 -1198q-8 -25 -22 -36t-45 -17q-125 -24 -154 -24 q-25 0 -37 30l-282 882q-24 -116 -152 -474l-127 -357q-9 -26 -27 -38.5t-52 -19.5q-131 -23 -149 -23z" />
<glyph unicode="X" horiz-adv-x="1403" d="M37 0q-15 0 -15 9q0 4 12 71q3 14 17 19l131 47l383 527l-391 567l-128 39q-17 6 -17 19q0 8 13 71q4 15 22 15h565q18 0 18 -10q0 -1 -11 -61q-4 -17 -18 -22l-128 -53l276 -419q28 58 156 259l106 161l-138 55q-18 7 -18 19l10 57q4 14 28 14h454q15 0 15 -9 q0 -13 -15 -73q-3 -15 -16 -19l-131 -43l-376 -537l393 -561l128 -47q18 -7 18 -18q0 -5 -11 -62q-4 -15 -22 -15h-571q-17 0 -17 10q0 11 11 62q2 10 5 13.5t13 7.5l127 53l-275 414q-38 -76 -158 -255l-109 -160l139 -55q12 -6 15.5 -9t3.5 -11q0 -6 -12 -57 q-3 -13 -29 -13h-453z" />
<glyph unicode="Y" horiz-adv-x="1253" d="M332 0q-15 0 -15 8q0 1 1 5.5t4 20t6 37.5q3 15 19 19l157 57v411l-402 681l-115 43q-19 8 -19 19q0 10 13 68q4 15 22 15h533q18 0 18 -10q0 -3 -12 -62q-2 -11 -4.5 -14.5t-13.5 -6.5l-141 -54l318 -556q48 139 255 554l-161 58q-20 7 -20 20q0 8 11 59q3 12 32 12h439 q18 0 18 -10q0 -4 -14 -71q-5 -15 -16 -19l-119 -44l-366 -680v-413q18 -3 91.5 -27.5t96.5 -33.5q12 -4 12 -14q0 -11 -11 -58q-3 -14 -21 -14h-596z" />
<glyph unicode="Z" horiz-adv-x="1270" d="M138 0q-24 0 -33 24q-42 116 -42 122q0 14 9 24l829 1111q-146 -22 -358 -35q-135 -9 -229 -14l-93 -200q-11 -17 -22 -17q-4 0 -88 16q-12 3 -12 13q0 7 9 79.5t19 151.5t12 94q2 9 4 14t7.5 8t14.5 3l78 -5q42 -4 75 -5h816q11 0 15 -3t8 -14q31 -96 31 -98 q0 -12 -8 -23l-837 -1130q34 6 346 30q125 9 281 18q9 12 35 57t50 88t26 46q14 22 31 22q8 0 62 -10q19 -4 19 -26q0 -42 -24.5 -157t-45.5 -168q-9 -16 -25 -16h-960z" />
<glyph unicode="[" horiz-adv-x="644" d="M209 -316q-14 0 -23 10.5t-9 25.5v1707q0 45 47 45h374q12 0 12 -8q0 -1 -1 -5q-3 -16 -8 -45q-3 -15 -19 -19q-8 -4 -26 -9.5t-44 -14t-43 -14.5l-84 -26v-1505q15 -3 110.5 -33.5t110.5 -36.5q12 -4 12 -14q0 -8 -11 -44q-5 -14 -21 -14h-377z" />
<glyph unicode="\" horiz-adv-x="916" d="M672 -17q-17 0 -24 16l-571 1421q-4 8 -4 17q0 10 13 14q128 39 146 39q10 0 16 -14l573 -1423q5 -7 5 -17q0 -14 -16 -18q-121 -35 -138 -35z" />
<glyph unicode="]" horiz-adv-x="642" d="M46 -316q-14 0 -14 9q0 7 8 48q4 15 16 21q10 5 201 64v1505l-90 26q-83 23 -120 38q-15 6 -15 14q0 5 10 49q2 9 6 11.5t15 2.5h355q47 0 47 -45v-1707q0 -15 -9 -25.5t-23 -10.5h-387z" />
<glyph unicode="^" horiz-adv-x="881" d="M198 962q-8 0 -13 5q-34 20 -50 30t-20 14t-4 8q0 5 9 14l236 231q12 12 31 12h107q20 0 33 -13l235 -235q6 -6 6 -12q0 -7 -68 -48q-8 -5 -18 -5q-15 0 -242 138q-232 -139 -242 -139z" />
<glyph unicode="_" horiz-adv-x="1235" d="M148 -25q-15 0 -15 17q0 3 23 126q4 24 29 24h884q21 0 21 -18q0 -4 -19 -105q-7 -21 -30 -25q-107 -8 -429 -13.5t-464 -5.5z" />
<glyph unicode="a" horiz-adv-x="1035" d="M328 -25q-69 0 -122.5 24.5t-83.5 65t-45 85.5t-15 91q0 96 35.5 154t115.5 93q110 45 275 45q70 0 134 -8v54q0 217 -87 272q-37 24 -113 24q-30 0 -58 -7l-32 -176q-43 -40 -84 -40t-96.5 50t-55.5 95q0 26 35 52.5t80 46.5q82 36 195.5 57.5t173.5 21.5 q285 0 285 -301v-472q40 -72 160 -104q11 -3 11 -12q0 -4 -8 -39q-5 -13 -18 -19q-39 -19 -104.5 -36t-118.5 -17q-21 0 -29 12q-13 27 -35 61q-41 63 -74 84q-44 -63 -131 -110t-190 -47zM415 117q41 0 102.5 15t104.5 33v295q-126 -14 -204 -42.5t-98 -51.5 q-16 -21 -16 -71q0 -46 24 -97.5t56 -71.5q9 -9 31 -9z" />
<glyph unicode="b" horiz-adv-x="1135" d="M642 -25q-83 0 -144 30t-118 99q-229 -126 -259 -126q-7 0 -12 6q-34 43 -34 53q0 5 6 15q43 68 80 159v1061q-51 62 -137 83q-11 2 -11 10q0 10 6 33q3 11 16 15q208 59 352 59q16 0 16 -14v-629q181 146 327 146q88 0 154 -40.5t103 -109.5t55 -149t18 -169 q0 -236 -132 -390q-118 -142 -286 -142zM662 128q74 0 97 30q28 25 46 109.5t18 166.5q0 106 -29.5 198.5t-85.5 148.5q-26 31 -71 31q-37 0 -111.5 -14.5t-122.5 -31.5v-559q89 -79 259 -79z" />
<glyph unicode="c" horiz-adv-x="914" d="M525 -29q-216 0 -337.5 135.5t-121.5 346.5q0 164 71.5 285t187 180t258.5 59q110 0 185 -34q37 -17 63 -43t26 -53q0 -45 -55.5 -100t-94.5 -55q-40 0 -87 41l-33 160q-119 -12 -192 -95q-87 -106 -87 -268q0 -166 82 -283q82 -121 211 -121q53 0 152 25t100 25 q6 0 9 -5q11 -16 11 -22q0 -5 -8 -15q-45 -58 -139 -110.5t-201 -52.5z" />
<glyph unicode="d" horiz-adv-x="1160" d="M464 -25q-76 0 -144.5 26t-126 78.5t-91.5 144.5t-34 213q0 149 54.5 271.5t155 194.5t227.5 72q125 0 231 -86v383q-51 61 -139 83q-11 2 -11 10t6 33q3 11 16 15q208 59 352 59q16 0 16 -14v-1256q31 -72 159 -104q11 -3 11 -12q0 -4 -9 -43q-3 -9 -16 -15 q-30 -12 -106 -32.5t-122 -20.5q-19 0 -25 13q-10 24 -31 58q-37 60 -72 82q-49 -66 -131 -109.5t-170 -43.5zM534 131q109 0 200 40v534q-41 58 -111.5 91t-145.5 33q-89 0 -117 -48q-50 -81 -50 -246q0 -121 42.5 -218t103.5 -149q39 -37 78 -37z" />
<glyph unicode="e" horiz-adv-x="971" d="M511 -29q-70 0 -133.5 17t-121 54.5t-99.5 92.5t-66.5 137t-24.5 183q0 142 59 261t171.5 191t256.5 72q163 0 259 -94.5t96 -237.5q0 -75 -24 -137q-12 -35 -52 -35h-530q13 -138 92.5 -243t189.5 -105q49 0 112 13t108.5 26t52.5 13q5 0 10 -6q10 -17 10 -21 q0 -5 -8 -15q-52 -63 -153 -114.5t-205 -51.5zM300 555l395 40q-6 122 -74.5 189t-167.5 67q-64 0 -83 -23q-26 -31 -46.5 -101.5t-23.5 -171.5z" />
<glyph unicode="f" horiz-adv-x="772" d="M71 0q-16 0 -16 8t11 59q3 14 19 21q32 15 76 33l49 20v659l-149 57q-9 5 -9 11q0 7 13 68q3 14 21 14h124q0 273 102 397.5t330 124.5q129 0 204 -36q34 -16 58 -42t24 -52q0 -44 -55 -99t-96 -55q-34 0 -88 41l-34 174q-44 -9 -77.5 -30.5t-55 -55t-36 -71.5t-22 -89 t-10 -98.5t-2.5 -108.5h298q14 0 14 -8q0 -14 -9 -52q-4 -16 -16 -20q-20 -9 -119.5 -32.5t-167.5 -35.5v-671q10 -2 68.5 -14t110.5 -23.5t64 -16.5q12 -4 12 -14q0 -4 -8 -49q-3 -14 -21 -14h-607z" />
<glyph unicode="g" horiz-adv-x="1070" d="M428 -500q-95 0 -191 21.5t-149 59.5q-68 55 -68 143q0 123 187 238q-59 21 -93 63t-34 96q0 70 59 119.5t137 76.5q-170 79 -170 268q0 81 26 150t77.5 123.5t137.5 85.5t199 31q132 0 231 -61q63 31 136 48t124 17q15 0 19 -9q11 -20 11 -28q0 -7 -10 -16l-160 -149 q25 -54 25 -123q0 -172 -116.5 -276t-308.5 -104q-84 0 -153 19q-51 -86 -51 -115q0 -24 30 -37q28 -10 104.5 -12.5t308.5 -2.5q152 0 221 -50.5t69 -153.5q0 -82 -39 -157t-112 -134.5t-189 -95t-258 -35.5zM576 394q62 0 92 30q35 35 35 177q0 112 -60.5 185.5 t-175.5 73.5q-83 0 -102 -30q-36 -50 -36 -138q0 -119 68.5 -208.5t178.5 -89.5zM536 -355q174 0 232 45q18 15 35.5 55.5t17.5 90.5q0 23 -3 37.5t-12.5 29t-31 21t-56.5 6.5q-348 0 -442 15q-59 -118 -59 -177q0 -23 9 -35q27 -37 114 -62.5t196 -25.5z" />
<glyph unicode="h" horiz-adv-x="1236" d="M49 0q-16 0 -16 8q0 10 11 59q3 13 18 21q46 22 76 34q20 9 49 19v1131q-49 60 -137 83q-11 2 -11 10t6 33q3 11 16 15q227 59 352 59q16 0 16 -14v-658q199 174 376 174q49 0 92.5 -17.5t83 -56.5t63 -111.5t23.5 -170.5v-487q49 -12 145 -52q11 -6 11 -14q0 -5 -9 -51 q-3 -14 -21 -14h-462q-16 0 -16 8q0 7 12 59q3 12 18 23q5 5 45 28l34 20v412q0 164 -70 244q-14 14 -34 14q-46 0 -132.5 -16.5t-158.5 -37.5v-623q102 -35 137 -52q12 -7 12 -15q0 -6 -10 -50q-3 -14 -21 -14h-498z" />
<glyph unicode="i" horiz-adv-x="629" d="M364 1136q-19 -5 -71 15q-40 15 -75 38t-41 41q-9 22 18 80q14 37 36 70t39 39q21 7 73 -15q38 -14 73.5 -37.5t41.5 -40.5q11 -25 -16 -78q-44 -98 -78 -112zM65 0q-16 0 -16 8q0 3 10 56q3 14 18 21l76 31q43 16 50 19v629q-51 62 -137 83q-11 2 -11 9q0 9 6 34 q3 11 16 15q208 59 352 59q9 0 12.5 -3t3.5 -12v-818q65 -22 137 -52q12 -6 12 -14q0 -5 -9 -51q-5 -14 -21 -14h-499z" />
<glyph unicode="j" horiz-adv-x="566" d="M336 1136q-21 -6 -71 15q-41 15 -76 38t-41 41q-8 25 18 81q15 38 36.5 70t38.5 38q21 7 73 -15q40 -15 75 -38t41 -40q11 -24 -17 -78q-45 -99 -77 -112zM35 -500q-85 0 -163 38.5t-78 93.5q0 43 58 101t97 58q29 0 86 -40l43 -190q67 76 84.5 161t17.5 278v764 q-51 62 -136 83q-11 2 -11 9q0 11 6 34q3 11 16 15q208 59 352 59q16 0 16 -15v-921q0 -83 -8 -151.5t-33 -141t-66.5 -122t-113 -81.5t-167.5 -32z" />
<glyph unicode="k" horiz-adv-x="1205" d="M51 0q-16 0 -16 8q0 9 11 56q3 12 18 21q13 6 74 31l47 19v1137q-55 63 -137 83q-11 2 -11 10t6 33q3 11 16 15q227 59 352 59q16 0 16 -14v-1327q95 -32 141 -51q11 -8 11 -15q0 -3 -9 -51q-5 -14 -21 -14h-498zM805 0q-19 0 -19 11q0 9 9 50q-4 10 -17 32t-32 51.5 t-42.5 64.5t-48.5 71.5t-49.5 72t-47 67.5t-39 56t-27.5 38l-10 15q-8 11 -8 19q0 9 11 18l296 270l-100 38q-14 5 -14 18q0 7 7 43q4 15 22 15h414q13 0 13 -11q0 -9 -10 -53q-2 -13 -14 -17l-126 -39l-261 -229q77 -111 156 -220q171 -233 199 -255q25 -20 127 -51 q10 -3 10 -11q0 -6 -10 -50q-4 -14 -22 -14h-367z" />
<glyph unicode="l" horiz-adv-x="612" d="M51 0q-16 0 -16 8q0 9 11 56q3 12 18 21q13 6 74 31l47 19v1137q-55 63 -137 83q-11 2 -11 10t6 33q3 11 16 15q227 59 352 59q16 0 16 -14v-1327q95 -32 141 -51q12 -8 12 -15q0 -3 -10 -51q-3 -14 -21 -14h-498z" />
<glyph unicode="m" horiz-adv-x="1848" d="M67 0q-16 0 -16 8q0 1 12 59q3 12 18 21q20 11 75 33q4 2 48 20v611q-8 15 -20.5 28.5t-23.5 21.5t-27.5 16.5t-25 12t-25 9.5t-19.5 7q-10 3 -10 9l6 34q1 9 15 14q185 57 291 57q12 0 16 -9l47 -155q92 79 190.5 128.5t181.5 49.5q46 0 88.5 -14.5t84 -56t64.5 -106.5 q87 79 189 128t177 49q144 0 211 -101t67 -346v-397q113 -38 147 -52q11 -6 11 -14q0 -6 -9 -51q-5 -14 -21 -14h-464q-16 0 -16 8q0 6 12 59q4 14 18 23q8 7 46 29l34 19v341q0 259 -74 318q-13 12 -29 12q-37 0 -129 -15.5t-157 -39.5q15 -55 15 -276v-347q92 -33 136 -52 q10 -7 10 -15q0 -9 -9 -50q-3 -14 -21 -14h-451q-16 0 -16 8q0 4 11 59q3 12 17 21q18 12 46 29q22 14 35 21v363q0 236 -79 299q-10 9 -25 9q-39 0 -123.5 -16t-154.5 -39q6 -29 6 -67v-17.5t-0.5 -44.5t-0.5 -61.5v-76v-81.5v-275q65 -22 137 -52q11 -6 11 -15l-9 -50 q-3 -14 -21 -14h-497z" />
<glyph unicode="n" horiz-adv-x="1251" d="M68 0q-16 0 -16 8q0 4 12 59q3 12 18 21q52 25 75 34q18 8 48 19v611q-30 58 -135 93q-4 1 -6 2q-10 3 -10 9l6 34q1 9 15 14q8 4 57 17t119.5 26.5t115.5 13.5q11 0 15 -9l47 -159q95 83 195.5 131.5t185.5 48.5q41 0 77.5 -9.5t73 -34.5t63 -64t42.5 -102.5t16 -144.5 v-487q15 -3 73 -24t75 -28q11 -6 11 -14q0 -1 -0.5 -4t-3.5 -15.5t-6 -31.5q-3 -14 -21 -14h-463q-16 0 -16 8q0 7 12 59q4 14 18 23q10 9 45 29l34 19v412q0 97 -21.5 159t-51.5 87q-16 13 -35 13q-39 0 -134 -18.5t-157 -38.5l3 -18q3 -33 3 -36l1 -567q87 -30 136 -52 q12 -7 12 -15q0 -6 -9 -50q-5 -14 -21 -14h-498z" />
<glyph unicode="o" horiz-adv-x="1077" d="M548 -29q-103 0 -189 28.5t-152.5 85t-103.5 149t-37 212.5q0 139 59 260t169.5 197t247.5 76q98 0 182 -29t149 -86t102 -149.5t37 -211.5q0 -140 -61.5 -262t-169 -196t-233.5 -74zM602 112q87 0 127 45q23 26 34.5 95t11.5 129q0 210 -85.5 335.5t-218.5 125.5 q-77 0 -119 -42q-21 -25 -34.5 -93t-13.5 -137q0 -85 17.5 -164.5t52 -146.5t93.5 -107t135 -40z" />
<glyph unicode="p" horiz-adv-x="1151" d="M43 -475q-16 0 -16 8q0 4 11 59q3 14 18 21q37 17 75 33q9 4 27.5 11.5t21.5 8.5v1086q-32 61 -139 95q-11 3 -11 9q0 2 6 34q1 10 16 15q14 5 58.5 17t115.5 25.5t116 13.5q13 0 17 -10l49 -128q89 68 169 109.5t163 41.5q159 0 249 -125t90 -346q0 -136 -54.5 -258.5 t-147.5 -194.5q-97 -75 -210 -75q-168 0 -245 105v-424q29 -4 127 -25.5t118 -29.5q11 -6 11 -15q0 -8 -8 -47q-3 -14 -21 -14h-606zM682 128q71 0 94 29q25 25 44.5 99t19.5 161q0 238 -122 362q-29 34 -73 34q-38 0 -106.5 -15t-118.5 -33q2 -15 2 -70v-488 q89 -79 260 -79z" />
<glyph unicode="q" horiz-adv-x="1138" d="M505 -475q-16 0 -16 8q0 12 10 51q5 16 21 21q33 13 129 35q6 2 85 20v438q-52 -52 -124.5 -87.5t-157.5 -35.5q-74 0 -140 27t-122 81.5t-89 149t-33 217.5q0 113 38 217t110 181q54 60 127.5 93t153.5 33q175 0 282 -129q210 109 241 109q7 0 13 -7q30 -41 30 -50 q0 -1 -6 -15q-20 -29 -81 -152v-1068q27 -6 149 -55q10 -6 10 -15v-2.5t-1 -5t-2 -8.5l-3 -15t-4 -22q-3 -14 -21 -14h-599zM535 131q106 0 199 40v534q-37 52 -109 88t-147 36q-47 0 -74 -9.5t-44 -39.5q-50 -77 -50 -245q0 -238 141 -364q37 -40 84 -40z" />
<glyph unicode="r" horiz-adv-x="880" d="M66 0q-16 0 -16 8q0 4 11 59q3 12 18 21q32 15 76 33l49 20v611q-5 10 -12 19.5t-15.5 17t-15.5 13.5t-18 12t-17.5 9.5t-18.5 8l-16 6t-15 5.5t-12 4q-10 3 -10 9q0 10 6 34q3 9 14 14q7 4 55.5 17t119 26t115.5 13q11 0 15 -9l55 -177q60 108 120 153t132 45 q57 0 112 -35q70 -44 70 -94q0 -45 -55.5 -105t-97.5 -60q-44 0 -90 39l-19 100q-68 -25 -159 -102v-584q29 -4 130 -25.5t119 -29.5q12 -4 12 -14q0 -4 -9 -48q-5 -14 -21 -14h-612z" />
<glyph unicode="s" horiz-adv-x="889" d="M410 -29q-194 0 -335 88q-13 9 -13 24q0 27 15.5 105t27.5 108q7 15 19 15q13 0 79 -14q16 -4 20 -21l41 -188q77 0 166.5 18.5t138.5 50.5q32 21 32 64q0 59 -68 97q-37 20 -135.5 57t-142.5 62q-160 90 -160 253q0 74 34.5 131t93 90.5t128.5 50.5t147 17 q134 0 218 -44q32 -16 61.5 -43t29.5 -55q0 -48 -53 -101t-90 -53q-35 0 -81 41l-32 165q-59 -9 -124.5 -35t-102.5 -60q-28 -22 -28 -62q0 -64 92 -107q41 -21 154.5 -59.5t165.5 -70.5q51 -30 82.5 -82.5t31.5 -122.5q0 -83 -34.5 -146t-93.5 -100t-131 -55t-153 -18z" />
<glyph unicode="t" horiz-adv-x="764" d="M453 -25q-132 0 -207 83t-75 258v484l-152 56q-10 4 -10 14q0 8 13 66q2 14 19 14h130l30 199q3 13 18 21q176 72 180 72q14 0 14 -16v-276h299q13 0 13 -9q0 -8 -11 -61q-4 -13 -20 -18q-23 -9 -115.5 -31t-165.5 -31v-433q0 -79 20.5 -144.5t58.5 -90.5q17 -11 47 -11 q27 0 76 7.5t87.5 15.5t40.5 8q7 0 10 -7q11 -26 11 -29q0 -7 -8 -12q-55 -48 -139.5 -88.5t-163.5 -40.5z" />
<glyph unicode="u" horiz-adv-x="1209" d="M467 -25q-63 0 -114.5 17.5t-94 57t-66 111t-23.5 171.5v436q-44 62 -141 89q-11 3 -11 10t14 69q3 14 21 14h321q21 0 29.5 -9t8.5 -29v-518q0 -182 72 -244q21 -18 51 -18q55 0 126 11.5t117 29.5v610q-51 33 -147 72q-10 4 -10 13q0 8 12 68q3 14 19 14h326 q42 0 42 -38v-713q33 -69 159 -101q11 -3 11 -13q0 -2 -8 -42q-1 -10 -16 -15q-1 0 -15.5 -5.5t-29.5 -10.5t-38.5 -12t-45.5 -12.5t-47 -9t-45 -3.5t-25 9q-15 33 -33 63q-38 66 -77 89q-62 -68 -154.5 -114.5t-187.5 -46.5z" />
<glyph unicode="v" horiz-adv-x="1081" d="M472 -22q-21 0 -31 30l-325 814l-122 50q-18 7 -18 19q0 7 8 45q3 14 20 14h477q15 0 15 -9q0 -1 -10 -50q-3 -12 -19 -21l-93 -44l235 -614l215 612l-108 47q-17 8 -17 18q0 6 8 47q3 14 21 14h350q16 0 16 -10q0 -5 -9 -47q-4 -11 -16 -17l-101 -56l-311 -778 q-9 -22 -20.5 -31.5t-40.5 -16.5q-106 -16 -124 -16z" />
<glyph unicode="w" horiz-adv-x="1564" d="M1010 -23q-18 0 -24 16l-214 584l-175 -532q-8 -24 -20 -33t-39 -15q-120 -19 -128 -19q-26 0 -32 24l-250 819l-122 50q-19 9 -19 18q0 12 8 47q3 14 21 14h470q15 0 15 -8q0 -11 -11 -52q-4 -13 -17 -19l-97 -47l165 -620l221 726q6 20 24 20h69q17 0 25 -20l273 -726 l152 621l-136 44q-2 1 -5.5 2.5t-4.5 2t-3.5 2t-3.5 2t-2.5 2t-2 3l-1 3t-0.5 3.5q0 8 7 47q3 14 21 14h376q15 0 15 -9q0 -4 -9 -48q-3 -10 -15 -17l-104 -55l-222 -750q-11 -39 -23 -53.5t-34 -18.5q-128 -22 -148 -22z" />
<glyph unicode="x" horiz-adv-x="1182" d="M50 0q-18 0 -18 8q0 12 11 57q3 12 19 18l115 43l282 335l-289 373l-122 37q-13 4 -13 17q0 8 8 48q3 14 21 14h495q17 0 17 -9t-11 -54q-5 -13 -15 -17l-85 -36l181 -254l191 253l-104 40q-12 5 -12 15q0 9 9 48q3 14 21 14h374q15 0 15 -8q0 -3 -11 -60q-4 -13 -19 -19 l-104 -35l-287 -345l294 -364l128 -39q15 -5 15 -17t-8 -49q-4 -14 -21 -14h-507q-15 0 -15 8q0 6 10 56q3 12 14 17l92 36l-188 247l-188 -249l100 -37q12 -4 12 -15q0 -13 -8 -49q-5 -14 -21 -14h-378z" />
<glyph unicode="y" horiz-adv-x="1101" d="M255 -500q-87 0 -167 39t-80 98q0 42 56.5 100.5t97.5 58.5q19 0 46.5 -13t43.5 -29l35 -173q33 19 107 139.5t135 253.5l-37 -3q-28 0 -39 27l-343 823l-125 51q-15 6 -15 17q0 5 8 47q4 14 21 14h485q16 0 16 -9q0 -5 -10 -51q-2 -12 -19 -19l-100 -45l239 -622 l205 620l-111 48q-14 8 -14 18q0 7 8 45q4 15 19 15h372q16 0 16 -9q0 -6 -9 -48q-4 -14 -16 -19l-101 -51l-246 -661q-115 -310 -199 -458.5t-185 -187.5q-38 -16 -94 -16z" />
<glyph unicode="z" horiz-adv-x="960" d="M120 0q-23 0 -32 17q-33 71 -33 81q0 11 14 28l571 725l-362 -23q-49 -121 -65 -151q-6 -11 -20 -13q-46 -5 -75 -5q-15 0 -18 17q-4 31 -4 115q0 99 6 134q3 20 36 20h690q19 0 24 -14q36 -89 36 -102q0 -8 -7 -20l-548 -714l363 29q7 20 31 81t33 80q8 12 24 15 q49 4 66 4t21 -20q4 -31 4 -112q0 -101 -6 -151q-3 -21 -34 -21h-715z" />
<glyph unicode="{" horiz-adv-x="673" d="M627 -341q-115 0 -188.5 7.5t-118 20t-66 39.5t-27.5 55.5t-6 78.5v530q0 43 -45 86t-92 69q-21 12 -21 33q0 20 21 32q137 76 137 147v539q0 50 6 78.5t27.5 55.5t66 39.5t118.5 20t189 7.5q16 0 16 -9q0 -1 -0.5 -4.5t-3 -15.5t-5.5 -29q-3 -13 -15 -18l-113 -54 l-88 -40v-530q0 -49 -17 -89t-39 -62.5t-50 -39t-43.5 -21.5t-24.5 -7q174 -54 174 -218v-529l88 -41q18 -9 44.5 -21.5t44 -21t24.5 -12.5q12 -5 15 -18q2 -9 3 -17t2 -13t2 -8.5t1 -5.5t0.5 -3t0.5 -1.5v-1.5q0 -8 -17 -8z" />
<glyph unicode="|" horiz-adv-x="526" d="M184 -396q-12 0 -12 12v1868q0 18 13 22q145 45 157 45q13 0 13 -18v-1858q0 -23 -14 -27q-151 -44 -157 -44z" />
<glyph unicode="}" horiz-adv-x="673" d="M45 -341q-15 0 -15 9q0 1 1 6q3 17 8 43q3 11 15 20q106 50 113 53q10 5 88 41v529q0 164 174 218q-9 2 -24.5 7t-43.5 21.5t-50 39t-39 62.5t-17 89v530l-88 40q-77 34 -114 54q-8 4 -10 6.5t-4 11.5q-9 43 -9 50q0 8 15 8q115 0 188.5 -7.5t118.5 -20t66.5 -39.5 t27.5 -55.5t6 -78.5v-539q0 -41 47.5 -83.5t89.5 -63.5q21 -12 21 -32q0 -21 -21 -33q-27 -16 -54.5 -37t-55 -55.5t-27.5 -62.5v-530q0 -50 -6 -78.5t-27.5 -55.5t-66.5 -39.5t-118.5 -20t-188.5 -7.5z" />
<glyph unicode="~" horiz-adv-x="924" d="M582 422q-40 0 -81 20t-68.5 43.5t-56 43.5t-45.5 20q-31 0 -88.5 -27t-90.5 -58q-7 -7 -13 -7q-9 0 -10 12q-16 98 -16 102q0 13 7 20q30 31 48.5 48.5t49.5 41.5t61 35t62 11q40 0 81.5 -20t69.5 -43.5t56.5 -43.5t45.5 -20q27 0 84.5 27.5t92.5 56.5q6 6 13 6 q10 0 12 -14q4 -23 6.5 -42t4 -27.5t2.5 -15t1.5 -8.5t0.5 -4q0 -14 -7 -21q-35 -39 -63.5 -64t-72.5 -48.5t-86 -23.5z" />
<glyph unicode="&#xa2;" horiz-adv-x="1008" d="M437 -187q-12 0 -12 13q0 12 13 161q-168 32 -265.5 156.5t-97.5 306.5q0 211 123 348t318 168q8 123 10 128q1 16 14 18q61 22 111 18q12 -2 12 -17q0 -9 -12 -139q96 -3 168 -38q32 -16 55.5 -41t23.5 -49q0 -44 -53 -96.5t-90 -52.5q-35 0 -73 40l-36 154h-3 q-26 -263 -30 -343q0 -4 -4.5 -65.5t-12 -168t-13.5 -187.5q10 -2 42 -2q78 0 260 54h11q17 -15 17 -25q0 -5 -8 -15q-51 -64 -141 -111t-192 -51l-8 -119q-2 -18 -18 -22q-76 -23 -109 -23zM455 183q17 224 27 316q3 29 12.5 163.5t14.5 205.5q-62 -21 -111 -71 q-88 -94 -88 -275q0 -98 35.5 -189.5t104.5 -144.5z" />
<glyph unicode="&#xa3;" horiz-adv-x="1201" d="M99 0q-18 0 -18 9t11 62q3 13 19 19q8 3 38 13.5t46 16.5q34 12 51 17l53 367l-157 47q-12 5 -12 14q0 11 13 71q4 19 24 19h154l22 152q25 179 135.5 278t315.5 99q26 0 50.5 -2t45.5 -6t34 -7.5t29.5 -8t19.5 -5.5l72 4q30 0 31 -25l24 -263q0 -13 -11 -15 q-73 -17 -88 -17q-12 0 -19 15l-95 199q-26 8 -74 8q-61 0 -112.5 -16.5t-69.5 -38.5q-30 -39 -62 -256l-14 -95h372q16 0 16 -14q0 -13 -10 -57q-2 -14 -21 -18q-11 -2 -90 -19t-162.5 -33t-127.5 -21l-57 -393q53 9 145.5 17.5t156 13t72.5 4.5q12 12 28 34t27.5 39.5 t27.5 43.5t20 33q13 19 27 19q7 0 64 -11q17 -6 17 -23q0 -33 -18.5 -116.5t-42.5 -138.5q-7 -15 -29 -15h-871z" />
<glyph unicode="&#xa7;" horiz-adv-x="1018" d="M638 494q-18 0 -18 12q0 19 13 77q5 13 8 17q59 49 59 116q0 26 -8.5 48.5t-30 42.5t-42.5 35t-61.5 33.5t-71 31t-85.5 33.5q-149 54 -226.5 126t-77.5 183q0 145 124.5 236.5t305.5 91.5q88 0 178.5 -26t150.5 -67.5t60 -84.5q0 -49 -52 -105t-88 -56q-19 0 -42 13 t-38 28l-29 171q-237 0 -310 -79q-20 -25 -20 -70q0 -27 16 -49.5t60 -47.5t69.5 -36.5t95.5 -40.5q17 -7 26 -11q176 -75 246.5 -150t70.5 -193q0 -77 -48 -143.5t-112.5 -101t-122.5 -34.5zM491 -185q-88 0 -179 26t-150.5 67.5t-59.5 84.5q0 49 51 105t88 56 q19 0 42.5 -13t37.5 -27l29 -172q238 0 310 80q21 24 21 69q0 35 -37.5 67.5t-74.5 50.5t-122 53q-22 9 -33 14q-176 75 -246.5 150.5t-70.5 192.5q0 77 48 143.5t112.5 101t122.5 34.5q18 0 18 -12q0 -19 -13 -76q-4 -14 -8 -17q-60 -53 -60 -116q0 -32 15 -59t37 -47 t65 -42t80.5 -37t102.5 -39q150 -56 227 -128t77 -182q0 -145 -124.5 -236.5t-305.5 -91.5z" />
<glyph unicode="&#xa9;" horiz-adv-x="1369" d="M657 -35q-258 0 -409 156t-151 426q0 186 72.5 328t214.5 223.5t335 81.5q113 0 211.5 -36.5t175.5 -106.5t121.5 -184t44.5 -259q0 -280 -165.5 -454.5t-449.5 -174.5zM707 107q166 0 283 126t117 307q0 228 -115 363t-323 135q-171 0 -288 -125t-119 -308 q0 -229 116.5 -363.5t328.5 -134.5zM683 232q-135 0 -218.5 90.5t-83.5 232.5q0 157 87 256.5t242 99.5q42 0 112 -14q37 7 50 7q15 0 17 -15q5 -49 11.5 -102t6.5 -55q3 -24 3 -34q0 -6 -6 -8q-14 -4 -26 -7t-17.5 -4.5t-9.5 -2.5l-6 -1.5t-4 -0.5q-8 0 -13 11l-39 86 q-45 17 -105 17q-69 0 -98 -31q-41 -38 -41 -165q0 -98 49 -163q48 -66 122 -66q11 0 32 4.5t45.5 12t45 13.5t40.5 13t21 7q11 3 14 3q5 0 8 -5.5t20 -41.5q2 -6 2 -9q0 -4 -4 -8q-114 -120 -257 -120z" />
<glyph unicode="&#xab;" horiz-adv-x="732" d="M116 879q-8 1 -48 15q-8 4 -7 14q1 3 15.5 34.5t39.5 93t50 133.5q-41 27 -72 60t-31 52q0 36 58 94t94 58q32 0 89.5 -61t57.5 -88q0 -41 -30 -122q-64 -156 -198 -278q-8 -8 -18 -5zM476 879q-8 1 -48 15q-8 4 -7 14q1 3 15.5 34.5t39.5 93t50 133.5q-41 27 -72 60 t-31 52q0 36 58 94t94 58q32 0 89.5 -61t57.5 -88q0 -41 -30 -122q-64 -156 -198 -278q-8 -8 -18 -5z" />
<glyph unicode="&#xae;" horiz-adv-x="1196" d="M583 541q-102 0 -194 38.5t-159 106t-106 163.5t-39 206q0 234 146.5 386.5t386.5 152.5q97 0 186 -37.5t157 -103.5t109 -164.5t41 -212.5q0 -234 -145.5 -384.5t-382.5 -150.5zM635 659q141 0 238.5 112t97.5 267q0 197 -112 318.5t-295 121.5q-96 0 -176 -54.5 t-123.5 -141.5t-43.5 -184q0 -191 113 -315t301 -124zM367 808q-9 0 -9 7v2t1 4t1.5 7.5t2.5 13.5t4 21q4 11 10 14q22 10 29 12l18 8v372q-54 17 -64 23q-6 3 -6 11q0 7 10 46q1 10 13 10h149q143 0 211 -30q38 -16 62.5 -48t24.5 -73q0 -54 -24.5 -87t-86.5 -59 q11 -18 31.5 -57.5t36 -69.5t20.5 -35q11 -14 64 -40q7 -4 7 -9t-8 -34q-3 -9 -11 -9h-162q-11 0 -11 9q0 7 6 32q-4 8 -20.5 44t-40.5 88t-34 74q-4 5 -4 16q0 7 14 13q88 34 88 107q0 78 -142 97v-398l28 -9q32 -11 34 -12q7 -4 7 -9t-11 -40q-3 -12 -15 -12h-223z" />
<glyph unicode="&#xb6;" horiz-adv-x="1485" d="M577 -55q-17 0 -17 24q-1 68 1 213q0 106 11 434q-239 4 -366 113q-120 105 -120 268q0 191 123 288q44 34 98 55.5t118.5 30t110.5 11t116 2.5h740q11 0 14 -1.5t3 -6.5q0 -7 -12 -63q-3 -13 -18 -19l-96 -35q-38 -13 -67 -24v-1209q0 -19 -17 -25q-184 -56 -208 -56 q-17 0 -17 23q0 27 3 621.5t3 635.5h-184q0 -43 3 -617.5t3 -584.5q0 -17 -14 -22q-29 -8 -60 -17t-47.5 -14t-34.5 -10l-27 -7.5t-18 -4.5t-14 -2.5t-10 -0.5z" />
<glyph unicode="&#xb7;" horiz-adv-x="548" d="M326 389q-23 -7 -80 16q-44 16 -81.5 41.5t-45.5 45.5q-9 24 19 89q17 44 39.5 78t42.5 42q26 8 81 -17q44 -17 82 -41.5t46 -43.5q7 -28 -20 -88q-17 -42 -40.5 -78.5t-42.5 -43.5z" />
<glyph unicode="&#xbb;" horiz-adv-x="732" d="M116 879q-8 1 -48 15q-8 4 -7 14q1 3 15.5 34.5t39.5 93t50 133.5q-41 27 -72 60t-31 52q0 36 58 94t94 58q32 0 89.5 -61t57.5 -88q0 -41 -30 -122q-64 -156 -198 -278q-8 -8 -18 -5zM476 879q-8 1 -48 15q-8 4 -7 14q1 3 15.5 34.5t39.5 93t50 133.5q-41 27 -72 60 t-31 52q0 36 58 94t94 58q32 0 89.5 -61t57.5 -88q0 -41 -30 -122q-64 -156 -198 -278q-8 -8 -18 -5z" />
<glyph unicode="&#xbc;" horiz-adv-x="1390" d="M103 783q-13 0 -13 9q0 12 10 56q1 7 13 11q6 2 61 13l47 9v460h-128q-9 0 -9 7q0 8 10 56q2 9 12 10q15 4 154 29t153 25q9 0 9 -8v-576q74 -13 102 -22q8 -5 8 -9q0 -9 -12 -61q-3 -9 -14 -9h-403zM409 201q-18 0 -135 36q-8 3 -8 11t418 564q168 223 276 367 q10 13 21 13q6 0 140 -40q9 -4 9 -11q0 -5 -22 -35t-139 -183q-269 -352 -542 -711q-8 -11 -18 -11zM1051 -70q-10 0 -10 11v218h-298q-9 0 -12 8q-17 40 -17 51q0 6 3 11l277 441q4 9 13 9q1 0 5 -0.5t7 -0.5l158 -25q11 -2 11 -10q0 -7 -7 -15l-274 -373q96 8 146 8v70 q0 13 9 15q139 26 149 26q13 0 13 -17v-84q23 0 33 1h25l14 1q11 0 11 -11q0 -17 -8 -91q-5 -14 -16 -14h-56v-188q0 -11 -9 -15q-156 -26 -167 -26z" />
<glyph unicode="&#xbd;" horiz-adv-x="1475" d="M94 783q-13 0 -13 9q0 12 10 56q1 7 13 11q6 2 61 13l47 9v460h-128q-9 0 -9 7q0 8 10 56q2 9 12 10q15 4 154 29t153 25q9 0 9 -8v-576q74 -13 102 -22q8 -5 8 -9q0 -9 -12 -61q-3 -9 -14 -9h-403zM400 201q-18 0 -135 36q-8 3 -8 11t418 564q168 223 276 367 q10 13 21 13q6 0 140 -40q9 -4 9 -11q0 -5 -22 -35t-139 -183q-269 -352 -542 -711q-8 -11 -18 -11zM871 -23q-15 0 -19 13q-14 36 -14 43q0 2 3 11q11 11 59.5 66t102 116.5t66.5 75.5q77 90 77 153q0 33 -25 55t-78 22q-50 0 -130 -22q-9 -3 -13 -3q-5 0 -8 7 q-32 72 -32 81q0 8 5 10q50 29 115.5 43t117.5 14q119 0 186 -51t67 -139q0 -45 -24.5 -96t-73.5 -107.5t-88.5 -95.5t-102.5 -97q46 11 163 19l130 11q19 0 24 -21q21 -78 21 -92q0 -16 -23 -16h-506z" />
<glyph unicode="&#xbe;" horiz-adv-x="1440" d="M135 734q-14 0 -18 9q-17 51 -17 63q0 9 10 10q45 7 85 18t87 31t75 52.5t28 72.5q0 36 -17.5 61.5t-46.5 38t-56.5 17.5t-57.5 5q-14 0 -14 9q0 6 8 41q5 14 11 19q40 40 106.5 103t81.5 74q-216 -22 -270 -22q-16 0 -17 9q-25 91 -25 103q0 8 10 8h461q16 0 20 -11 q15 -43 15 -48t-3 -10q-17 -20 -96 -110t-91 -102q78 -10 127.5 -62t49.5 -127q0 -69 -42 -121t-110.5 -79t-142 -39.5t-151.5 -12.5zM430 201q-18 0 -135 36q-8 3 -8 11t418 564q168 223 276 367q10 13 21 13q6 0 140 -40q9 -4 9 -11q0 -5 -22 -35t-139 -183 q-269 -352 -542 -711q-8 -11 -18 -11zM1100 -70q-10 0 -10 11v218h-298q-9 0 -12 8q-17 40 -17 51q0 6 3 11l277 441q5 9 13 9q1 0 5 -0.5t7 -0.5l158 -25q11 -2 11 -10q0 -7 -7 -15l-274 -373q96 8 146 8v70q0 13 9 15q139 26 149 26q13 0 13 -17v-84q23 0 33 1h24l15 1 q11 0 11 -11q0 -17 -8 -91q-5 -14 -16 -14h-56v-188q0 -11 -9 -15q-156 -26 -167 -26z" />
<glyph unicode="&#xd7;" horiz-adv-x="1024" d="M297 257q-14 0 -63 46q-30 28 -37 36.5t-7 17.5q0 15 17 30l190 183q-166 157 -207 198q-10 10 -10 23t49 62q43 41 57 41q11 0 24 -13l203 -195l206 194q10 10 22 10q10 0 52 -36q42 -39 45 -47q2 -4 2 -9q0 -12 -11 -24q-34 -42 -201 -203l197 -189q11 -11 11 -21 q0 -12 -37 -52q-28 -29 -38.5 -37.5t-18.5 -8.5q-16 0 -34 15q-32 26 -195 178q-47 -47 -118 -115.5t-76 -73.5q-11 -10 -22 -10z" />
<glyph unicode="&#xf7;" horiz-adv-x="1024" d="M556 775q-19 -5 -63 13q-34 13 -63.5 32.5t-35.5 35.5q-7 20 15 69q30 82 64 94q18 5 63 -13q35 -13 64.5 -31.5t35.5 -34.5q6 -21 -16 -69q-33 -83 -64 -96zM159 481q-20 0 -20 22q0 3 0.5 10.5t3.5 37.5t6 72q3 31 37 31h677q28 0 28 -24q0 -5 -11 -97q-6 -29 -37 -33 q-75 -8 -312.5 -13.5t-371.5 -5.5zM555 122q-17 -5 -62 13q-34 13 -63.5 32.5t-35.5 35.5q-7 20 15 69q31 82 64 94q16 5 63 -14q35 -13 64.5 -31.5t35.5 -34.5q6 -21 -16 -69q-34 -83 -65 -95z" />
<glyph unicode="&#x192;" horiz-adv-x="1068" d="M-14 -500q-14 0 -17 13q-32 122 -32 134q0 14 14 25q94 75 141 117.5t58.5 60t16.5 39.5l172 906h-162q-10 0 -10 10q0 5 20 74q3 12 21 18l152 53q16 109 54 201t96.5 163t143.5 111t187 40q43 0 106.5 -7t90.5 -18q13 -5 17 -14t4 -29q0 -122 -55 -261q-3 -8 -9 -8 q-19 0 -60 10q-9 2 -9 11q-2 12 -12 71.5t-15 78.5q-75 28 -136 28q-33 0 -62 -9q-15 -17 -30.5 -54.5t-30 -89t-23.5 -88.5t-20 -86t-11 -50h284q12 0 12 -7q0 -5 -18 -61q-2 -8 -5 -11t-13 -7q-75 -30 -291 -65l-117 -732q-11 -69 -32 -130.5t-45.5 -108t-60 -91t-66 -74 t-75 -62t-74.5 -51.5t-75 -46q-11 -4 -24 -4z" />
<glyph unicode="&#x2e4;" horiz-adv-x="1030" d="M265 1242q-11 0 -11 10q0 7 22 95q3 11 6 13.5t12 2.5h442q16 0 16 -13q0 -15 -19 -81q-3 -11 -17 -13q-224 -14 -451 -14zM70 0q-21 0 -21 17q0 16 20 123q5 25 30 26q191 18 356 18q39 0 120 1t116 1q-40 42 -67.5 105.5t-27.5 119.5v292q0 182 -139 182h-198l-171 30 q-19 4 -18 20q3 48 60 230q4 10 14 13q27 6 32 6t8 -8q21 -62 71 -112h236q198 0 276.5 -80t78.5 -262v-147q0 -43 0.5 -123t0.5 -102q0 -48 10.5 -93t26.5 -67h121q15 0 15 -13q0 -26 -27 -157q-5 -20 -25 -20h-898z" />
<glyph unicode="&#x2e5;" horiz-adv-x="953" d="M251 1242q-11 0 -11 10q0 7 22 95q3 11 6 13.5t12 2.5h442q16 0 16 -13q0 -15 -19 -81q-3 -11 -17 -13q-224 -14 -451 -14zM85 0q-24 0 -24 20q0 29 22 123q5 23 29 24q8 1 124 7t150 9q114 4 164 73t50 198v271q0 160 -122 160h-222l-171 30q-12 2 -16 6.5t-4 13.5 q0 45 59 229q4 10 14 13q23 7 33 7q8 0 9 -7q31 -73 70 -113h282q157 0 238 -75t81 -246v-295q0 -198 -102.5 -323t-284.5 -125h-379z" />
<glyph unicode="&#x2e6;" horiz-adv-x="1108" d="M360 1242q-11 0 -11 10q0 7 22 95q3 11 6 13.5t12 2.5h442q16 0 16 -13q0 -15 -19 -81q-3 -11 -17 -13q-224 -14 -451 -14zM122 0q-11 0 -17.5 6t-5.5 15l20 123q5 24 30 24q77 0 226 8l181 7q102 2 157.5 74t55.5 197v271q0 160 -122 160h-291q-19 -116 -23 -243h147 l43 -33q11 -8 5 -25l-52 -152q-5 -14 -20 -9l-210 38l-102 -38q-8 -4 -16 1l-20 24q-4 4 -2 17q5 42 24 143q6 29 45 114.5t83 164.5l-129 28q-18 4 -18 20q0 52 59 229q4 12 13 13q29 7 33 7q6 0 9 -8q20 -59 71 -112h405q311 0 311 -321v-295q2 -197 -102.5 -322.5 t-290.5 -125.5h-497z" />
<glyph unicode="&#x5b0;" d="M580 -320q-21 0 -57 37t-36 56q0 20 37.5 56.5t55.5 36.5q20 0 56.5 -38t36.5 -55q0 -20 -38 -56.5t-55 -36.5zM580 -587q-21 0 -57 37t-36 56q0 20 37.5 56.5t55.5 36.5q20 0 56.5 -38t36.5 -55q0 -20 -38 -56.5t-55 -36.5z" />
<glyph unicode="&#x5b1;" d="M311 -320q-21 0 -57 37t-36 56q0 20 37.5 56.5t55.5 36.5q20 0 56.5 -38t36.5 -55q0 -20 -38 -56.5t-55 -36.5zM602 -320q-21 0 -57 37t-36 56q0 20 37.5 56.5t55.5 36.5q20 0 56.5 -38t36.5 -55q0 -20 -38 -56.5t-55 -36.5zM849 -320q-21 0 -57 37t-36 56 q0 20 37.5 56.5t55.5 36.5q20 0 56.5 -38t36.5 -55q0 -20 -38 -56.5t-55 -36.5zM455 -535q-21 0 -57 37.5t-36 56.5q0 20 37.5 56.5t55.5 36.5q20 0 56.5 -38.5t36.5 -55.5q0 -20 -38 -56.5t-55 -36.5zM849 -587q-21 0 -57 37t-36 56q0 20 37.5 56.5t55.5 36.5 q20 0 56.5 -38t36.5 -55q0 -20 -38 -56.5t-55 -36.5z" />
<glyph unicode="&#x5b2;" d="M822 -320q-21 0 -57 37t-36 56q0 20 37.5 56.5t55.5 36.5q20 0 56.5 -38t36.5 -55q0 -20 -38 -56.5t-55 -36.5zM269 -279q-14 0 -20.5 6.5t-4.5 16.5l19 70q4 16 11 20.5t22 4.5h324q36 0 26 -31l-14 -50q-4 -13 -10 -17.5t-20 -5.5l-156 -7q-140 -7 -177 -7zM822 -587 q-21 0 -57 37t-36 56q0 20 37.5 56.5t55.5 36.5q20 0 56.5 -38t36.5 -55q0 -20 -38 -56.5t-55 -36.5z" />
<glyph unicode="&#x5b3;" d="M841 -320q-21 0 -57 37t-36 56q0 20 37 56.5t56 36.5q20 0 56.5 -38t36.5 -55q0 -20 -38 -56.5t-55 -36.5zM452 -542q-15 0 -48.5 26.5t-33.5 39.5q0 16 37 204q-81 -4 -164 -4q-17 0 -17 10q0 7 22 89q4 16 22 16h394q14 0 14 -8q0 -10 -20 -82q-3 -9 -16 -11l-150 -8 l19 -95q20 -96 20 -107q0 -17 -31.5 -43.5t-47.5 -26.5zM841 -587q-21 0 -57 37t-36 56q0 20 37 56.5t56 36.5q20 0 56.5 -38t36.5 -55q0 -20 -38 -56.5t-55 -36.5z" />
<glyph unicode="&#x5b4;" d="M580 -320q-21 0 -57 37t-36 56q0 20 37.5 56.5t55.5 36.5q20 0 56.5 -38t36.5 -55q0 -20 -38 -56.5t-55 -36.5z" />
<glyph unicode="&#x5b5;" d="M434 -320q-21 0 -57 37t-36 56q0 20 37.5 56.5t55.5 36.5q20 0 56.5 -38t36.5 -55q0 -20 -38 -56.5t-55 -36.5zM725 -320q-21 0 -57 37t-36 56q0 20 37.5 56.5t55.5 36.5q20 0 56.5 -38t36.5 -55q0 -20 -38 -56.5t-55 -36.5z" />
<glyph unicode="&#x5b6;" d="M434 -320q-21 0 -57 37t-36 56q0 20 37.5 56.5t55.5 36.5q20 0 56.5 -38t36.5 -55q0 -20 -38 -56.5t-55 -36.5zM725 -320q-21 0 -57 37t-36 56q0 20 37.5 56.5t55.5 36.5q20 0 56.5 -38t36.5 -55q0 -20 -38 -56.5t-55 -36.5zM578 -535q-21 0 -57 37.5t-36 56.5 q0 20 37.5 56.5t55.5 36.5q20 0 56.5 -38.5t36.5 -55.5q0 -20 -38 -56.5t-55 -36.5z" />
<glyph unicode="&#x5b7;" d="M388 -279q-14 0 -20.5 6.5t-3.5 16.5l18 70q5 16 11.5 20.5t21.5 4.5h351q37 0 27 -31l-14 -50q-4 -13 -10 -17.5t-20 -5.5l-170 -7q-154 -7 -191 -7z" />
<glyph unicode="&#x5b8;" d="M580 -542q-15 0 -48.5 26.5t-33.5 39.5q0 5 6.5 40.5t16.5 86t14 77.5q-80 -4 -164 -4q-17 0 -17 10q0 16 22 89q4 16 22 16h394q14 0 14 -8q0 -13 -19 -82q-3 -9 -16 -11l-151 -8l20 -95q20 -87 20 -107q0 -17 -32 -43.5t-48 -26.5z" />
<glyph unicode="&#x5b9;" d="M315 1212q-21 0 -57 37t-36 56q0 20 37.5 56.5t55.5 36.5q20 0 56.5 -38t36.5 -56q0 -20 -38 -56t-55 -36z" />
<glyph unicode="&#x5ba;" d="M325 1212q-21 0 -57 37t-36 56q0 20 37.5 56.5t55.5 36.5q20 0 56.5 -38t36.5 -56q0 -20 -38 -56t-55 -36z" />
<glyph unicode="&#x5bb;" d="M580 -320q-21 0 -57 37t-36 56q0 20 37.5 56.5t55.5 36.5q20 0 56.5 -38t36.5 -55q0 -20 -38 -56.5t-55 -36.5zM758 -493q-21 0 -57 37.5t-36 56.5q0 20 37.5 56.5t55.5 36.5q20 0 56.5 -38t36.5 -56q0 -20 -38 -56.5t-55 -36.5zM933 -665q-21 0 -57 37t-36 56 q0 20 37.5 56.5t55.5 36.5q21 0 57 -38t36 -56q0 -20 -38 -56t-55 -36z" />
<glyph unicode="&#x5bc;" d="M380 462q-21 0 -57 37.5t-36 56.5q0 20 37.5 56.5t55.5 36.5q20 0 56.5 -38t36.5 -56q0 -20 -38 -56.5t-55 -36.5z" />
<glyph unicode="&#x5bd;" d="M394 -574q-18 3 -82 22q-16 5 -16 22v373q0 16 16 16q11 0 61 -19q17 -8 17 -19q14 -185 14 -380q0 -8 -2.5 -12t-7.5 -3z" />
<glyph unicode="&#x5be;" horiz-adv-x="605" d="M45 886q-19 0 -19 16q0 25 24 140q4 22 28 22h461q20 0 20 -18q0 -11 -21 -113q-4 -22 -29 -23q-306 -24 -464 -24z" />
<glyph unicode="&#x5bf;" d="M243 1272q-11 0 -11 10q0 12 22 95q3 11 6 13.5t12 2.5h442q16 0 16 -13q0 -10 -19 -81q-3 -11 -17 -13q-224 -14 -451 -14z" />
<glyph unicode="&#x5c0;" horiz-adv-x="498" d="M193 -395q-13 0 -13 10v1870q0 15 15 20q101 45 104 45q10 0 10 -16v-1860q0 -19 -12 -26q-100 -43 -104 -43z" />
<glyph unicode="&#x5c1;" d="M1290 1212q-21 0 -57 37t-36 56q0 20 37.5 56.5t55.5 36.5q20 0 56.5 -38t36.5 -56q0 -20 -38 -56t-55 -36z" />
<glyph unicode="&#x5c2;" d="M310 1212q-21 0 -57 37t-36 56q0 20 37.5 56.5t55.5 36.5q20 0 56.5 -38t36.5 -56q0 -20 -38 -56t-55 -36z" />
<glyph unicode="&#x5c3;" horiz-adv-x="606" d="M254 799q-93 149 -225 225v23q121 82 225 223h22q106 -132 226 -223v-23q-125 -79 -226 -225h-22zM254 0q-90 151 -225 229v21q125 85 225 223h22q78 -105 226 -223v-21q-130 -88 -226 -229h-22z" />
<glyph unicode="&#x5c7;" d="M580 -542q-15 0 -48.5 26.5t-33.5 39.5q0 5 6.5 40.5t16.5 86t14 77.5q-80 -4 -114 -4q-17 0 -17 10q0 7 22 89q4 16 22 16h294q14 0 14 -8q0 -13 -19 -82q-3 -9 -16 -11l-101 -8l20 -95q20 -96 20 -107q0 -17 -32 -43.5t-48 -26.5z" />
<glyph unicode="&#x5d0;" horiz-adv-x="1216" d="M954 -31q-4 -4 -10 -3.5t-10 5.5q-160 231 -284.5 387t-285.5 323q-66 -163 -51 -394q6 -75 12 -106q106 -14 136 -24q15 -5 15 -19q0 -10 -7 -53.5t-14 -68.5q-5 -16 -25 -16h-296q-17 0 -20 16q-16 76 -18 169q-2 166 52.5 315t126.5 228q-4 29 -46.5 96.5t-81.5 110.5 q-6 6 -6 21q2 30 28 105t36 97q6 13 15 17q24 9 33 9q6 0 9 -11q29 -78 46 -96q18 -21 197.5 -217t238.5 -274q29 291 112 576q3 11 13 15q29 7 32 7q4 0 7 -9q4 -16 23.5 -49t44.5 -62h187q12 0 11 -13q0 -3 -3.5 -24t-10.5 -58t-15 -69q-5 -15 -19 -15h-45l-60 10 q-23 -39 -64 -110t-88 -154.5t-65 -114.5q59 -69 194 -240l105 -136q10 -16 -1 -32q-15 -18 -31 -36t-29 -30t-28.5 -25.5t-24 -20.5t-21 -16t-14.5 -11z" />
<glyph unicode="&#x5d1;" horiz-adv-x="1030" d="M70 0q-21 0 -21 17q0 16 20 123q5 25 30 26q191 18 356 18q39 0 120 1t116 1q-40 42 -67.5 105.5t-27.5 119.5v292q0 182 -139 182h-198l-171 30q-19 4 -18 20q3 48 60 230q4 10 14 13q27 6 32 6t8 -8q21 -62 71 -112h236q198 0 276.5 -80t78.5 -262v-147q0 -43 0.5 -123 t0.5 -102q0 -48 10.5 -93t26.5 -67h121q15 0 15 -13q0 -26 -27 -157q-5 -20 -25 -20h-898z" />
<glyph unicode="&#x5d2;" horiz-adv-x="791" d="M568 -12q-10 0 -13 12q-80 299 -105 366q-30 -93 -72.5 -200t-68.5 -144q-14 -22 -38 -22h-214q-11 0 -16 4.5t-4 14.5l23 148q4 22 34 29q103 24 118 31q44 20 115.5 112.5t80.5 158.5q0 55 -2 146.5t-2 108.5q-2 64 -21 92.5t-64 32.5l-54 3l-141 27q-20 3 -20 19 q0 19 21 102.5t38 133.5q5 11 14 14q26 7 32 7q5 0 9 -10q23 -62 71 -110h85q270 0 277 -270l23 -412l113 -341q8 -21 -14 -24q-160 -29 -205 -29z" />
<glyph unicode="&#x5d3;" horiz-adv-x="1012" d="M510 -12q-15 0 -15 19q0 283 11 619q2 54 35 124t86 135h-392l-186 31q-17 3 -17 19q0 24 18.5 93t42.5 138q3 7 13 11q21 7 32 7q5 0 8 -8q22 -62 72 -112h738q10 0 13 -3t3 -11q0 -19 -24 -142q-6 -23 -28 -23h-172v-856q0 -19 -18 -22q-50 -4 -92.5 -8t-62.5 -5.5 t-35.5 -3t-20.5 -2t-9 -0.5z" />
<glyph unicode="&#x5d4;" horiz-adv-x="1134" d="M798 -12q-10 0 -10 11v704q0 182 -137 182h-347l-182 30q-19 4 -19 20q0 55 59 231q3 8 12 11q27 7 34 7q5 0 8 -8q18 -56 71 -112h396q88 0 150.5 -16t110.5 -54.5t71.5 -106t23.5 -166.5v-693q0 -19 -19 -22q-206 -18 -222 -18zM153 -12q-16 0 -16 16q0 116 6.5 312.5 t14.5 287.5q2 26 22 29q153 26 184 26q15 0 15 -18l6 -611q0 -21 -19 -24q-38 -3 -71.5 -6t-53.5 -4.5t-36.5 -3t-24.5 -2.5t-14 -1.5t-8.5 -0.5h-4.5z" />
<glyph unicode="&#x5d5;" horiz-adv-x="613" d="M272 -12q-14 0 -14 16v864l-196 48q-20 5 -20 19q0 35 59 227q4 11 15 15q26 7 30 7q7 0 10 -8q29 -68 72 -112q40 -8 59 -11q19 -4 56.5 -11.5t39.5 -7.5q56 -9 88 -100t32 -205v-702q0 -17 -19 -20q-49 -4 -89.5 -8t-59.5 -5.5t-33.5 -3t-20 -2t-9.5 -0.5z" />
<glyph unicode="&#x5d6;" horiz-adv-x="767" d="M289 -12q-15 0 -18 16q-10 70 -24.5 243t-17.5 261q-2 183 114 371l-263 37q-17 3 -17 19q0 37 58 228q3 9 14 14q27 7 33 7q5 0 8 -7q24 -63 72 -113h461q17 0 17 -14q0 -18 -25 -140q-6 -25 -29 -25h-206q-25 -79 -7 -271l59 -584q3 -21 -15 -22q-191 -20 -214 -20z " />
<glyph unicode="&#x5d7;" horiz-adv-x="1146" d="M166 -12q-17 0 -17 16l4 544q0 80 43.5 175t109.5 164l-190 28q-20 5 -20 20q0 39 60 228q4 10 13 14q21 7 33 7q6 0 9 -10q28 -66 70 -110h426q191 0 272.5 -82.5t81.5 -259.5v-694q0 -18 -18 -21q-74 -6 -128.5 -10.5t-72.5 -6.5t-21 -2q-11 0 -11 10v704 q0 183 -138 183h-246q-9 -60 -15 -115q-14 -130 -14 -206v-534q0 -20 -19 -23q-202 -19 -212 -19z" />
<glyph unicode="&#x5d8;" horiz-adv-x="1257" d="M338 -32q-19 0 -24 12q-42 95 -101 311.5t-61 279.5q-4 121 78 291q-65 10 -103 17q-10 1 -31.5 5.5t-32.5 6.5q-21 3 -21 19q0 46 52 238q3 7 10 12l34 8q5 0 10 -8q21 -59 74 -109q67 -12 144 -34q21 -6 19 -33q-12 -203 5 -375q20 -202 116 -460q139 20 220 55.5 t119 102.5q42 74 60 200.5t32 384.5q1 26 -36 39t-86 9q-76 -89 -121 -291q-3 -14 -21 -11l-85 7q-13 3 -17 21q-6 37 -5 116t9 126q5 45 11 73.5t18.5 59t34 46t52.5 16.5q85 3 224 -38.5t205 -89.5q27 -22 37 -52t10 -83q0 -214 -51 -452q-35 -167 -152 -257 q-212 -163 -626 -163z" />
<glyph unicode="&#x5d9;" horiz-adv-x="629" d="M319 415l-79 22q-16 3 -9 24q57 183 67 330q4 43 0 79q-93 13 -176 32q-38 8 -61 15q-19 4 -19 19q0 24 23 108.5t39 121.5q4 9 14 13q29 6 30 6q4 0 9 -8q30 -70 71 -112l173 -16q66 -6 103 -54.5t37 -118.5q0 -84 -55 -216t-134 -235q-11 -17 -33 -10z" />
<glyph unicode="&#x5da;" horiz-adv-x="943" d="M614 -414q-9 0 -9 11v1107q0 181 -152 181h-209l-183 30q-20 5 -20 20q0 49 62 232q1 8 11 10q27 7 32 7q6 0 9 -8q20 -59 71 -112h265q195 0 275.5 -82.5t80.5 -259.5v-1097q0 -17 -18 -19q-200 -20 -215 -20z" />
<glyph unicode="&#x5db;" horiz-adv-x="953" d="M85 0q-24 0 -24 20q0 29 22 123q5 23 29 24q8 1 124 7t150 9q114 4 164 73t50 198v271q0 160 -122 160h-222l-171 30q-12 2 -16 6.5t-4 13.5q0 45 59 229q4 10 14 13q23 7 33 7q8 0 9 -7q31 -73 70 -113h282q157 0 238 -75t81 -246v-295q0 -198 -102.5 -323t-284.5 -125 h-379z" />
<glyph unicode="&#x5dc;" horiz-adv-x="997" d="M473 -21q-161 30 -209 39q-19 6 -11 24q22 46 135.5 279.5t187.5 382.5t103 196q-55 -11 -150 -13t-373 -2h-64q-23 0 -23 25v451q-38 21 -74 29q-8 2 -8 9q0 24 4 41q2 11 14 15q206 69 265 69q17 0 20 -14q4 -13 11.5 -59t7.5 -67v-320h571q11 0 15 -2.5t6 -11.5 q27 -71 27 -123q0 -11 -21 -54l-408 -881q-10 -17 -26 -13z" />
<glyph unicode="&#x5dd;" horiz-adv-x="1148" d="M156 0q-10 0 -16 6.5t-6 15.5q0 3 1 251.5t1 319.5q0 57 49 150.5t103 141.5l-187 30q-19 4 -19 20q0 30 59 229q5 12 12 13q26 7 34 7q7 0 8 -7q25 -66 71 -113h482q303 0 303 -310v-725q0 -29 -27 -29h-868zM381 176q56 2 209.5 4.5t209.5 3.5v566q0 135 -113 135h-269 q-37 -118 -37 -191v-518z" />
<glyph unicode="&#x5de;" horiz-adv-x="1164" d="M105 -12q-10 -1 -14 3.5t-2 14.5q31 267 92 562q14 69 69 156t131 161l-253 30q-19 4 -19 20q0 23 20 97t40 134q5 11 14 12q24 6 30 6q7 0 10 -7q40 -82 71 -113h355q205 0 315.5 -118t110.5 -322v-449q0 -15 -6 -37q-4 -8 -14 -34t-14 -37q-2 -4 -20 -48 q-8 -19 -28 -19h-438q-24 0 -24 23q0 33 21 123q4 22 30 25q107 9 245 14v493q0 94 -43 150.5t-113 56.5h-152q-79 -187 -100 -324l-42 -310l-28 -221q-3 -19 -20 -22z" />
<glyph unicode="&#x5df;" horiz-adv-x="585" d="M257 -412q-10 0 -10 10v1271l-181 47q-19 4 -19 20q0 25 58 230q4 9 14 12q26 7 33 7q5 0 8 -7q34 -73 72 -113q31 -7 52 -11q15 -3 48 -10t47 -11q26 -6 43 -30q32 -44 49.5 -121t17.5 -151v-1102q0 -21 -18 -22q-202 -19 -214 -19z" />
<glyph unicode="&#x5e0;" horiz-adv-x="711" d="M42 0q-22 0 -22 19q0 9 6.5 51.5t13.5 70.5q5 23 30 24q155 14 287 19v684l-209 47q-19 4 -19 20q0 9 4 28t11 46t14 51t16 56.5t14 49.5q2 9 13 11q7 2 15.5 3.5t12 2.5t5.5 1q4 0 9 -9q33 -72 72 -111q37 -8 72 -12q14 -2 39 -6t43.5 -7.5t30.5 -6.5q23 -6 41 -29 q33 -46 50.5 -122t17.5 -152v-554q0 -22 -6 -37q-3 -8 -26 -68l-17 -45q-11 -25 -39 -25h-479z" />
<glyph unicode="&#x5e1;" horiz-adv-x="1213" d="M338 -23q-20 0 -23 14q-29 100 -84.5 327t-55.5 269q5 135 97 300q-11 2 -52.5 7.5t-64.5 9.5q-37 4 -82 12q-10 2 -13 6t-3 13q0 22 20.5 98t39.5 132q5 11 12 12q27 7 34 7q5 0 6 -6q17 -47 84 -114h854q20 0 20 -18q-3 -35 -11.5 -136t-12.5 -147t-11 -122t-14.5 -134 t-15.5 -110q-32 -179 -170 -280q-96 -68 -226 -103t-328 -37zM511 144q169 21 238.5 84t84.5 194q0 8 8 95t18.5 199.5t13.5 168.5h-466q-5 -192 9 -326q17 -177 94 -415z" />
<glyph unicode="&#x5e2;" horiz-adv-x="1155" d="M113 -54q-14 0 -18 16q-7 26 -19 95q-1 16 16 19q10 2 55 9.5t63.5 11t59 11.5t65 14.5t55 16.5t54.5 20q-89 117 -124 228l-127 504l-118 24q-18 4 -18 20q0 17 8.5 52t26.5 96.5t23 80.5q3 9 12 13q33 7 35 7q4 0 7 -8q2 -3 18 -32t28.5 -47t26.5 -33h134q17 0 24 -7 t10 -25l124 -672q11 -62 29 -120q7 -26 15 -45q152 66 186 235q14 45 29 204.5t19 254.5q-25 -4 -57 -4h-58q-19 0 -16 22l21 139q4 18 24 18h329q20 0 15 -20l-23 -228l-30 -270q-31 -214 -146 -351t-330 -189q-193 -47 -428 -60z" />
<glyph unicode="&#x5e3;" horiz-adv-x="1075" d="M753 -414q-13 0 -13 13v1105q0 92 -38 136.5t-104 44.5h-259q-21 -118 -35 -351h148l44 -32q10 -9 4 -25l-52 -163q-4 -13 -24 -10l-205 38l-104 -38q-10 -4 -15 1l-20 23q-4 4 -4 16q0 15 6.5 72.5t12.5 88.5q3 29 41.5 138.5t98.5 243.5l-137 28q-20 5 -20 20 q0 20 19 92.5t42 136.5q3 10 11 13q27 7 33 7t9 -8q18 -57 71 -112h391q152 0 238 -84t86 -258v-1095q0 -19 -19 -22q-191 -19 -206 -19z" />
<glyph unicode="&#x5e4;" horiz-adv-x="1108" d="M122 0q-11 0 -17.5 6t-5.5 15l20 123q5 24 30 24q77 0 226 8l181 7q102 2 157.5 74t55.5 197v271q0 160 -122 160h-291q-19 -116 -23 -243h147l43 -33q11 -8 5 -25l-52 -152q-5 -14 -20 -9l-210 38l-102 -38q-8 -4 -16 1l-20 24q-4 4 -2 17q5 42 24 143q6 29 45 114.5 t83 164.5l-129 28q-18 4 -18 20q0 52 59 229q4 12 13 13q29 7 33 7q6 0 9 -8q20 -59 71 -112h405q311 0 311 -321v-295q2 -197 -102.5 -322.5t-290.5 -125.5h-497z" />
<glyph unicode="&#x5e5;" horiz-adv-x="1075" d="M457 -413q-10 0 -10 11q0 18 3.5 389t3.5 388q-22 42 -180 259t-202 284q-5 8 -5 15q0 34 22.5 109.5t40.5 119.5q5 12 12 13q1 1 35 9q7 0 10 -10q20 -55 43 -96q151 -229 312 -478l20 -36q37 256 150 598q4 8 10 11q28 10 34 10t7 -7q16 -55 66 -112h186q13 0 12 -12 l-28 -151q-3 -16 -19 -16h-56l-61 10q-179 -307 -234 -404q39 -68 43 -184q0 -221 4 -413l3 -266q0 -20 -17 -21q-196 -20 -205 -20z" />
<glyph unicode="&#x5e6;" horiz-adv-x="1095" d="M81 0q-12 0 -18 6t-5 15q1 4 3.5 27t6.5 48.5t10 46.5q5 23 29 24q70 6 258 12.5t277 6.5q-52 85 -162 228.5t-180 229.5t-224 272q-5 5 -5 16q0 49 64 230q4 11 13 14q23 7 33 7q7 0 8 -7q30 -78 46 -99q16 -22 176 -230.5t203 -270.5q22 274 122 588q3 9 12 13 q24 6 33 6q4 0 7 -9q26 -74 65 -110h183q13 0 13 -10q0 -1 -5.5 -32t-12.5 -69t-11 -52q-3 -16 -17 -16h-57l-50 8q-15 -27 -94 -160.5t-126 -221.5q170 -242 221 -335q6 -11 6 -22q0 -35 -32 -139q-5 -15 -24 -15h-766z" />
<glyph unicode="&#x5e7;" horiz-adv-x="1213" d="M733 -21q-21 4 -68.5 13t-84.5 16.5t-46 9.5q-19 6 -10 29q188 458 252 599q47 100 139 250q-5 0 -36.5 -3t-80.5 -5.5t-97 -2.5h-383l-217 30q-19 3 -19 20q0 28 56 222q4 12 16 18q27 9 33 9t8 -8q26 -64 71 -112h839q17 0 23 -14q28 -78 28 -123q0 -10 -21 -54 l-374 -879q-9 -19 -28 -15zM165 -412q-15 0 -15 15q0 744 22 1001q3 26 23 29q157 26 179 26q15 0 15 -18l6 -1011q0 -23 -19 -24q-38 -3 -71 -6t-53 -4.5t-36.5 -3t-24.5 -2.5t-14 -1.5t-8 -0.5h-4z" />
<glyph unicode="&#x5e8;" horiz-adv-x="950" d="M614 -12q-11 0 -11 11v705q0 95 -38 138t-101 43h-225l-182 30q-20 4 -20 19q0 57 56 225q1 2 3 4.5t2.5 4t1.5 3t2 2.5t2.5 1.5t3.5 1.5q26 8 34 8q7 0 10 -10q35 -77 71 -110h272q69 0 122 -9t98.5 -32.5t75 -62t46 -98t16.5 -139.5v-696q0 -17 -18 -20 q-216 -19 -221 -19z" />
<glyph unicode="&#x5e9;" horiz-adv-x="1502" d="M432 -16q-20 0 -32 16q-103 175 -160.5 419.5t-66.5 470.5q-45 8 -101 25q-20 8 -20 20q0 47 53 206q9 32 22 36q28 7 30 7q6 0 9 -10q27 -64 71 -110h144q23 0 23 -22q0 -159 2.5 -246t19 -220t50.5 -242q120 86 166 199.5t40 291.5q-2 48 -4 60h-105q-25 0 -20 27 l20 130q4 22 27 22h281q18 0 18 -18q6 -173 -10 -315.5t-50 -216.5q-95 -195 -343 -267q11 -37 46 -120q382 23 516 219q60 87 91 253.5t31 289.5q-23 -4 -54 -4h-53q-10 0 -15.5 6t-3.5 17l16 123q4 33 34 33h299q9 0 14.5 -6t4.5 -14q0 -39 -3 -118.5t-20 -223.5t-44 -225 q-27 -87 -67.5 -156.5t-112.5 -134t-170 -107.5t-243.5 -69t-329.5 -26z" />
<glyph unicode="&#x5ea;" horiz-adv-x="1232" d="M895 -12q-10 0 -10 10v706q0 181 -138 181h-272q-11 -48 -12 -100q-8 -223 54 -615q3 -13 -4 -38l-30 -110q-6 -22 -35 -22h-407q-21 0 -21 17q0 15 22 121q3 17 27 21q87 13 200 19q-3 17 -10 65.5t-9.5 66.5t-8 57t-8 60t-5 51t-3.5 53.5t-1 46.5q5 140 129 307 l-205 30q-20 4 -20 20q0 22 22 102.5t40 129.5q4 9 11 10q29 7 32 7q5 0 8 -8q41 -80 72 -112h467q88 0 150.5 -15.5t110.5 -53.5t71.5 -105.5t23.5 -167.5v-694q0 -18 -19 -21q-202 -19 -222 -19z" />
<glyph unicode="&#x5f0;" horiz-adv-x="1223" d="M272 -12q-14 0 -14 16v864l-196 48q-20 5 -20 19q0 35 59 227q4 11 15 15q26 7 30 7q7 0 10 -8q29 -68 72 -112q40 -8 59 -11q19 -4 56.5 -11.5t39.5 -7.5q56 -9 88 -100t32 -205v-702q0 -17 -19 -20q-49 -4 -89.5 -8t-59.5 -5.5t-33.5 -3t-20 -2t-9.5 -0.5zM882 -12 q-14 0 -14 16v864l-196 48q-20 5 -20 19q0 35 59 227q4 11 15 15q26 7 30 7q7 0 10 -8q29 -68 72 -112q40 -8 59 -11q19 -4 56.5 -11.5t39.5 -7.5q56 -9 88 -100t32 -205v-702q0 -17 -19 -20q-49 -4 -89.5 -8t-59.5 -5.5t-33.5 -3t-20 -2t-9.5 -0.5z" />
<glyph unicode="&#x5f1;" horiz-adv-x="1253" d="M319 415l-79 22q-16 3 -9 24q57 183 67 330q4 43 0 79q-93 13 -176 32q-38 8 -61 15q-19 4 -19 19q0 24 23 108.5t39 121.5q4 9 14 13q29 6 30 6q4 0 9 -8q30 -70 71 -112l173 -16q66 -6 103 -54.5t37 -118.5q0 -84 -55 -216t-134 -235q-11 -17 -33 -10zM912 -12 q-14 0 -14 16v864l-196 48q-20 5 -20 19q0 35 59 227q4 11 15 15q26 7 30 7q7 0 10 -8q29 -68 72 -112q40 -8 59 -11q19 -4 56.5 -11.5t39.5 -7.5q56 -9 88 -100t32 -205v-702q0 -17 -19 -20q-49 -4 -89.5 -8t-59.5 -5.5t-33.5 -3t-20 -2t-9.5 -0.5z" />
<glyph unicode="&#x5f2;" horiz-adv-x="1248" d="M319 415l-79 22q-16 3 -9 24q57 183 67 330q4 43 0 79q-93 13 -176 32q-38 8 -61 15q-19 4 -19 19q0 24 23 108.5t39 121.5q4 9 14 13q29 6 30 6q4 0 9 -8q30 -70 71 -112l173 -16q66 -6 103 -54.5t37 -118.5q0 -84 -55 -216t-134 -235q-11 -17 -33 -10zM939 415l-79 22 q-16 3 -9 24q57 183 67 330q4 43 0 79q-93 13 -176 32q-38 8 -61 15q-19 4 -19 19q0 24 23 108.5t39 121.5q4 9 14 13q28 6 30 6q4 0 9 -8q30 -70 71 -112l173 -16q66 -6 103 -54.5t37 -118.5q0 -84 -55 -216t-134 -235q-11 -17 -33 -10z" />
<glyph unicode="&#x5f3;" horiz-adv-x="372" d="M116 879q-8 1 -48 15q-8 4 -7 14q1 3 15.5 34.5t39.5 93t50 133.5q-41 27 -72 60t-31 52q0 36 58 94t94 58q32 0 89.5 -61t57.5 -88q0 -41 -30 -122q-64 -156 -198 -278q-8 -8 -18 -5z" />
<glyph unicode="&#x5f4;" horiz-adv-x="732" d="M116 879q-8 1 -48 15q-8 4 -7 14q1 3 15.5 34.5t39.5 93t50 133.5q-41 27 -72 60t-31 52q0 36 58 94t94 58q32 0 89.5 -61t57.5 -88q0 -41 -30 -122q-64 -156 -198 -278q-8 -8 -18 -5zM476 879q-8 1 -48 15q-8 4 -7 14q1 3 15.5 34.5t39.5 93t50 133.5q-41 27 -72 60 t-31 52q0 36 58 94t94 58q32 0 89.5 -61t57.5 -88q0 -41 -30 -122q-64 -156 -198 -278q-8 -8 -18 -5z" />
<glyph unicode="&#x2013;" horiz-adv-x="1417" d="M178 441q-16 0 -16 17q0 7 25 140q6 24 29 24h1018q22 0 22 -19q0 -1 -23 -121q-1 -9 -9 -16.5t-21 -8.5q-105 -7 -480 -11.5t-545 -4.5z" />
<glyph unicode="&#x2014;" horiz-adv-x="2227" d="M177 442q-15 0 -15 17q0 14 24 139q6 24 29 24h1830q22 0 22 -19q0 -2 -1 -7.5t-7 -34.5t-14 -70q-2 -22 -25 -26q-85 -8 -856 -15.5t-987 -7.5z" />
<glyph unicode="&#x2018;" horiz-adv-x="372" d="M116 879q-8 1 -48 15q-8 4 -7 14q1 3 15.5 34.5t39.5 93t50 133.5q-41 27 -72 60t-31 52q0 36 58 94t94 58q32 0 89.5 -61t57.5 -88q0 -41 -30 -122q-64 -156 -198 -278q-8 -8 -18 -5z" />
<glyph unicode="&#x2019;" horiz-adv-x="372" d="M116 879q-8 1 -48 15q-8 4 -7 14q1 3 15.5 34.5t39.5 93t50 133.5q-41 27 -72 60t-31 52q0 36 58 94t94 58q32 0 89.5 -61t57.5 -88q0 -41 -30 -122q-64 -156 -198 -278q-8 -8 -18 -5z" />
<glyph unicode="&#x201a;" horiz-adv-x="372" d="M116 879q-8 1 -48 15q-8 4 -7 14q1 3 15.5 34.5t39.5 93t50 133.5q-41 27 -72 60t-31 52q0 36 58 94t94 58q32 0 89.5 -61t57.5 -88q0 -41 -30 -122q-64 -156 -198 -278q-8 -8 -18 -5z" />
<glyph unicode="&#x201c;" horiz-adv-x="732" d="M116 879q-8 1 -48 15q-8 4 -7 14q1 3 15.5 34.5t39.5 93t50 133.5q-41 27 -72 60t-31 52q0 36 58 94t94 58q32 0 89.5 -61t57.5 -88q0 -41 -30 -122q-64 -156 -198 -278q-8 -8 -18 -5zM476 879q-8 1 -48 15q-8 4 -7 14q1 3 15.5 34.5t39.5 93t50 133.5q-41 27 -72 60 t-31 52q0 36 58 94t94 58q32 0 89.5 -61t57.5 -88q0 -41 -30 -122q-64 -156 -198 -278q-8 -8 -18 -5z" />
<glyph unicode="&#x201d;" horiz-adv-x="732" d="M116 879q-8 1 -48 15q-8 4 -7 14q1 3 15.5 34.5t39.5 93t50 133.5q-41 27 -72 60t-31 52q0 36 58 94t94 58q32 0 89.5 -61t57.5 -88q0 -41 -30 -122q-64 -156 -198 -278q-8 -8 -18 -5zM476 879q-8 1 -48 15q-8 4 -7 14q1 3 15.5 34.5t39.5 93t50 133.5q-41 27 -72 60 t-31 52q0 36 58 94t94 58q32 0 89.5 -61t57.5 -88q0 -41 -30 -122q-64 -156 -198 -278q-8 -8 -18 -5z" />
<glyph unicode="&#x201e;" horiz-adv-x="732" d="M116 879q-8 1 -48 15q-8 4 -7 14q1 3 15.5 34.5t39.5 93t50 133.5q-41 27 -72 60t-31 52q0 36 58 94t94 58q32 0 89.5 -61t57.5 -88q0 -41 -30 -122q-64 -156 -198 -278q-8 -8 -18 -5zM476 879q-8 1 -48 15q-8 4 -7 14q1 3 15.5 34.5t39.5 93t50 133.5q-41 27 -72 60 t-31 52q0 36 58 94t94 58q32 0 89.5 -61t57.5 -88q0 -41 -30 -122q-64 -156 -198 -278q-8 -8 -18 -5z" />
<glyph unicode="&#x2020;" horiz-adv-x="875" d="M346 -178q-16 0 -16 15v967l-231 -5q-15 0 -15 13q0 11 20 134q4 16 24 16h201q-1 59 -3.5 134t-4 124t-1.5 60q0 18 14 22q174 49 183 49q15 0 15 -21l-10 -368h258q16 0 16 -11q0 -13 -28 -120q-5 -15 -23 -16q-7 -1 -224 -7q0 -126 3 -517.5t3 -395.5q0 -28 -22 -35 q-154 -38 -159 -38z" />
<glyph unicode="&#x2021;" horiz-adv-x="884" d="M332 -183q-13 0 -13 15l9 385q-153 -4 -225 -4q-15 0 -15 13q0 27 20 134q3 16 23 16h194q-9 130 -9 206q0 73 10 221q-152 -4 -223 -4q-15 0 -15 13q0 11 20 134q4 16 23 16h196q-8 307 -8 320q0 16 13 20q177 49 186 49q11 0 11 -15q0 -41 -8 -374h262q16 0 16 -11 q0 -17 -27 -120q-5 -15 -23 -16q-9 -1 -228 -7q1 -32 4 -84t5 -90.5t2 -48.5t-1.5 -43.5t-4 -82.5t-3.5 -83h260q16 0 16 -12q0 -16 -27 -119q-4 -16 -23 -16q-9 -1 -228 -7q0 -63 4.5 -195t4.5 -141q0 -16 -13 -20q-170 -49 -185 -49z" />
<glyph unicode="&#x2022;" horiz-adv-x="717" d="M358 243q-37 0 -103.5 52t-118.5 118.5t-52 103.5t52 103.5t118.5 118.5t103.5 52t104 -52t119 -118.5t52 -103.5t-52 -103.5t-119 -118.5t-104 -52z" />
<glyph unicode="&#x2026;" horiz-adv-x="1380" d="M240 -41q-36 1 -99.5 65t-63.5 97q0 35 65.5 100.5t101.5 65.5q32 -2 96 -66t66 -96q0 -37 -66.5 -103t-99.5 -63zM688 -41q-37 1 -100 65t-63 97q0 35 64.5 100.5t100.5 65.5q34 -2 97 -65.5t65 -96.5q0 -37 -65 -103t-99 -63zM1140 -41q-36 1 -99.5 65t-63.5 97 q0 35 65.5 100.5t101.5 65.5q33 -2 96 -66t65 -96q0 -37 -65.5 -103t-99.5 -63z" />
<glyph unicode="&#x2030;" horiz-adv-x="2220" d="M349 464q-132 0 -203 86.5t-71 249.5q0 197 99 286q70 67 191 67q130 0 202 -87t72 -246q0 -193 -95 -285q-73 -71 -195 -71zM415 -32q-4 0 -135 37q-9 1 -9 10q0 7 651 872q106 139 164 218q14 12 23 12q21 0 140 -40q9 -7 9 -11q0 -10 -461 -610q-221 -288 -366 -477 q-8 -11 -16 -11zM376 555q28 0 45 10q20 19 34.5 80t14.5 130q0 126 -27 195q-35 94 -111 94q-30 0 -44 -10q-20 -20 -34 -79t-14 -127q0 -107 16 -165q14 -49 43 -88.5t77 -39.5zM1164 -64q-132 0 -203 86.5t-71 248.5q0 197 99 286q70 67 191 67q130 0 202 -87t72 -245 q0 -194 -95 -286q-71 -70 -195 -70zM1851 -64q-132 0 -203 86.5t-71 248.5q0 197 99 286q70 67 191 67q130 0 202 -87t72 -245q0 -194 -95 -286q-71 -70 -195 -70zM1191 26q28 0 45 10q21 19 35 80.5t14 129.5q0 129 -26 195q-16 42 -44.5 68.5t-67.5 26.5q-28 0 -44 -10 q-20 -20 -33.5 -79.5t-13.5 -127.5q0 -98 15 -165q39 -128 120 -128zM1878 26q28 0 45 10q21 19 35 80.5t14 129.5q0 126 -27 195q-35 95 -111 95q-28 0 -44 -10q-20 -20 -34 -79t-14 -128q0 -107 16 -165q39 -128 120 -128z" />
<glyph unicode="&#x2039;" horiz-adv-x="372" d="M116 879q-8 1 -48 15q-8 4 -7 14q1 3 15.5 34.5t39.5 93t50 133.5q-41 27 -72 60t-31 52q0 36 58 94t94 58q32 0 89.5 -61t57.5 -88q0 -41 -30 -122q-64 -156 -198 -278q-8 -8 -18 -5z" />
<glyph unicode="&#x203a;" horiz-adv-x="372" d="M116 879q-8 1 -48 15q-8 4 -7 14q1 3 15.5 34.5t39.5 93t50 133.5q-41 27 -72 60t-31 52q0 36 58 94t94 58q32 0 89.5 -61t57.5 -88q0 -41 -30 -122q-64 -156 -198 -278q-8 -8 -18 -5z" />
<glyph unicode="&#x20aa;" horiz-adv-x="1853" d="M205 -12q-17 0 -18 16q-39 346 -39 488q0 110 34 214.5t105 180.5l-177 28q-20 5 -20 20q0 37 59 229q3 10 14 13q27 7 33 7q5 0 8 -8q27 -67 71 -112h614q174 0 266 -67.5t92 -226.5q0 -79 -18.5 -202t-28.5 -156q-5 -18 -23 -22q-17 -7 -94 -16.5t-90 -9.5 q-17 0 -12 19q39 172 39 326q0 176 -137 176h-484q-25 -140 -25 -287q0 -96 18.5 -278.5t39.5 -284.5q5 -23 -19 -28q-129 -19 -208 -19zM769 -16q-20 0 -29 16q-53 88 -93.5 199.5t-59.5 205t-27.5 156t-8.5 86.5q0 17 15 17h202q12 0 14 -14q21 -185 41 -295.5t59 -210.5 q84 0 159 10.5t148.5 36.5t130 66t98.5 102.5t60 143.5q7 31 15 94.5t13.5 116t11 113t5.5 62.5q-1 0 -66 -3q-13 -1 -42 -1q-21 0 -18 23q1 3 8 62t12 75q4 19 25 19h303q21 0 19 -21l-17 -206q-15 -192 -22 -229q-14 -115 -51 -207.5t-88 -156.5t-123 -111.5t-147 -75.5 t-171 -45t-182.5 -22.5t-193.5 -5.5z" />
<glyph unicode="&#x2122;" horiz-adv-x="1727" d="M243 801q-17 0 -17 9q0 13 6 34q1 10 13 13l86 26v436q-15 -1 -50 -5q-9 -1 -86 -11q-8 -11 -60 -101q-6 -13 -16 -13q-11 0 -37 8q-6 2 -8 4.5t-2 11.5q0 18 12 78t25 89q5 9 19 9q22 0 55 -5h439l58 5q16 0 18 -13q19 -128 19 -169q0 -10 -8 -12q-35 -8 -42 -8 q-9 0 -13 10l-56 105q-8 1 -37.5 4.5t-45.5 5.5q-19 3 -50 7v-437l106 -27q9 -3 9 -11q0 -5 -8 -34q-3 -9 -13 -9h-316zM1122 788q-8 0 -13 9q-44 103 -86.5 210t-61.5 157.5t-23 62.5v-347l83 -26q9 -3 9 -10q0 -6 -6 -34q-3 -9 -12 -9h-244q-12 0 -12 8q0 9 5 34 q1 8 14 13q23 8 47 14q22 6 33 10v420q-77 24 -81 27q-9 5 -9 9q0 7 9 38q1 10 15 10h195q14 0 20 -14l187 -450l183 446q8 18 27 18h210q8 0 8 -7q0 -16 -6 -39q-1 -9 -14 -13q-22 -8 -45 -15l-32 -10v-420l93 -26q10 -3 10 -10q0 -11 -7 -34q-3 -9 -15 -9h-295q-6 0 -6 5 l6 37q2 9 15 13q25 9 43 15l30 9v349q-1 -2 -23.5 -62t-61.5 -156.5t-74 -175.5q-9 -19 -22 -23q-85 -24 -93 -24z" />
<glyph unicode="&#x2153;" horiz-adv-x="1450" d="M94 783q-13 0 -13 9q0 6 10 56q1 7 13 11q6 2 61 13l47 9v460h-128q-9 0 -9 7q0 8 10 56q2 9 12 10q15 4 154 29t153 25q9 0 9 -8v-576q74 -13 102 -22q8 -5 8 -9q0 -9 -12 -61q-3 -9 -14 -9h-403zM400 201q-18 0 -135 36q-8 3 -8 11q0 39 694 931q10 13 21 13 q6 0 140 -40q9 -4 9 -11q0 -2 -7 -10q-151 -157 -696 -919q-8 -11 -18 -11zM916 -66q-14 0 -18 9q-17 51 -17 63q0 9 10 10q43 6 84.5 17.5t87.5 31t74.5 52t28.5 73.5q0 36 -17.5 61.5t-46.5 38t-56.5 17.5t-57.5 5q-14 0 -14 9q0 6 8 41q5 14 11 19q40 40 106.5 103 t81.5 74q-216 -22 -270 -22q-16 0 -17 9q-25 91 -25 103q0 8 10 8h461q16 0 20 -11q15 -40 15 -48q0 -5 -3 -10q-17 -20 -96 -110t-91 -102q78 -10 127.5 -62t49.5 -127q0 -69 -42 -121t-110.5 -79t-142 -39.5t-151.5 -12.5z" />
<glyph unicode="&#x2154;" horiz-adv-x="1547" d="M108 787q-15 0 -19 13q-14 36 -14 43q0 2 3 11q53 53 228 258q77 90 77 153q0 33 -25 55t-78 22q-50 0 -130 -22q-9 -3 -13 -3q-5 0 -8 7q-32 72 -32 81q0 8 5 10q50 29 115.5 43t117.5 14q119 0 186 -51t67 -139q0 -45 -24.5 -96t-73.5 -107.5t-88.5 -95.5t-102.5 -97 q34 8 163 19l130 11q20 0 24 -21q21 -78 21 -92q0 -16 -23 -16h-506zM497 201q-18 0 -135 36q-8 3 -8 11q0 39 694 931q10 13 21 13q6 0 140 -40q9 -4 9 -11q0 -2 -7 -10q-151 -157 -696 -919q-8 -11 -18 -11zM1013 -66q-14 0 -18 9q-17 51 -17 63q0 9 10 10q43 6 84.5 17.5 t87.5 31t74.5 52t28.5 73.5q0 36 -17.5 61.5t-46.5 38t-56.5 17.5t-57.5 5q-14 0 -14 9q0 6 8 41q5 14 11 19q40 40 106.5 103t81.5 74q-216 -22 -270 -22q-16 0 -17 9q-25 91 -25 103q0 8 10 8h461q16 0 20 -11q15 -40 15 -48q0 -5 -3 -10q-17 -20 -96 -110t-91 -102 q78 -10 127.5 -62t49.5 -127q0 -69 -42 -121t-110.5 -79t-142 -39.5t-151.5 -12.5z" />
<glyph unicode="&#x215b;" horiz-adv-x="1452" d="M105 783q-13 0 -13 9q0 12 10 56q1 7 13 11q6 2 61 13l47 9v460h-128q-9 0 -9 7q0 8 10 56q2 9 12 10q15 4 154 29t153 25q9 0 9 -8v-576q74 -13 102 -22q8 -5 8 -9q0 -9 -12 -61q-3 -9 -14 -9h-403zM411 201q-18 0 -135 36q-8 3 -8 11t418 564q168 223 276 367 q10 13 21 13q6 0 140 -40q9 -4 9 -11q0 -5 -22 -35t-139 -183q-269 -352 -542 -711q-8 -11 -18 -11zM1096 -51q-133 0 -209.5 51.5t-76.5 141.5q0 108 127 188q-107 68 -107 176q0 86 72.5 140.5t186.5 54.5q113 0 184 -50.5t71 -131.5q0 -107 -107 -178q129 -74 129 -194 q0 -92 -72.5 -145t-197.5 -53zM1155 385q29 52 29 103q0 55 -37 92t-92 37q-41 0 -53 -19q-14 -9 -14 -52q0 -48 30 -78q29 -30 137 -83zM1115 39q55 0 74 18q15 14 15 52q0 48 -30 81q-7 7 -16 15t-22.5 16.5t-22.5 14t-27 15t-24 12.5t-24.5 12.5t-19.5 9.5 q-40 -57 -40 -112t40.5 -94.5t96.5 -39.5z" />
<glyph unicode="&#x215c;" horiz-adv-x="1391" d="M113 734q-14 0 -18 9q-17 51 -17 63q0 9 10 10q43 6 84.5 17.5t87.5 31t74.5 52t28.5 73.5q0 36 -17.5 61.5t-46.5 38t-56.5 17.5t-57.5 5q-14 0 -14 9q0 6 8 41q5 14 11 19q40 40 106.5 103t81.5 74q-216 -22 -270 -22q-16 0 -17 9q-25 91 -25 103q0 8 10 8h461 q16 0 20 -11q15 -40 15 -48q0 -5 -3 -10q-17 -20 -96 -110t-91 -102q78 -10 127.5 -62t49.5 -127q0 -69 -42 -121t-110.5 -79t-142 -39.5t-151.5 -12.5zM381 201q-18 0 -135 36q-8 3 -8 11q0 39 694 931q10 13 21 13q6 0 140 -40q9 -4 9 -11q0 -2 -7 -10 q-151 -157 -696 -919q-8 -11 -18 -11zM1056 -51q-133 0 -209.5 51.5t-76.5 141.5q0 108 127 188q-107 68 -107 176q0 86 72.5 140.5t186.5 54.5q113 0 184 -50.5t71 -131.5q0 -107 -107 -178q129 -74 129 -194q0 -92 -72.5 -145t-197.5 -53zM1115 385q29 52 29 103 q0 55 -37 92t-92 37q-41 0 -53 -19q-14 -9 -14 -52q0 -48 30 -78q29 -30 137 -83zM1075 39q55 0 74 18q15 14 15 52q0 48 -30 81q-7 7 -16 15t-22.5 16.5t-22.5 14t-27 15t-24 12.5t-24.5 12.5t-19.5 9.5q-40 -57 -40 -112t40.5 -94.5t96.5 -39.5z" />
<glyph unicode="&#x215d;" horiz-adv-x="1424" d="M97 714q-20 0 -23 15q-9 39 -9 42q0 15 23 20q139 33 204 80t65 113q0 126 -177 126q-12 0 -30 -1t-27 -1q-31 0 -31 24l11 307q0 12 10 19.5t26 7.5h388q27 0 27 -20q0 -14 -27 -81q-6 -16 -34 -16q-72 0 -237 11q-2 -19 -5.5 -59.5t-5.5 -58.5l-6 -56q33 3 65 3 q110 0 174.5 -54.5t64.5 -146.5q0 -104 -91 -169.5t-278 -98.5q-34 -6 -77 -6zM384 201q-18 0 -135 36q-8 3 -8 11q0 39 694 931q10 13 21 13q6 0 140 -40q9 -4 9 -11q0 -2 -7 -10q-151 -157 -696 -919q-8 -11 -18 -11zM1089 -51q-133 0 -209.5 51.5t-76.5 141.5 q0 108 127 188q-107 68 -107 176q0 86 72.5 140.5t186.5 54.5q113 0 184 -50.5t71 -131.5q0 -107 -107 -178q129 -74 129 -194q0 -92 -72.5 -145t-197.5 -53zM1148 385q29 52 29 103q0 55 -37 92t-92 37q-41 0 -53 -19q-14 -9 -14 -52q0 -48 30 -78q29 -30 137 -83zM1108 39 q55 0 74 18q15 14 15 52q0 48 -30 81q-7 7 -16 15t-22.5 16.5t-22.5 14t-27 15t-24 12.5t-24.5 12.5t-19.5 9.5q-40 -57 -40 -112t40.5 -94.5t96.5 -39.5z" />
<glyph unicode="&#x215e;" horiz-adv-x="1406" d="M258 701q-23 0 -122 26q-24 6 -24 24q0 10 21 49t151 268q97 171 164 290q-203 -16 -325 -16q-27 0 -32 18q-26 79 -26 88q0 8 8 13t20 5h494q29 0 37 -21q18 -46 18 -51q0 -8 -6 -19l-347 -656q-9 -18 -31 -18zM356 201q-18 0 -135 36q-8 3 -8 11q0 39 694 931 q10 13 21 13q6 0 140 -40q9 -4 9 -11q0 -2 -7 -10q-151 -157 -696 -919q-8 -11 -18 -11zM1071 -51q-133 0 -209.5 51.5t-76.5 141.5q0 108 127 188q-107 68 -107 176q0 86 72.5 140.5t186.5 54.5q113 0 184 -50.5t71 -131.5q0 -107 -107 -178q129 -74 129 -194 q0 -92 -72.5 -145t-197.5 -53zM1130 385q29 52 29 103q0 55 -37 92t-92 37q-41 0 -53 -19q-14 -9 -14 -52q0 -48 30 -78q29 -30 137 -83zM1090 39q55 0 74 18q15 14 15 52q0 48 -30 81q-7 7 -16 15t-22.5 16.5t-22.5 14t-27 15t-24 12.5t-24.5 12.5t-19.5 9.5 q-40 -57 -40 -112t40.5 -94.5t96.5 -39.5z" />
<glyph unicode="&#x25a0;" horiz-adv-x="1067" d="M135 123v803h803v-803h-803z" />
<glyph unicode="&#x25a1;" horiz-adv-x="940" d="M53 98v842h836v-842h-836zM170 215h602v608h-602v-608z" />
<glyph unicode="&#x25c6;" horiz-adv-x="913" d="M453 104l-426 426l426 426l426 -426z" />
<glyph unicode="&#x25c7;" horiz-adv-x="963" d="M479 84l-444 444l446 443l443 -441zM479 209l320 321l-318 318l-321 -320z" />
<glyph unicode="&#x25cb;" horiz-adv-x="1200" d="M608 125q-174 0 -311 125q-123 108 -123 278q0 174 123 297q126 123 301 123q178 0 303 -119q129 -119 129 -292q0 -175 -123 -295q-123 -117 -299 -117zM606 217q136 0 232 90q94 90 94 228q0 132 -98 225q-97 94 -234 94q-135 0 -231 -96q-97 -97 -97 -230t99 -223 q100 -88 235 -88z" />
<glyph unicode="&#x25cc;" horiz-adv-x="1217" d="M608 938q-49 0 -49 51q0 49 49 49t49 -49q0 -51 -49 -51zM434 903q-49 0 -49 49q0 52 49 52q51 0 51 -52q0 -49 -51 -49zM784 903q-51 0 -51 49q0 52 51 52q47 0 47 -52q0 -49 -47 -49zM287 807q-49 0 -49 45q0 51 49 51t49 -49q0 -47 -49 -47zM932 807q-51 0 -51 47 q0 49 51 49q47 0 47 -49q0 -47 -47 -47zM190 655q-51 0 -51 52q0 49 49 49q50 0 50 -49q0 -52 -48 -52zM1028 655q-49 0 -49 52q0 49 51 49q49 0 49 -49q0 -52 -51 -52zM154 483q-52 0 -52 49q0 50 52 50q49 0 49 -50q0 -49 -49 -49zM1067 483q-51 0 -51 49q0 50 51 50 q47 0 47 -50q0 -49 -47 -49zM188 309q-49 0 -49 49q0 52 49 52q50 0 50 -52q0 -49 -50 -49zM1028 309q-49 0 -49 49q0 52 49 52q51 0 51 -52q0 -49 -51 -49zM287 160q-49 0 -49 49q0 51 49 51t49 -51q0 -49 -49 -49zM932 160q-49 0 -49 49q0 51 49 51q47 0 47 -51 q0 -49 -47 -49zM434 63q-49 0 -49 48q0 51 49 51q51 0 51 -47q0 -52 -51 -52zM784 63q-49 0 -49 48q0 51 49 51q47 0 47 -51q0 -48 -47 -48zM608 27q-49 0 -49 51q0 49 49 49t49 -49q0 -51 -49 -51z" />
<glyph unicode="&#x25fc;" horiz-adv-x="950" d="M0 950h950v-950h-950v950z" />
<glyph unicode="&#x2605;" horiz-adv-x="1720" d="M416 -59l174 512l-445 323h537l178 512l178 -512h537l-445 -323l175 -512l-445 329z" />
<glyph unicode="&#x2721;" horiz-adv-x="1366" d="M674 -114l-195 330h-389l195 330l-195 327h389l195 330l196 -330h390l-195 -327l195 -330h-390zM506 267h336l162 279l-162 276h-336l-162 -276z" />
<glyph unicode="&#x274f;" horiz-adv-x="1171" d="M262 -47v166h-133v803h803v-125h174v-844h-844zM166 160h723v723h-723v-723z" />
<glyph unicode="&#xfb1e;" d="M356 1384l-346 183l17 14q20 0 331 -113q70 29 164 64q98 40 170 49l13 -2l8 -8q-10 -4 -357 -187z" />
<glyph unicode="&#xfb20;" horiz-adv-x="1155" d="M113 -54q-14 0 -18 16q-7 26 -19 95q-1 16 16 19q240 35 352 83q-89 117 -124 228l-127 504l-118 24q-18 4 -18 20q0 15 8.5 48.5t23 83.5t20.5 74q6 22 9.5 28t10.5 8q8 1 15 2.5t9.5 2.5t5 1.5t3.5 0.5q5 0 9 -10q4 -7 14.5 -26t17 -30t17.5 -26.5t22 -27.5h132 q30 0 37 -33l123 -671q11 -62 29 -120q7 -26 15 -45q152 66 186 235q14 45 29 204.5t19 254.5q-25 -4 -57 -4h-56q-21 0 -18 22l20 135q4 22 29 22h321q9 0 15 -6t4 -14l-23 -228l-30 -270q-59 -438 -476 -540q-193 -47 -428 -60z" />
<glyph unicode="&#xfb21;" horiz-adv-x="1896" d="M1682 -22q-187 134 -669 427q-256 154 -566 321q-62 -106 -85 -168q-62 -166 -41 -377q156 -10 201 -23q17 -5 17 -22q0 -8 -7.5 -51.5t-14.5 -68.5q-4 -16 -24 -16h-353q-17 0 -20 16q-19 102 -11.5 198t25.5 173t53 148.5t72 124t81 99.5q-80 81 -226 162q-9 6 -7 21 q2 39 21.5 121t26.5 97q5 13 15 16l30 8q9 0 14 -9l13 -21q13 -20 19.5 -29t19.5 -24t25 -24q89 -56 482 -281.5t488 -281.5l67 -44q12 175 58 368t105 327q5 11 12 12q30 7 32 7q4 0 7 -8q19 -56 68 -112h224q12 0 10 -12q0 -26 -30 -154q-4 -13 -18 -13h-45l-91 10 q-105 -159 -241 -477l415 -261q20 -12 5 -37q-35 -51 -104 -138q-12 -16 -23.5 -16.5t-29.5 12.5z" />
<glyph unicode="&#xfb22;" horiz-adv-x="1667" d="M1165 -12q-15 0 -15 19q0 300 11 630q0 54 36 126t86 122h-1048l-186 31q-17 3 -17 19q0 24 18.5 93.5t42.5 137.5q3 7 13 11q21 7 32 7q5 0 8 -8q22 -62 72 -112h1393q10 0 13 -3t3 -11q0 -19 -24 -142q-6 -23 -28 -23h-172v-856q0 -19 -18 -22q-50 -4 -92.5 -8 t-62.5 -5.5t-35.5 -3t-20.5 -2t-9 -0.5z" />
<glyph unicode="&#xfb23;" horiz-adv-x="1946" d="M1611 -12q-11 0 -11 11v704q0 182 -137 182h-1159l-182 30q-19 4 -19 20q0 55 59 231q3 8 12 11q27 7 34 7q5 0 8 -8q18 -56 71 -112h1209q87 0 149.5 -16t110.5 -54.5t72 -106t24 -166.5v-693q0 -19 -20 -22q-207 -18 -221 -18zM153 -12q-16 0 -16 16q0 116 6.5 307.5 t14.5 282.5q2 27 22 30q152 26 195 26q15 0 15 -18v-602q0 -21 -19 -24q-215 -18 -218 -18z" />
<glyph unicode="&#xfb24;" horiz-adv-x="1847" d="M85 0q-24 0 -24 20q0 29 22 123q5 23 29 24q24 3 581.5 8.5t585.5 7.5q114 4 164 73.5t50 197.5v271q0 160 -122 160h-1115l-171 30q-12 2 -16 6.5t-4 13.5q0 45 59 229q4 10 14 13q23 7 33 7q8 0 9 -7q31 -73 70 -113h1176q157 0 237.5 -75t80.5 -246v-295 q2 -197 -101 -322.5t-285 -125.5h-1273z" />
<glyph unicode="&#xfb25;" horiz-adv-x="1821" d="M761 -16q-32 7 -66.5 16.5t-77 22.5t-66.5 20q-8 2 -8.5 9t5.5 12l899 832q-101 -11 -1352 -11q-26 0 -26 29v427q-25 14 -74 29q-8 2 -8 9q0 8 4 42q1 10 14 14q57 19 153.5 43.5t115.5 24.5q12 0 15 -13q4 -13 12 -56.5t8 -64.5v-305h1390q19 0 24 -14q29 -102 29 -128 q0 -12 -9 -24q-27 -37 -478 -467q-53 -51 -460 -439q-15 -16 -44 -8z" />
<glyph unicode="&#xfb26;" horiz-adv-x="1957" d="M157 0q-9 0 -15 6.5t-6 14.5q0 4 1.5 247t1.5 315q0 59 49 157t104 145l-191 30q-19 4 -19 20q0 35 59 231q2 10 12 11q29 7 34 7t8 -8q27 -67 71 -112h1291q304 0 304 -310v-725q0 -29 -28 -29h-1676zM384 176q60 2 619.5 4.5t606.5 3.5v566q0 135 -114 135h-1076 q-36 -115 -36 -191v-518z" />
<glyph unicode="&#xfb27;" horiz-adv-x="1660" d="M1325 -12q-11 0 -11 11v705q0 95 -38 138t-101 43h-936l-182 30q-20 4 -20 19q0 57 56 225q1 2 3 4.5t2.5 4t1.5 3t2 2.5t2.5 1.5t3.5 1.5q26 8 34 8q7 0 10 -10q35 -77 71 -110h983q69 0 122 -9t98.5 -32.5t75 -62t46 -98t16.5 -139.5v-696q0 -17 -18 -20 q-218 -19 -221 -19z" />
<glyph unicode="&#xfb28;" horiz-adv-x="2033" d="M1689 -12q-12 0 -12 12v726q0 159 -138 159h-1071q-18 -89 -9 -260q13 -267 53 -455q3 -13 -4 -38q-13 -54 -30 -110q-7 -22 -35 -22h-408q-20 0 -20 17q0 15 22 121q2 11 7.5 15t18.5 6q84 13 206 19q-46 253 -42 400q0 152 128 307l-223 30q-21 4 -21 20q0 23 22.5 103 t40.5 129q4 9 11 10q29 7 32 7t8 -8q2 -4 10 -19t11 -20.5t10.5 -18t12.5 -20t12.5 -17t15.5 -17.5h1269q91 0 155 -15.5t112.5 -53.5t71.5 -105.5t23 -167.5v-694q0 -18 -19 -21q-199 -19 -220 -19z" />
<glyph unicode="&#xfb29;" horiz-adv-x="1007" d="M151 455q-18 0 -18 21q0 14 9 128q2 17 9.5 23t25.5 6h230l1 238q0 25 19 27q77 17 136 17q12 0 16.5 -7t4.5 -25l-1 -250h266q24 0 24 -23q0 -3 -1 -11t-4.5 -33.5t-6.5 -63.5q-1 -22 -32 -27z" />
<glyph unicode="&#xfb2a;" horiz-adv-x="1502" d="M1264 1212q-21 0 -57 37t-36 56q0 20 37.5 56.5t55.5 36.5q20 0 56.5 -38t36.5 -56q0 -20 -38 -56t-55 -36zM432 -16q-20 0 -32 16q-103 175 -160.5 419.5t-66.5 470.5q-45 8 -101 25q-20 8 -20 20q0 47 53 206q9 32 22 36q28 7 30 7q6 0 9 -10q27 -64 71 -110h144 q23 0 23 -22q0 -159 2.5 -246t19 -220t50.5 -242q120 86 166 199.5t40 291.5q-2 48 -4 60h-105q-25 0 -20 27l20 130q4 22 27 22h281q18 0 18 -18q6 -173 -10 -315.5t-50 -216.5q-95 -195 -343 -267q11 -37 46 -120q382 23 516 219q60 87 91 253.5t31 289.5q-23 -4 -54 -4 h-53q-10 0 -15.5 6t-3.5 17l16 123q4 33 34 33h299q9 0 14.5 -6t4.5 -14q0 -39 -3 -118.5t-20 -223.5t-44 -225q-27 -87 -67.5 -156.5t-112.5 -134t-170 -107.5t-243.5 -69t-329.5 -26z" />
<glyph unicode="&#xfb2b;" horiz-adv-x="1502" d="M311 1212q-21 0 -57 37t-36 56q0 20 37.5 56.5t55.5 36.5q20 0 56.5 -38t36.5 -56q0 -20 -38 -56t-55 -36zM432 -16q-20 0 -32 16q-103 175 -160.5 419.5t-66.5 470.5q-45 8 -101 25q-20 8 -20 20q0 47 53 206q9 32 22 36q28 7 30 7q6 0 9 -10q27 -64 71 -110h144 q23 0 23 -22q0 -159 2.5 -246t19 -220t50.5 -242q120 86 166 199.5t40 291.5q-2 48 -4 60h-105q-25 0 -20 27l20 130q4 22 27 22h281q18 0 18 -18q6 -173 -10 -315.5t-50 -216.5q-95 -195 -343 -267q11 -37 46 -120q382 23 516 219q60 87 91 253.5t31 289.5q-23 -4 -54 -4 h-53q-10 0 -15.5 6t-3.5 17l16 123q4 33 34 33h299q9 0 14.5 -6t4.5 -14q0 -39 -3 -118.5t-20 -223.5t-44 -225q-27 -87 -67.5 -156.5t-112.5 -134t-170 -107.5t-243.5 -69t-329.5 -26z" />
<glyph unicode="&#xfb2c;" horiz-adv-x="1502" d="M1264 1212q-21 0 -57 37t-36 56q0 20 37.5 56.5t55.5 36.5q20 0 56.5 -38t36.5 -56q0 -20 -38 -56t-55 -36zM432 -16q-20 0 -32 16q-103 175 -160.5 419.5t-66.5 470.5q-45 8 -101 25q-20 8 -20 20q0 47 53 206q9 32 22 36q28 7 30 7q6 0 9 -10q27 -64 71 -110h144 q23 0 23 -22q0 -159 2.5 -246t19 -220t50.5 -242q120 86 166 199.5t40 291.5q-2 48 -4 60h-105q-25 0 -20 27l20 130q4 22 27 22h281q18 0 18 -18q6 -173 -10 -315.5t-50 -216.5q-95 -195 -343 -267q11 -37 46 -120q382 23 516 219q60 87 91 253.5t31 289.5q-23 -4 -54 -4 h-53q-10 0 -15.5 6t-3.5 17l16 123q4 33 34 33h299q9 0 14.5 -6t4.5 -14q0 -39 -3 -118.5t-20 -223.5t-44 -225q-27 -87 -67.5 -156.5t-112.5 -134t-170 -107.5t-243.5 -69t-329.5 -26zM992 462q-21 0 -57 37.5t-36 56.5q0 20 37.5 56.5t55.5 36.5q20 0 56.5 -38t36.5 -56 q0 -20 -38 -56.5t-55 -36.5z" />
<glyph unicode="&#xfb2d;" horiz-adv-x="1502" d="M311 1212q-21 0 -57 37t-36 56q0 20 37.5 56.5t55.5 36.5q20 0 56.5 -38t36.5 -56q0 -20 -38 -56t-55 -36zM432 -16q-20 0 -32 16q-103 175 -160.5 419.5t-66.5 470.5q-45 8 -101 25q-20 8 -20 20q0 47 53 206q9 32 22 36q28 7 30 7q6 0 9 -10q27 -64 71 -110h144 q23 0 23 -22q0 -159 2.5 -246t19 -220t50.5 -242q120 86 166 199.5t40 291.5q-2 48 -4 60h-105q-25 0 -20 27l20 130q4 22 27 22h281q18 0 18 -18q6 -173 -10 -315.5t-50 -216.5q-95 -195 -343 -267q11 -37 46 -120q382 23 516 219q60 87 91 253.5t31 289.5q-23 -4 -54 -4 h-53q-10 0 -15.5 6t-3.5 17l16 123q4 33 34 33h299q9 0 14.5 -6t4.5 -14q0 -39 -3 -118.5t-20 -223.5t-44 -225q-27 -87 -67.5 -156.5t-112.5 -134t-170 -107.5t-243.5 -69t-329.5 -26zM992 462q-21 0 -57 37.5t-36 56.5q0 20 37.5 56.5t55.5 36.5q20 0 56.5 -38t36.5 -56 q0 -20 -38 -56.5t-55 -36.5z" />
<glyph unicode="&#xfb2e;" horiz-adv-x="1216" d="M954 -31q-4 -4 -10 -3.5t-10 5.5q-160 231 -284.5 387t-285.5 323q-66 -163 -51 -394q6 -75 12 -106q106 -14 136 -24q15 -5 15 -19q0 -10 -7 -53.5t-14 -68.5q-5 -16 -25 -16h-296q-17 0 -20 16q-16 76 -18 169q-2 166 52.5 315t126.5 228q-4 29 -46.5 96.5t-81.5 110.5 q-6 6 -6 21q2 30 28 105t36 97q6 13 15 17q24 9 33 9q6 0 9 -11q29 -78 46 -96q18 -21 197.5 -217t238.5 -274q29 291 112 576q3 11 13 15q29 7 32 7q4 0 7 -9q4 -16 23.5 -49t44.5 -62h187q12 0 11 -13q0 -3 -3.5 -24t-10.5 -58t-15 -69q-5 -15 -19 -15h-45l-60 10 q-23 -39 -64 -110t-88 -154.5t-65 -114.5q59 -69 194 -240l105 -136q10 -16 -1 -32q-15 -18 -31 -36t-29 -30t-28.5 -25.5t-24 -20.5t-21 -16t-14.5 -11zM376 -279q-14 0 -20.5 6.5t-3.5 16.5l18 70q5 16 11.5 20.5t21.5 4.5h351q37 0 27 -31l-14 -50q-4 -13 -10 -17.5 t-20 -5.5l-170 -7q-154 -7 -191 -7z" />
<glyph unicode="&#xfb2f;" horiz-adv-x="1216" d="M954 -31q-4 -4 -10 -3.5t-10 5.5q-160 231 -284.5 387t-285.5 323q-66 -163 -51 -394q6 -75 12 -106q106 -14 136 -24q15 -5 15 -19q0 -10 -7 -53.5t-14 -68.5q-5 -16 -25 -16h-296q-17 0 -20 16q-16 76 -18 169q-2 166 52.5 315t126.5 228q-4 29 -46.5 96.5t-81.5 110.5 q-6 6 -6 21q2 30 28 105t36 97q6 13 15 17q24 9 33 9q6 0 9 -11q29 -78 46 -96q18 -21 197.5 -217t238.5 -274q29 291 112 576q3 11 13 15q29 7 32 7q4 0 7 -9q4 -16 23.5 -49t44.5 -62h187q12 0 11 -13q0 -3 -3.5 -24t-10.5 -58t-15 -69q-5 -15 -19 -15h-45l-60 10 q-23 -39 -64 -110t-88 -154.5t-65 -114.5q59 -69 194 -240l105 -136q10 -16 -1 -32q-15 -18 -31 -36t-29 -30t-28.5 -25.5t-24 -20.5t-21 -16t-14.5 -11zM568 -542q-15 0 -48.5 26.5t-33.5 39.5q0 5 6.5 40.5t16.5 86t14 77.5q-80 -4 -164 -4q-17 0 -17 10q0 16 22 89 q4 16 22 16h394q14 0 14 -8q0 -13 -19 -82q-3 -9 -16 -11l-151 -8l20 -95q20 -87 20 -107q0 -17 -32 -43.5t-48 -26.5z" />
<glyph unicode="&#xfb30;" horiz-adv-x="1216" d="M954 -31q-4 -4 -10 -3.5t-10 5.5q-160 231 -284.5 387t-285.5 323q-66 -163 -51 -394q6 -75 12 -106q106 -14 136 -24q15 -5 15 -19q0 -10 -7 -53.5t-14 -68.5q-5 -16 -25 -16h-296q-17 0 -20 16q-16 76 -18 169q-2 166 52.5 315t126.5 228q-4 29 -46.5 96.5t-81.5 110.5 q-6 6 -6 21q2 30 28 105t36 97q6 13 15 17q24 9 33 9q6 0 9 -11q29 -78 46 -96q18 -21 197.5 -217t238.5 -274q29 291 112 576q3 11 13 15q29 7 32 7q4 0 7 -9q4 -16 23.5 -49t44.5 -62h187q12 0 11 -13q0 -3 -3.5 -24t-10.5 -58t-15 -69q-5 -15 -19 -15h-45l-60 10 q-23 -39 -64 -110t-88 -154.5t-65 -114.5q59 -69 194 -240l105 -136q10 -16 -1 -32q-15 -18 -31 -36t-29 -30t-28.5 -25.5t-24 -20.5t-21 -16t-14.5 -11zM462 229q-21 0 -57 37.5t-36 56.5q0 20 37.5 56.5t55.5 36.5q20 0 56.5 -38t36.5 -56q0 -20 -38 -56.5t-55 -36.5z" />
<glyph unicode="&#xfb31;" horiz-adv-x="1030" d="M70 0q-21 0 -21 17q0 16 20 123q5 25 30 26q191 18 356 18q39 0 120 1t116 1q-40 42 -67.5 105.5t-27.5 119.5v292q0 182 -139 182h-198l-171 30q-19 4 -18 20q3 48 60 230q4 10 14 13q27 6 32 6t8 -8q21 -62 71 -112h236q198 0 276.5 -80t78.5 -262v-147q0 -43 0.5 -123 t0.5 -102q0 -48 10.5 -93t26.5 -67h121q15 0 15 -13q0 -26 -27 -157q-5 -20 -25 -20h-898zM315 462q-21 0 -57 37.5t-36 56.5q0 20 37.5 56.5t55.5 36.5q20 0 56.5 -38t36.5 -56q0 -20 -38 -56.5t-55 -36.5z" />
<glyph unicode="&#xfb32;" horiz-adv-x="791" d="M568 -12q-10 0 -13 12q-80 299 -105 366q-30 -93 -72.5 -200t-68.5 -144q-14 -22 -38 -22h-214q-11 0 -16 4.5t-4 14.5l23 148q4 22 34 29q103 24 118 31q44 20 115.5 112.5t80.5 158.5q0 55 -2 146.5t-2 108.5q-2 64 -21 92.5t-64 32.5l-54 3l-141 27q-20 3 -20 19 q0 19 21 102.5t38 133.5q5 11 14 14q26 7 32 7q5 0 9 -10q23 -62 71 -110h85q270 0 277 -270l23 -412l113 -341q8 -21 -14 -24q-160 -29 -205 -29zM187 462q-21 0 -57 37.5t-36 56.5q0 20 37.5 56.5t55.5 36.5q20 0 56.5 -38t36.5 -56q0 -20 -38 -56.5t-55 -36.5z" />
<glyph unicode="&#xfb33;" horiz-adv-x="1012" d="M510 -12q-15 0 -15 19q0 283 11 619q2 54 35 124t86 135h-392l-186 31q-17 3 -17 19q0 24 18.5 93t42.5 138q3 7 13 11q21 7 32 7q5 0 8 -8q22 -62 72 -112h738q10 0 13 -3t3 -11q0 -19 -24 -142q-6 -23 -28 -23h-172v-856q0 -19 -18 -22q-50 -4 -92.5 -8t-62.5 -5.5 t-35.5 -3t-20.5 -2t-9 -0.5zM256 462q-21 0 -57 37.5t-36 56.5q0 20 37.5 56.5t55.5 36.5q20 0 56.5 -38t36.5 -56q0 -20 -38 -56.5t-55 -36.5z" />
<glyph unicode="&#xfb34;" horiz-adv-x="1134" d="M798 -12q-10 0 -10 11v704q0 182 -137 182h-347l-182 30q-19 4 -19 20q0 55 59 231q3 8 12 11q27 7 34 7q5 0 8 -8q18 -56 71 -112h396q88 0 150.5 -16t110.5 -54.5t71.5 -106t23.5 -166.5v-693q0 -19 -19 -22q-206 -18 -222 -18zM153 -12q-16 0 -16 16q0 116 6.5 312.5 t14.5 287.5q2 26 22 29q153 26 184 26q15 0 15 -18l6 -611q0 -21 -19 -24q-38 -3 -71.5 -6t-53.5 -4.5t-36.5 -3t-24.5 -2.5t-14 -1.5t-8.5 -0.5h-4.5zM577 462q-21 0 -57 37.5t-36 56.5q0 20 37.5 56.5t55.5 36.5q20 0 56.5 -38t36.5 -56q0 -20 -38 -56.5t-55 -36.5z" />
<glyph unicode="&#xfb35;" horiz-adv-x="613" d="M272 -12q-14 0 -14 16v864l-196 48q-20 5 -20 19q0 35 59 227q4 11 15 15q26 7 30 7q7 0 10 -8q29 -68 72 -112q40 -8 59 -11q19 -4 56.5 -11.5t39.5 -7.5q56 -9 88 -100t32 -205v-702q0 -17 -19 -20q-49 -4 -89.5 -8t-59.5 -5.5t-33.5 -3t-20 -2t-9.5 -0.5zM77 462 q-21 0 -57 37.5t-36 56.5q0 20 37.5 56.5t55.5 36.5q20 0 56.5 -38t36.5 -56q0 -20 -38 -56.5t-55 -36.5z" />
<glyph unicode="&#xfb36;" horiz-adv-x="767" d="M289 -12q-15 0 -18 16q-10 70 -24.5 243t-17.5 261q-2 183 114 371l-263 37q-17 3 -17 19q0 37 58 228q3 9 14 14q27 7 33 7q5 0 8 -7q24 -63 72 -113h461q17 0 17 -14q0 -18 -25 -140q-6 -25 -29 -25h-206q-25 -79 -7 -271l59 -584q3 -21 -15 -22q-191 -20 -214 -20z M71 462q-21 0 -57 37.5t-36 56.5q0 20 37.5 56.5t55.5 36.5q20 0 56.5 -38t36.5 -56q0 -20 -38 -56.5t-55 -36.5z" />
<glyph unicode="&#xfb38;" horiz-adv-x="1257" d="M338 -32q-19 0 -24 12q-42 95 -101 311.5t-61 279.5q-4 121 78 291q-65 10 -103 17q-10 1 -31.5 5.5t-32.5 6.5q-21 3 -21 19q0 46 52 238q3 7 10 12l34 8q5 0 10 -8q21 -59 74 -109q67 -12 144 -34q21 -6 19 -33q-12 -203 5 -375q20 -202 116 -460q139 20 220 55.5 t119 102.5q42 74 60 200.5t32 384.5q1 26 -36 39t-86 9q-76 -89 -121 -291q-3 -14 -21 -11l-85 7q-13 3 -17 21q-6 37 -5 116t9 126q5 45 11 73.5t18.5 59t34 46t52.5 16.5q85 3 224 -38.5t205 -89.5q27 -22 37 -52t10 -83q0 -214 -51 -452q-35 -167 -152 -257 q-212 -163 -626 -163zM645 346q-21 0 -57 37.5t-36 56.5q0 20 37.5 56.5t55.5 36.5q20 0 56.5 -38t36.5 -56q0 -20 -38 -56.5t-55 -36.5z" />
<glyph unicode="&#xfb39;" horiz-adv-x="629" d="M319 415l-79 22q-16 3 -9 24q57 183 67 330q4 43 0 79q-93 13 -176 32q-38 8 -61 15q-19 4 -19 19q0 24 23 108.5t39 121.5q4 9 14 13q29 6 30 6q4 0 9 -8q30 -70 71 -112l173 -16q66 -6 103 -54.5t37 -118.5q0 -84 -55 -216t-134 -235q-11 -17 -33 -10zM95 602 q-21 0 -57 37.5t-36 56.5q0 20 37.5 56.5t55.5 36.5q20 0 56.5 -38t36.5 -56q0 -20 -38 -56.5t-55 -36.5z" />
<glyph unicode="&#xfb3a;" horiz-adv-x="943" d="M614 -414q-9 0 -9 11v1107q0 181 -152 181h-209l-183 30q-20 5 -20 20q0 49 62 232q1 8 11 10q27 7 32 7q6 0 9 -8q20 -59 71 -112h265q195 0 275.5 -82.5t80.5 -259.5v-1097q0 -17 -18 -19q-200 -20 -215 -20zM250 462q-21 0 -57 37.5t-36 56.5q0 20 37.5 56.5 t55.5 36.5q20 0 56.5 -38t36.5 -56q0 -20 -38 -56.5t-55 -36.5z" />
<glyph unicode="&#xfb3b;" horiz-adv-x="953" d="M85 0q-24 0 -24 20q0 29 22 123q5 23 29 24q8 1 124 7t150 9q114 4 164 73t50 198v271q0 160 -122 160h-222l-171 30q-12 2 -16 6.5t-4 13.5q0 45 59 229q4 10 14 13q23 7 33 7q8 0 9 -7q31 -73 70 -113h282q157 0 238 -75t81 -246v-295q0 -198 -102.5 -323t-284.5 -125 h-379zM298 462q-21 0 -57 37.5t-36 56.5q0 20 37.5 56.5t55.5 36.5q20 0 56.5 -38t36.5 -56q0 -20 -38 -56.5t-55 -36.5z" />
<glyph unicode="&#xfb3c;" horiz-adv-x="997" d="M473 -21q-161 30 -209 39q-19 6 -11 24q22 46 135.5 279.5t187.5 382.5t103 196q-55 -11 -150 -13t-373 -2h-64q-23 0 -23 25v451q-38 21 -74 29q-8 2 -8 9q0 24 4 41q2 11 14 15q206 69 265 69q17 0 20 -14q4 -13 11.5 -59t7.5 -67v-320h571q11 0 15 -2.5t6 -11.5 q27 -71 27 -123q0 -11 -21 -54l-408 -881q-10 -17 -26 -13zM249 502q-21 0 -57 37.5t-36 56.5q0 20 37.5 56.5t55.5 36.5q20 0 56.5 -38t36.5 -56q0 -20 -38 -56.5t-55 -36.5z" />
<glyph unicode="&#xfb3e;" horiz-adv-x="1164" d="M105 -12q-10 -1 -14 3.5t-2 14.5q31 267 92 562q14 69 69 156t131 161l-253 30q-19 4 -19 20q0 23 20 97t40 134q5 11 14 12q24 6 30 6q7 0 10 -7q40 -82 71 -113h355q205 0 315.5 -118t110.5 -322v-449q0 -15 -6 -37q-4 -8 -14 -34t-14 -37q-2 -4 -20 -48 q-8 -19 -28 -19h-438q-24 0 -24 23q0 33 21 123q4 22 30 25q107 9 245 14v493q0 94 -43 150.5t-113 56.5h-152q-79 -187 -100 -324l-42 -310l-28 -221q-3 -19 -20 -22zM622 462q-21 0 -57 37.5t-36 56.5q0 20 37.5 56.5t55.5 36.5q20 0 56.5 -38t36.5 -56q0 -20 -38 -56.5 t-55 -36.5z" />
<glyph unicode="&#xfb40;" horiz-adv-x="711" d="M42 0q-22 0 -22 19q0 9 6.5 51.5t13.5 70.5q5 23 30 24q155 14 287 19v684l-209 47q-19 4 -19 20q0 9 4 28t11 46t14 51t16 56.5t14 49.5q2 9 13 11q7 2 15.5 3.5t12 2.5t5.5 1q4 0 9 -9q33 -72 72 -111q37 -8 72 -12q14 -2 39 -6t43.5 -7.5t30.5 -6.5q23 -6 41 -29 q33 -46 50.5 -122t17.5 -152v-554q0 -22 -6 -37q-3 -8 -26 -68l-17 -45q-11 -25 -39 -25h-479zM146 462q-21 0 -57 37.5t-36 56.5q0 20 37.5 56.5t55.5 36.5q20 0 56.5 -38t36.5 -56q0 -20 -38 -56.5t-55 -36.5z" />
<glyph unicode="&#xfb41;" horiz-adv-x="1213" d="M338 -23q-20 0 -23 14q-29 100 -84.5 327t-55.5 269q5 135 97 300q-11 2 -52.5 7.5t-64.5 9.5q-37 4 -82 12q-10 2 -13 6t-3 13q0 22 20.5 98t39.5 132q5 11 12 12q27 7 34 7q5 0 6 -6q17 -47 84 -114h854q20 0 20 -18q-3 -35 -11.5 -136t-12.5 -147t-11 -122t-14.5 -134 t-15.5 -110q-32 -179 -170 -280q-96 -68 -226 -103t-328 -37zM511 144q169 21 238.5 84t84.5 194q0 8 8 95t18.5 199.5t13.5 168.5h-466q-5 -192 9 -326q17 -177 94 -415zM624 462q-21 0 -57 37.5t-36 56.5q0 20 37.5 56.5t55.5 36.5q20 0 56.5 -38t36.5 -56 q0 -20 -38 -56.5t-55 -36.5z" />
<glyph unicode="&#xfb43;" horiz-adv-x="1075" d="M753 -414q-13 0 -13 13v1105q0 92 -38 136.5t-104 44.5h-259q-21 -118 -35 -351h148l44 -32q10 -9 4 -25l-52 -163q-4 -13 -24 -10l-205 38l-104 -38q-10 -4 -15 1l-20 23q-4 4 -4 16q0 15 6.5 72.5t12.5 88.5q3 29 41.5 138.5t98.5 243.5l-137 28q-20 5 -20 20 q0 20 19 92.5t42 136.5q3 10 11 13q27 7 33 7t9 -8q18 -57 71 -112h391q152 0 238 -84t86 -258v-1095q0 -19 -19 -22q-191 -19 -206 -19zM519 596q-21 0 -57 37.5t-36 56.5q0 20 37.5 56.5t55.5 36.5q20 0 56.5 -38t36.5 -56q0 -20 -38 -56.5t-55 -36.5z" />
<glyph unicode="&#xfb44;" horiz-adv-x="1108" d="M122 0q-11 0 -17.5 6t-5.5 15l20 123q5 24 30 24q77 0 226 8l181 7q102 2 157.5 74t55.5 197v271q0 160 -122 160h-291q-19 -116 -23 -243h147l43 -33q11 -8 5 -25l-52 -152q-5 -14 -20 -9l-210 38l-102 -38q-8 -4 -16 1l-20 24q-4 4 -2 17q5 42 24 143q6 29 45 114.5 t83 164.5l-129 28q-18 4 -18 20q0 52 59 229q4 12 13 13q29 7 33 7q6 0 9 -8q20 -59 71 -112h405q311 0 311 -321v-295q2 -197 -102.5 -322.5t-290.5 -125.5h-497zM544 652q-21 0 -57 37.5t-36 56.5q0 20 37.5 56.5t55.5 36.5q20 0 56.5 -38t36.5 -56q0 -20 -38 -56.5 t-55 -36.5z" />
<glyph unicode="&#xfb46;" horiz-adv-x="1095" d="M81 0q-12 0 -18 6t-5 15q1 4 3.5 27t6.5 48.5t10 46.5q5 23 29 24q70 6 258 12.5t277 6.5q-52 85 -162 228.5t-180 229.5t-224 272q-5 5 -5 16q0 49 64 230q4 11 13 14q23 7 33 7q7 0 8 -7q30 -78 46 -99q16 -22 176 -230.5t203 -270.5q22 274 122 588q3 9 12 13 q24 6 33 6q4 0 7 -9q26 -74 65 -110h183q13 0 13 -10q0 -1 -5.5 -32t-12.5 -69t-11 -52q-3 -16 -17 -16h-57l-50 8q-15 -27 -94 -160.5t-126 -221.5q170 -242 221 -335q6 -11 6 -22q0 -35 -32 -139q-5 -15 -24 -15h-766zM268 272q-21 0 -57 37.5t-36 56.5q0 20 37.5 56.5 t55.5 36.5q20 0 56.5 -38t36.5 -56q0 -20 -38 -56.5t-55 -36.5z" />
<glyph unicode="&#xfb47;" horiz-adv-x="1213" d="M733 -21q-21 4 -68.5 13t-84.5 16.5t-46 9.5q-19 6 -10 29q188 458 252 599q47 100 139 250q-5 0 -36.5 -3t-80.5 -5.5t-97 -2.5h-383l-217 30q-19 3 -19 20q0 28 56 222q4 12 16 18q27 9 33 9t8 -8q26 -64 71 -112h839q17 0 23 -14q28 -78 28 -123q0 -10 -21 -54 l-374 -879q-9 -19 -28 -15zM578 552q-21 0 -57 37.5t-36 56.5q0 20 37.5 56.5t55.5 36.5q20 0 56.5 -38t36.5 -56q0 -20 -38 -56.5t-55 -36.5zM165 -412q-15 0 -15 15q0 744 22 1001q3 26 23 29q157 26 179 26q15 0 15 -18l6 -1011q0 -23 -19 -24q-38 -3 -71 -6t-53 -4.5 t-36.5 -3t-24.5 -2.5t-14 -1.5t-8 -0.5h-4z" />
<glyph unicode="&#xfb48;" horiz-adv-x="950" d="M614 -12q-11 0 -11 11v705q0 95 -38 138t-101 43h-225l-182 30q-20 4 -20 19q0 57 56 225q1 2 3 4.5t2.5 4t1.5 3t2 2.5t2.5 1.5t3.5 1.5q26 8 34 8q7 0 10 -10q35 -77 71 -110h272q69 0 122 -9t98.5 -32.5t75 -62t46 -98t16.5 -139.5v-696q0 -17 -18 -20 q-216 -19 -221 -19zM315 462q-21 0 -57 37.5t-36 56.5q0 20 37.5 56.5t55.5 36.5q20 0 56.5 -38t36.5 -56q0 -20 -38 -56.5t-55 -36.5z" />
<glyph unicode="&#xfb49;" horiz-adv-x="1502" d="M432 -16q-20 0 -32 16q-103 175 -160.5 419.5t-66.5 470.5q-45 8 -101 25q-20 8 -20 20q0 47 53 206q9 32 22 36q28 7 30 7q6 0 9 -10q27 -64 71 -110h144q23 0 23 -22q0 -159 2.5 -246t19 -220t50.5 -242q120 86 166 199.5t40 291.5q-2 48 -4 60h-105q-25 0 -20 27 l20 130q4 22 27 22h281q18 0 18 -18q6 -173 -10 -315.5t-50 -216.5q-95 -195 -343 -267q11 -37 46 -120q382 23 516 219q60 87 91 253.5t31 289.5q-23 -4 -54 -4h-53q-10 0 -15.5 6t-3.5 17l16 123q4 33 34 33h299q9 0 14.5 -6t4.5 -14q0 -39 -3 -118.5t-20 -223.5t-44 -225 q-27 -87 -67.5 -156.5t-112.5 -134t-170 -107.5t-243.5 -69t-329.5 -26zM992 462q-21 0 -57 37.5t-36 56.5q0 20 37.5 56.5t55.5 36.5q20 0 56.5 -38t36.5 -56q0 -20 -38 -56.5t-55 -36.5z" />
<glyph unicode="&#xfb4a;" horiz-adv-x="1232" d="M895 -12q-10 0 -10 10v706q0 181 -138 181h-272q-11 -48 -12 -100q-8 -223 54 -615q3 -13 -4 -38l-30 -110q-6 -22 -35 -22h-407q-21 0 -21 17q0 15 22 121q3 17 27 21q87 13 200 19q-3 17 -10 65.5t-9.5 66.5t-8 57t-8 60t-5 51t-3.5 53.5t-1 46.5q5 140 129 307 l-205 30q-20 4 -20 20q0 22 22 102.5t40 129.5q4 9 11 10q29 7 32 7q5 0 8 -8q41 -80 72 -112h467q88 0 150.5 -15.5t110.5 -53.5t71.5 -105.5t23.5 -167.5v-694q0 -18 -19 -21q-202 -19 -222 -19zM666 462q-21 0 -57 37.5t-36 56.5q0 20 37.5 56.5t55.5 36.5q20 0 56.5 -38 t36.5 -56q0 -20 -38 -56.5t-55 -36.5z" />
<glyph unicode="&#xfb4b;" horiz-adv-x="613" d="M318 1212q-21 0 -57 37t-36 56q0 20 37.5 56.5t55.5 36.5q20 0 56.5 -38t36.5 -56q0 -20 -38 -56t-55 -36zM272 -12q-14 0 -14 16v864l-196 48q-20 5 -20 19q0 35 59 227q4 11 15 15q26 7 30 7q7 0 10 -8q29 -68 72 -112q40 -8 59 -11q19 -4 56.5 -11.5t39.5 -7.5 q56 -9 88 -100t32 -205v-702q0 -17 -19 -20q-49 -4 -89.5 -8t-59.5 -5.5t-33.5 -3t-20 -2t-9.5 -0.5z" />
<glyph unicode="&#xfb4f;" horiz-adv-x="1129" d="M855 -29q-13 -11 -24 3q-194 270 -318 424q-264 330 -429 512q-15 19 -15 54v375q-46 26 -94 30q-8 0 -8 9q0 18 4 41q1 10 14 14q34 12 142.5 39.5t137.5 30.5q17 2 20 -15q3 -11 11 -57.5t8 -68.5q0 -133 1 -189q0 -190 4 -198q182 -200 335 -390q32 281 130 578 q5 11 13 14l32 7q5 0 8 -9q5 -16 25.5 -51t41.5 -60h175q12 0 11 -13l-30 -151q-4 -15 -18 -15h-45l-61 10q-19 -33 -99.5 -172.5t-122.5 -211.5q60 -71 166 -208t127 -162q11 -14 0 -32q-47 -63 -142 -138z" />
<glyph horiz-adv-x="1063" d="M526 115q-172 0 -293 121q-118 118 -118 292q0 173 118 291q121 121 293 121q170 0 291 -121t121 -291q0 -174 -121 -292q-121 -121 -291 -121z" />
<glyph horiz-adv-x="1214" d="M203 31l39 229q158 46 262 81q47 16 82 30q28 84 28 198q0 41 -15.5 79.5t-38 68t-44.5 57.5t-37.5 59.5t-15.5 61.5v10h-25q-70 0 -109.5 39.5t-41.5 104.5q0 23 3 47.5t11 52.5t24.5 45.5t39.5 17.5q3 0 6 -7.5t6.5 -20t3.5 -13.5q6 -25 30.5 -34.5t54.5 -11.5t59 -7.5 t49.5 -30t21.5 -71.5q0 -50 -12 -103q0 -2 -41 -6q-20 0 -29.5 -12t-9.5 -29q0 -27 13.5 -54t32 -50t37.5 -47.5t32.5 -57.5t13.5 -69q0 -99 -37 -217q88 265 350 489q19 19 19 35q0 27 -66 27h-29q-60 0 -92.5 40.5t-32.5 98.5v12q0 54 18.5 103t57.5 49q6 0 9.5 -5.5 t4.5 -11t2 -14t1 -10.5q5 -22 27.5 -30.5t50 -11t55 -9.5t47.5 -34.5t22 -78.5q0 -12 -8 -55q-8 -41 -8 -42q-1 -4 -2.5 -10.5t-1.5 -7.5q-157 -121 -259 -260.5t-143 -253.5q14 5 179 117q82 58 141 100l-34 -99q-25 -74 -52 -140q-6 -13 -30.5 -38.5t-78 -65t-124 -79 t-181 -82.5t-235.5 -73zM1038 -236q-40 0 -67 27.5t-27 69.5q0 40 27 67t67 27q41 0 68 -27t27 -67q0 -42 -27 -69.5t-68 -27.5zM1038 -223q35 0 57.5 23.5t22.5 60.5t-22.5 60.5t-57.5 23.5q-34 0 -55.5 -23.5t-21.5 -60.5t21.5 -60.5t55.5 -23.5zM150 -213v107h-68v26h92 q8 0 8 -6v-127h-32zM229 -213l-12 107h-20v26h78v-26h-27l16 -107h-35zM291 -225l-12 26l38 11l-28 108h30l27 -100q23 6 23 24v50h-13v26h35q10 0 10 -8v-68q0 -35 -39 -47zM514 -213v107h-59v26h112v-26h-20v-107h-33zM645 -213v107h-59v26h110v-26h-20v-107h-31z M729 -213v107h-16v26h43q8 0 8 -6v-127h-35zM788 -225l-8 26l35 11l-31 108h35l27 -100q24 8 24 24v50h-18v26h41q8 0 8 -8v-68q0 -34 -39 -47zM1047 -195q-28 0 -44 16.5t-16 39.5q0 25 17 39t43 14q8 0 22 -2l10 -2l6 -25l-8 -6q-6 29 -33 29q-34 0 -34 -47q0 -45 37 -45 q24 0 32 26l8 -2l-8 -28q-16 -7 -32 -7z" />
<glyph horiz-adv-x="1892" d="M56 -1l-6 8l195 1094l10 8h1580l7 -8l-194 -1094l-12 -8h-1580zM427 215h245l7 5l5 29l-4 10l-50 29l60 229l49 -254l5 -6h159l7 6l173 269l-47 -243l-52 -32l-6 -8l-5 -29l4 -5h369l8 5l7 35q-33 17 -41.5 38.5t-2.5 65.5l54 357l122 56l8 9l14 82l-5 5h-377l-11 -5 l-200 -333q-20 84 -34 136.5t-31.5 93t-30.5 60t-36 31.5t-43.5 14.5t-58.5 2.5h-185l-8 -5l-15 -82l6 -8l101 -57l-76 -333q-13 -57 -29 -85.5t-50 -43.5l-7 -34z" />
</font>
</defs>
</svg>
