<?xml version="1.0" standalone="no"?>
<!DOCTYPE svg PUBLIC "-//W3C//DTD SVG 20010904//EN"
 "http://www.w3.org/TR/2001/REC-SVG-20010904/DTD/svg10.dtd">
<svg version="1.0" xmlns="http://www.w3.org/2000/svg"
 width="518.000000pt" height="804.000000pt" viewBox="0 0 518.000000 804.000000"
 preserveAspectRatio="xMidYMid meet">
<metadata>
Created by potrace 1.15, written by Peter Selinger 2001-2017
</metadata>
<g transform="translate(0.000000,804.000000) scale(0.100000,-0.100000)"
fill="#000000" stroke="none">
<path d="M830 4260 l0 -1360 160 0 160 0 0 80 0 80 80 0 80 0 0 -240 0 -240
80 0 80 0 0 -80 0 -80 240 0 240 0 0 80 0 80 80 0 80 0 0 160 0 160 480 0 480
0 0 -160 0 -160 80 0 80 0 0 -80 0 -80 240 0 240 0 0 80 0 80 80 0 80 0 0 240
0 240 80 0 80 0 0 -80 0 -80 160 0 160 0 0 480 0 480 -80 0 -80 0 0 160 0 160
-80 0 -80 0 0 80 0 80 -80 0 -80 0 0 80 0 80 -320 0 -320 0 0 560 0 560 -1200
0 -1200 0 0 -1360z m2080 400 l0 -800 -960 0 -960 0 0 800 0 800 960 0 960 0
0 -800z m800 -400 l0 -80 80 0 80 0 0 -80 0 -80 80 0 80 0 0 -80 0 -80 80 0
80 0 0 -400 0 -400 -80 0 -80 0 0 80 0 80 -80 0 -80 0 0 -80 0 -80 -160 0
-160 0 0 80 0 80 160 0 160 0 0 80 0 80 -160 0 -160 0 0 80 0 80 -80 0 -80 0
0 -80 0 -80 -160 0 -160 0 0 -80 0 -80 160 0 160 0 0 -80 0 -80 -80 0 -80 0 0
-80 0 -80 240 0 240 0 0 -160 0 -160 -160 0 -160 0 0 80 0 80 -80 0 -80 0 0
80 0 80 -80 0 -80 0 0 160 0 160 -80 0 -80 0 0 -80 0 -80 -320 0 -320 0 0 80
0 80 -80 0 -80 0 0 -160 0 -160 -80 0 -80 0 0 -80 0 -80 -80 0 -80 0 0 -80 0
-80 -160 0 -160 0 0 160 0 160 240 0 240 0 0 80 0 80 -80 0 -80 0 0 80 0 80
160 0 160 0 0 80 0 80 -160 0 -160 0 0 80 0 80 -160 0 -160 0 0 -80 0 -80 -80
0 -80 0 0 -80 0 -80 160 0 160 0 0 -80 0 -80 -160 0 -160 0 0 80 0 80 -80 0
-80 0 0 -80 0 -80 -80 0 -80 0 0 320 0 320 1040 0 1040 0 0 80 0 80 160 0 160
0 0 80 0 80 -80 0 -80 0 0 160 0 160 240 0 240 0 0 -80z"/>
</g>
</svg>
