<?xml version="1.0" standalone="no"?>
<!DOCTYPE svg PUBLIC "-//W3C//DTD SVG 20010904//EN"
 "http://www.w3.org/TR/2001/REC-SVG-20010904/DTD/svg10.dtd">
<svg version="1.0" xmlns="http://www.w3.org/2000/svg"
 width="540.000000pt" height="540.000000pt" viewBox="0 0 540.000000 540.000000"
 preserveAspectRatio="xMidYMid meet">
<metadata>
Created by potrace 1.15, written by Peter Selinger 2001-2017
</metadata>
<g transform="translate(0.000000,540.000000) scale(0.100000,-0.100000)"
fill="#000000" stroke="none">
<path d="M4035 5057 c-27 -14 -64 -40 -82 -58 -50 -54 -664 -987 -684 -1040
-22 -58 -24 -115 -5 -184 20 -75 42 -121 170 -348 l118 -209 -36 -53 c-177
-267 -854 -951 -1190 -1202 l-98 -74 -42 24 c-22 13 -123 69 -222 126 -209
118 -292 151 -379 150 -105 0 -73 18 -712 -406 -269 -179 -424 -288 -448 -315
-73 -86 -84 -221 -27 -342 74 -157 417 -540 607 -677 103 -75 130 -84 240 -83
456 6 1067 310 1735 864 439 364 954 886 1299 1315 517 644 801 1235 801 1670
0 88 -31 157 -117 265 -141 176 -513 503 -643 564 -54 26 -80 31 -150 34 -73
2 -92 -1 -135 -21z m200 -216 c67 -31 252 -186 411 -345 169 -169 214 -233
214 -307 0 -142 -77 -411 -179 -625 -235 -490 -618 -991 -1216 -1589 -842
-842 -1585 -1323 -2146 -1387 -96 -10 -97 -10 -146 17 -102 55 -274 224 -460
450 -111 136 -138 188 -126 247 5 28 57 64 487 350 l481 319 45 -6 c53 -7 129
-45 410 -205 116 -66 217 -120 225 -120 20 0 161 98 280 193 186 150 339 290
575 527 314 313 534 567 667 766 l54 81 -151 267 c-83 147 -158 286 -166 308
-31 89 -31 90 179 409 346 526 436 657 454 662 37 10 69 6 108 -12z"/>
</g>
</svg>
