<?xml version="1.0" standalone="no"?>
<!DOCTYPE svg PUBLIC "-//W3C//DTD SVG 20010904//EN"
 "http://www.w3.org/TR/2001/REC-SVG-20010904/DTD/svg10.dtd">
<svg version="1.0" xmlns="http://www.w3.org/2000/svg"
 width="1304.000000pt" height="985.000000pt" viewBox="0 0 1304.000000 985.000000"
 preserveAspectRatio="xMidYMid meet">
<metadata>
Created by potrace 1.15, written by Peter Selinger 2001-2017
</metadata>
<g transform="translate(0.000000,985.000000) scale(0.100000,-0.100000)"
fill="#000000" stroke="none">
<path d="M6415 9499 c-975 -74 -1686 -364 -2077 -848 -341 -423 -496 -945
-539 -1818 -14 -284 -6 -1765 10 -1988 35 -474 87 -779 177 -1037 38 -108 105
-255 148 -325 l26 -42 -111 -56 c-516 -262 -835 -585 -979 -990 -74 -210 -100
-385 -100 -685 0 -349 45 -677 165 -1197 31 -131 89 -183 208 -183 55 0 70 4
104 29 83 60 90 125 39 354 -187 824 -189 1300 -8 1662 187 375 573 638 1372
934 91 34 266 99 390 145 124 46 228 81 231 77 4 -3 205 -467 449 -1031 272
-631 453 -1036 469 -1054 74 -81 199 -86 273 -10 23 23 174 331 520 1061 440
927 490 1028 509 1025 46 -7 412 -127 559 -182 500 -189 807 -372 1047 -623
200 -210 316 -445 375 -767 19 -99 22 -153 22 -385 1 -305 -9 -407 -76 -812
-46 -277 -46 -299 8 -363 38 -45 75 -60 144 -60 89 0 142 34 174 111 28 67 94
505 117 775 17 212 7 646 -19 799 -55 312 -137 526 -292 758 -101 152 -323
377 -460 468 l-23 15 43 63 c69 103 138 259 170 386 63 248 62 473 -6 984 -64
486 -64 493 -74 1101 -9 617 -20 853 -51 1160 -77 770 -266 1333 -588 1755
-69 91 -236 260 -326 330 -332 259 -727 409 -1217 460 -160 16 -607 19 -803 4z
m815 -394 c465 -64 800 -211 1067 -469 431 -414 643 -1056 703 -2126 5 -96 12
-393 15 -660 7 -569 14 -703 61 -1065 62 -486 66 -538 61 -725 -3 -137 -9
-192 -26 -255 -25 -95 -74 -201 -130 -284 l-41 -60 -143 69 c-258 123 -639
262 -987 360 -145 41 -158 47 -202 89 -87 82 -150 252 -164 441 l-6 85 46 34
c77 54 222 198 305 300 389 485 580 1118 520 1727 -33 334 -141 782 -264 1094
-107 270 -260 512 -356 560 -84 43 -193 14 -251 -66 -120 -167 -474 -294 -973
-349 -77 -9 -257 -20 -400 -25 -336 -12 -475 -41 -629 -130 -247 -142 -378
-396 -432 -838 -21 -173 -31 -747 -15 -907 23 -240 91 -484 191 -689 95 -195
196 -333 368 -506 l155 -154 -6 -91 c-7 -102 -43 -238 -86 -323 -37 -74 -113
-175 -143 -190 -13 -6 -223 -86 -468 -176 -245 -90 -452 -167 -462 -171 -49
-20 -194 300 -252 558 -93 413 -121 909 -113 1972 5 653 11 790 43 1080 67
606 228 1007 519 1299 352 353 912 544 1770 606 175 12 588 4 725 -15z m415
-1493 c132 -301 246 -741 284 -1094 38 -349 -34 -717 -209 -1073 -243 -495
-617 -798 -1015 -822 -519 -30 -1026 336 -1236 893 -102 269 -125 514 -99
1024 21 403 70 588 187 711 105 111 201 135 585 149 387 14 623 44 896 115
195 52 355 117 482 199 66 42 60 47 125 -102z m-1478 -3291 c271 -91 566 -104
817 -37 l84 22 16 -87 c31 -170 95 -319 190 -445 l52 -71 -395 -832 c-275
-577 -397 -826 -402 -814 -5 13 -487 1126 -709 1639 l-18 42 50 68 c96 130
172 314 213 517 3 15 7 27 10 27 2 0 43 -13 92 -29z"/>
<path d="M7492 1314 c-98 -59 -118 -201 -41 -288 59 -68 44 -67 740 -64 l625
3 36 24 c111 76 117 237 12 317 l-37 29 -646 3 -646 2 -43 -26z"/>
</g>
</svg>
