<?xml version="1.0" encoding="UTF-8" standalone="no"?>
<svg
   xmlns:dc="http://purl.org/dc/elements/1.1/"
   xmlns:cc="http://creativecommons.org/ns#"
   xmlns:rdf="http://www.w3.org/1999/02/22-rdf-syntax-ns#"
   xmlns:svg="http://www.w3.org/2000/svg"
   xmlns="http://www.w3.org/2000/svg"
   id="svg8"
   preserveAspectRatio="xMidYMid meet"
   viewBox="0 0 838.000000 858.000000"
   height="858.000000pt"
   width="838.000000pt"
   version="1.0">
  <defs
     id="defs12" />
  <metadata
     id="metadata2">
Created by potrace 1.15, written by Peter Selinger 2001-2017
<rdf:RDF>
  <cc:Work
     rdf:about="">
    <dc:format>image/svg+xml</dc:format>
    <dc:type
       rdf:resource="http://purl.org/dc/dcmitype/StillImage" />
  </cc:Work>
</rdf:RDF>
</metadata>
  <g
     id="g6"
     stroke="none"
     fill="#000000"
     transform="translate(0.000000,858.000000) scale(0.100000,-0.100000)">
    <path
       id="path4"
       d="M716 6493 c-3 -21 -6 -675 -6 -1453 0 -778 -3 -1601 -7 -1827 l-6 -413 -244 0 -243 0 0 -375 0 -375 3980 0 3980 0 0 369 0 369 -250 7 -250 7 0 1739 0 1739 -126 0 -127 0 5 125 5 125 -3352 0 -3352 0 -7 -37z m6464 -1953 l0 -1740 -130 0 -130 0 0 245 0 245 -120 0 -120 0 0 125 0 125 -870 0 -870 0 0 -278 c0 -154 -3 -320 -6 -370 l-7 -92 -1989 0 -1988 0 2 1618 3 1617 123 3 122 3 0 119 0 120 2990 0 2990 0 0 -1740z m-750 -1490 l0 -250 -500 0 -500 0 0 250 0 250 500 0 500 0 0 -250z m1255 -625 l0 -125 -3612 0 -3613 0 0 125 0 125 3613 0 3612 0 0 -125z" />
  </g>
</svg>
