<?xml version="1.0" encoding="UTF-8" standalone="no"?>
<svg
   xmlns:dc="http://purl.org/dc/elements/1.1/"
   xmlns:cc="http://creativecommons.org/ns#"
   xmlns:rdf="http://www.w3.org/1999/02/22-rdf-syntax-ns#"
   xmlns:svg="http://www.w3.org/2000/svg"
   xmlns="http://www.w3.org/2000/svg"
   id="svg8"
   preserveAspectRatio="xMidYMid meet"
   viewBox="0 0 737.000000 669.000000"
   height="669.000000pt"
   width="737.000000pt"
   version="1.0">
  <defs
     id="defs12" />
  <metadata
     id="metadata2">
Created by potrace 1.15, written by Peter Selinger 2001-2017
<rdf:RDF>
  <cc:Work
     rdf:about="">
    <dc:format>image/svg+xml</dc:format>
    <dc:type
       rdf:resource="http://purl.org/dc/dcmitype/StillImage" />
  </cc:Work>
</rdf:RDF>
</metadata>
  <g
     id="g6"
     stroke="none"
     fill="#000000"
     transform="translate(0.000000,669.000000) scale(0.100000,-0.100000)">
    <path
       id="path4"
       d="M0 3845 l0 -2845 495 0 495 0 2 -337 c2 -186 1 -411 -1 -500 l-3 -163 670 0 670 0 6 22 c3 13 6 85 6 161 l0 137 104 0 c56 0 131 3 165 6 l61 7 0 316 c0 182 4 322 10 331 8 13 130 15 999 15 544 0 993 -3 997 -7 4 -5 7 -149 6 -320 -1 -180 2 -319 8 -328 7 -12 40 -16 165 -18 l155 -4 0 -159 0 -159 505 0 505 0 0 108 c0 59 3 130 6 158 l6 51 155 6 c86 3 158 9 162 12 3 4 8 155 9 337 l4 330 494 -4 494 -4 0 1173 0 1173 -160 0 -160 0 0 164 0 163 -82 6 c-46 4 -120 7 -165 7 l-83 0 0 104 c0 56 -3 130 -6 163 l-7 61 -163 7 -163 7 -3 153 c-2 84 -7 157 -11 162 -5 4 -305 9 -668 11 l-659 3 -2 1007 c-4 1235 -4 1304 -6 1320 -2 9 -511 12 -2507 12 l-2505 0 0 -2845z m4340 834 l0 -1671 -1994 4 c-1097 2 -1998 6 -2001 10 -18 18 -23 481 -17 1851 l5 1477 2004 0 2003 0 0 -1671z m1680 -833 l0 -163 46 -7 c26 -3 100 -6 164 -6 l117 0 5 -160 c3 -89 7 -163 10 -165 2 -2 77 -5 166 -7 l162 -3 0 -307 c0 -175 4 -318 10 -332 l10 -26 153 0 154 0 8 -424 c6 -390 3 -651 -11 -833 l-6 -73 -153 0 -153 0 -7 318 c-4 188 -11 322 -17 330 -8 9 -86 12 -329 12 -294 0 -318 1 -322 18 -3 9 -5 82 -5 161 -1 79 -4 146 -7 150 -9 9 -982 8 -990 -1 -4 -4 -10 -78 -13 -165 l-5 -158 -155 -2 c-117 -1 -157 -4 -163 -15 -5 -7 -9 -58 -10 -113 0 -55 -4 -122 -7 -150 l-7 -50 -152 -5 c-83 -3 -155 -9 -159 -13 -5 -5 -11 -75 -14 -157 -3 -81 -8 -152 -12 -156 -10 -9 -1296 -9 -1306 0 -4 4 -9 74 -12 156 -3 82 -9 152 -13 156 -5 5 -77 11 -160 14 l-152 5 -8 155 c-5 85 -13 159 -17 164 -5 5 -78 9 -163 10 l-155 1 -4 157 c-1 86 -7 160 -11 165 -11 11 -867 16 -937 6 l-55 -8 -3 -162 -2 -162 -321 0 c-236 1 -324 -2 -334 -11 -12 -10 -15 -44 -15 -166 l0 -154 -165 0 -165 0 0 494 0 494 377 6 c208 4 1184 5 2170 4 985 -2 1794 0 1798 3 3 4 9 82 12 173 l6 166 143 0 c78 0 149 3 158 6 14 5 16 58 16 493 0 268 3 491 7 494 3 4 231 7 505 7 l498 0 0 -164z m-4706 -2182 c14 -5 16 -29 16 -165 l0 -159 -164 0 -163 0 -5 71 c-3 38 -3 110 0 159 l5 89 51 4 c94 6 244 7 260 1z m5034 -9 c3 -3 8 -78 10 -167 l5 -161 -33 6 c-18 4 -95 7 -171 7 l-139 0 0 167 0 166 161 -6 c89 -4 164 -9 167 -12z m-4359 -662 l23 -6 -6 -311 c-4 -171 -10 -319 -12 -328 -5 -16 -22 -18 -165 -18 l-159 0 0 104 c0 56 -3 131 -6 165 l-7 61 -132 0 c-73 0 -147 3 -164 6 l-31 7 0 163 0 164 318 0 c174 0 328 -3 341 -7z m3919 0 l112 -6 0 -164 0 -163 -163 0 -164 0 -6 -97 c-4 -54 -7 -128 -7 -165 l0 -68 -158 0 -159 0 -6 197 c-11 312 -9 461 6 466 18 8 415 8 545 0z" />
  </g>
</svg>
